<svg xmlns="http://www.w3.org/2000/svg" xmlns:xlink="http://www.w3.org/1999/xlink" width="456" height="404pt" viewBox="0 0 342 404"><defs><symbol overflow="visible" id="z"><path d="M.965 0v-1.379h2.113V-6.71l-1.84 1.016L.73-6.957l2.633-1.39h1.301v6.968h1.824V0zm0 0"/></symbol><symbol overflow="visible" id="a"><path d="M.516 0l1.347-6.441h.856L1.375 0zm0 0"/></symbol><symbol overflow="visible" id="c"><path d="M.059 1.762L1.75-6.441h1.77l-.13.609h-.96L.973 1.152h.968l-.125.61zm0 0"/></symbol><symbol overflow="visible" id="e"><path d="M1.23 1.762H-.527l.129-.61H.57l1.461-6.984h-.969l.13-.61H2.96zm0 0"/></symbol><symbol overflow="visible" id="f"><path d="M1.3-3.766l.188-.902h.899l-.184.902zM.517 0l.187-.902h.902L1.41 0zm0 0"/></symbol><symbol overflow="visible" id="g"><path d="M5.063-3.79H.809v-.737h4.253zm0 1.958H.809v-.738h4.253zm0 0"/></symbol><symbol overflow="visible" id="ab"><path d="M.82-2.7c0-1.144.332-2.073.996-2.784.664-.711 1.47-1.067 2.414-1.067.805 0 1.457.262 1.965.785.5.524.754 1.227.758 2.102a4.12 4.12 0 01-.383 1.742c-.195.402-.433.75-.722 1.04-.29.292-.602.519-.93.675-.445.21-.91.312-1.398.316a2.82 2.82 0 01-1.41-.367 2.403 2.403 0 01-.962-1.031A3.13 3.13 0 01.82-2.7zm.852.044c-.004.383.074.73.234 1.047.153.316.387.562.7.742.308.18.636.27.98.265.328.004.64-.074.945-.234.297-.152.567-.371.801-.652a3.23 3.23 0 00.559-1.035c.132-.407.203-.809.203-1.207 0-.641-.18-1.153-.54-1.536a1.764 1.764 0 00-1.327-.57c-.676 0-1.27.29-1.782.863-.52.578-.777 1.352-.773 2.317zm0 0"/></symbol><symbol overflow="visible" id="ac"><path d="M3.484-.844c-.562.633-1.136.95-1.718.95-.364 0-.653-.102-.871-.31A.996.996 0 01.562-.96c0-.195.047-.531.149-1.012l.562-2.695h.797l-.625 2.984a2.646 2.646 0 00-.078.582.506.506 0 00.16.41c.106.098.262.149.473.145.219.004.438-.05.648-.16.211-.106.395-.25.551-.438.156-.18.281-.398.38-.656.058-.156.132-.441.222-.847l.422-2.02h.797L4.043 0h-.734zm0 0"/></symbol><symbol overflow="visible" id="ad"><path d="M2.156-.645l-.129.649c-.191.047-.379.07-.554.074C1.153.074.903 0 .715-.152a.592.592 0 01-.211-.48c0-.102.039-.337.117-.708l.567-2.71h-.63l.13-.618h.625l.242-1.144.91-.551-.356 1.695h.782l-.133.617H1.98l-.539 2.578c-.07.332-.105.528-.101.59-.004.098.023.168.082.215.05.05.14.078.266.074.175.004.332-.015.468-.05zm0 0"/></symbol><symbol overflow="visible" id="d"><path d="M5.348-2.547c-.086.25-.211.485-.375.7-.168.218-.36.406-.575.562-.214.164-.445.289-.691.375-.25.094-.5.137-.746.137-.258 0-.477-.043-.664-.133a1.04 1.04 0 01-.434-.371 1.132 1.132 0 01-.183-.563c-.02-.219.015-.453.105-.707.082-.254.207-.488.375-.707a2.742 2.742 0 011.254-.937c.246-.086.496-.133.754-.137.246.004.465.05.652.14.184.094.328.22.438.38.101.16.164.347.187.562.016.219-.015.453-.097.7zm0 0"/></symbol><symbol overflow="visible" id="h"><path d="M6.41 2.406H5.273a18.44 18.44 0 01-1.375-2.5 6.532 6.532 0 01-.609-2.77 6.384 6.384 0 01.559-2.667c.37-.836.847-1.7 1.425-2.594H6.41c-.383.68-.797 1.523-1.242 2.535C4.723-4.574 4.5-3.664 4.5-2.863c0 .968.203 1.879.61 2.726.406.852.84 1.696 1.3 2.543zm0 0"/></symbol><symbol overflow="visible" id="n"><path d="M9.07-3.512H5.594V-4.64H9.07zm-4.285 0H1.301V-4.64h3.484zM9.07-1.094H5.594v-1.129H9.07zm-4.285 0H1.301v-1.129h3.484zm0 0"/></symbol><symbol overflow="visible" id="o"><path d="M4.488-2.863c0 .976-.207 1.91-.62 2.8a18.555 18.555 0 01-1.372 2.47H1.363c.403-.7.82-1.512 1.258-2.446.43-.934.649-1.875.652-2.824a6.477 6.477 0 00-.632-2.766 49.224 49.224 0 00-1.278-2.496h1.133c.535.828 1 1.66 1.399 2.492.394.84.593 1.762.593 2.77zm0 0"/></symbol><symbol overflow="visible" id="p"><path d="M6.07 2.445H3.262v-10.53H6.07v1.089H4.39v8.348h1.68zm0 0"/></symbol><symbol overflow="visible" id="y"><path d="M6.5-2.297H1.3v-1.137h5.2zm0 0"/></symbol><symbol overflow="visible" id="A"><path d="M4.54 2.445H1.726V1.352H3.41v-8.348H1.727v-1.09h2.812zm0 0"/></symbol><symbol overflow="visible" id="C"><path d="M6.45-7.828L2.354 1.14 1.352.69l4.093-8.976zm0 0"/></symbol><symbol overflow="visible" id="i"><path d="M6.203-1.898c-.004.37-.086.687-.246.945a1.969 1.969 0 01-.648.633c-.27.164-.575.277-.914.351a5.5 5.5 0 01-1.043.114A13.554 13.554 0 012.07.078 8.569 8.569 0 01.992-.113v-1.399c.39.168.79.29 1.188.364.394.074.765.113 1.12.109.403.004.708-.063.91-.195.2-.13.302-.297.302-.504a.592.592 0 00-.063-.266.793.793 0 00-.238-.23 3.332 3.332 0 00-.492-.23 20.996 20.996 0 00-.832-.266 4.66 4.66 0 01-.832-.301 1.991 1.991 0 01-.594-.395 1.376 1.376 0 01-.352-.531 1.766 1.766 0 01-.117-.707 1.54 1.54 0 01.176-.742c.113-.23.289-.434.527-.614.235-.171.532-.312.883-.418a4.77 4.77 0 011.23-.152 9.49 9.49 0 011.079.067c.312.046.59.09.832.136v1.266a6.983 6.983 0 00-1.04-.25 7.338 7.338 0 00-.96-.074c-.32.004-.574.058-.766.172-.195.117-.293.277-.289.476a.467.467 0 00.059.258c.035.078.109.152.226.223.11.074.266.148.469.226.195.078.46.164.797.254.367.11.68.223.937.344.25.12.457.258.614.41.156.152.265.328.336.52.062.195.097.414.101.664zm0 0"/></symbol><symbol overflow="visible" id="j"><path d="M6.203-.063c-.285.063-.566.11-.848.149-.28.035-.55.055-.804.059A4.208 4.208 0 013.457.012a1.784 1.784 0 01-.762-.407 1.574 1.574 0 01-.445-.695 3.176 3.176 0 01-.14-1.004v-3.148H.374V-6.45h1.734v-1.653l1.586-.41v2.063h2.508v1.207H3.695v3.031c-.004.375.082.652.254.836.168.191.45.285.848.281.254.004.5-.015.742-.062.238-.04.461-.09.664-.145zm0 0"/></symbol><symbol overflow="visible" id="k"><path d="M6.5-3.719l-.012.41c-.008.172-.015.332-.027.477H2.223c-.004.289.039.539.129.75.082.219.207.398.367.543.156.148.344.258.57.332.219.078.469.117.742.113.313.004.645-.02 1.004-.07a7.45 7.45 0 001.117-.238v1.23c-.168.05-.351.094-.543.129-.195.04-.39.066-.593.098-.204.027-.41.05-.618.066-.21.012-.41.02-.601.024a4.096 4.096 0 01-1.324-.207 2.481 2.481 0 01-.989-.622 2.576 2.576 0 01-.62-1.011C.713-2.094.643-2.56.647-3.09a4.282 4.282 0 01.215-1.433c.14-.43.344-.797.61-1.102.257-.305.578-.54.953-.71.375-.165.793-.25 1.254-.255.457.004.86.074 1.215.215.347.14.644.34.882.594.235.254.414.554.54.906.12.352.18.738.183 1.156zM4.926-3.94a1.907 1.907 0 00-.094-.664 1.427 1.427 0 00-.277-.465 1.166 1.166 0 00-.407-.274 1.512 1.512 0 00-.5-.09c-.39.004-.71.133-.957.391-.253.262-.402.629-.445 1.102zm0 0"/></symbol><symbol overflow="visible" id="l"><path d="M6.684-3.34c-.004.594-.086 1.11-.25 1.54a2.93 2.93 0 01-.7 1.073c-.3.29-.652.504-1.054.637a4.282 4.282 0 01-1.813.172A4.653 4.653 0 012.43 0v2.52H.883v-8.97h1.34l.035.954c.129-.164.265-.313.41-.453.14-.133.297-.25.46-.344.165-.094.34-.164.532-.219.192-.047.406-.074.645-.078a2.3 2.3 0 011.015.23c.297.157.543.372.746.65.196.284.348.624.457 1.022.102.403.157.852.16 1.348zm-1.625.067a4.968 4.968 0 00-.079-.91 2 2 0 00-.218-.614.967.967 0 00-.348-.351.994.994 0 00-.473-.114c-.265 0-.515.106-.753.317-.239.21-.493.5-.758.863v2.82c.12.047.273.082.457.114.175.03.36.046.547.043.242.003.464-.047.668-.153.203-.097.375-.242.515-.43a2.1 2.1 0 00.328-.683c.075-.266.11-.567.114-.902zm0 0"/></symbol><symbol overflow="visible" id="m"><path d="M6.813-4.254A6.264 6.264 0 016.574-2.5c-.16.527-.41.977-.746 1.344-.34.375-.77.66-1.293.855C4.012-.098 3.383 0 2.652 0H.547v-8.297h2.457c.629 0 1.183.082 1.664.238.473.164.871.407 1.191.735.317.332.555.754.715 1.258.156.511.235 1.113.239 1.812zm-1.676.102a6.503 6.503 0 00-.11-1.2 2.486 2.486 0 00-.367-.89 1.609 1.609 0 00-.687-.555c-.29-.125-.649-.187-1.07-.191h-.794v5.68h.684c.762.003 1.344-.227 1.746-.684.395-.457.594-1.176.598-2.16zm0 0"/></symbol><symbol overflow="visible" id="q"><path d="M1.25 0v-8.297h1.586v6.957H6.34V0zm0 0"/></symbol><symbol overflow="visible" id="r"><path d="M6.691-3.273c0 .507-.074.972-.218 1.39a3.088 3.088 0 01-.621 1.086 2.73 2.73 0 01-.997.695c-.394.164-.843.243-1.343.247-.485-.004-.91-.07-1.285-.207a2.415 2.415 0 01-.957-.625A2.637 2.637 0 01.664-1.73c-.14-.415-.207-.903-.207-1.458 0-.507.07-.972.219-1.394.14-.418.351-.773.629-1.074.27-.293.601-.524 1-.688.39-.16.836-.242 1.332-.246.48.004.91.074 1.289.215.375.14.695.352.957.633s.46.629.601 1.039c.137.414.207.89.207 1.43zm-1.613.035C5.074-3.906 4.95-4.41 4.7-4.746c-.25-.336-.62-.504-1.113-.504-.273 0-.504.055-.691.16-.192.106-.348.25-.47.434a1.907 1.907 0 00-.269.644c-.058.246-.09.508-.086.785-.004.676.133 1.184.407 1.524.27.34.64.508 1.109.508.258 0 .48-.051.672-.153.191-.101.347-.242.465-.43.117-.179.203-.398.265-.652a3.97 3.97 0 00.09-.808zm0 0"/></symbol><symbol overflow="visible" id="s"><path d="M5.719-5.32c.117.148.199.304.25.468.047.165.07.332.074.497-.004.363-.066.68-.188.953a1.992 1.992 0 01-.527.695c-.23.187-.5.328-.812.422a3.66 3.66 0 01-1.043.14c-.227 0-.434-.02-.625-.066a1.245 1.245 0 01-.43-.156 1.145 1.145 0 00-.184.238.55.55 0 00-.078.293c0 .07.016.137.051.203.031.07.082.133.148.184a.733.733 0 00.239.129c.09.039.191.058.308.058l1.528.055c.343.008.652.055.93.133.277.082.515.191.714.332.2.144.352.32.461.523.102.207.156.438.16.703-.004.297-.07.579-.203.848-.137.266-.344.5-.613.695-.274.196-.61.348-1.016.465-.406.11-.879.168-1.418.172a6.87 6.87 0 01-1.343-.125c-.375-.086-.68-.2-.918-.344-.243-.152-.422-.328-.532-.53A1.283 1.283 0 01.484.991 1.365 1.365 0 01.711.211C.78.094.879-.016.996-.125a3.09 3.09 0 01.406-.332A1.186 1.186 0 01.93-.914a1.127 1.127 0 01-.16-.598c-.004-.14.015-.273.054-.402.035-.121.086-.242.149-.36a2.49 2.49 0 01.215-.328c.078-.105.164-.207.253-.312a1.872 1.872 0 01-.39-.566c-.11-.223-.16-.5-.156-.836a2.19 2.19 0 01.19-.961c.126-.278.306-.516.54-.711.227-.192.5-.336.816-.438a3.57 3.57 0 011.032-.152c.187.004.37.016.547.031.175.024.335.055.48.098h2.234v1.129zM2.07.855c-.004.25.121.434.375.551.25.117.606.176 1.067.18.289-.004.535-.031.738-.082.195-.059.36-.129.492-.215a.822.822 0 00.274-.312.88.88 0 00.082-.368.478.478 0 00-.082-.289.612.612 0 00-.223-.199A1.133 1.133 0 004.457 0a4.115 4.115 0 00-.426-.05L2.664-.079a1.92 1.92 0 00-.3.242c-.083.078-.141.152-.184.227a.547.547 0 00-.09.222.967.967 0 00-.02.242zm.258-5.171c-.004.347.098.62.3.816.2.203.481.3.845.3.187 0 .351-.03.496-.093a.97.97 0 00.351-.254c.09-.101.16-.226.211-.367a1.63 1.63 0 00.07-.441c-.003-.356-.101-.637-.3-.84-.203-.2-.485-.301-.84-.301a1.2 1.2 0 00-.5.098.995.995 0 00-.563.632c-.05.149-.074.297-.07.45zm0 0"/></symbol><symbol overflow="visible" id="t"><path d="M6.477-2.508c-.004.453-.086.848-.254 1.184a2.224 2.224 0 01-.703.828c-.301.219-.66.379-1.07.484a5.955 5.955 0 01-1.36.157A11.89 11.89 0 011.828.066a7.204 7.204 0 01-1.207-.25v-1.543c.195.07.399.133.61.192.21.062.421.117.636.156.215.047.43.082.64.106.212.027.415.039.618.035.29.004.54-.024.75-.075.203-.05.375-.12.508-.21a.796.796 0 00.289-.317c.055-.12.086-.254.09-.406a.82.82 0 00-.176-.512 1.758 1.758 0 00-.461-.363c-.191-.106-.41-.2-.652-.285a15.667 15.667 0 01-.743-.274c-.25-.097-.5-.207-.742-.332a2.488 2.488 0 01-.648-.457 2.057 2.057 0 01-.461-.648c-.117-.25-.176-.555-.176-.914 0-.32.059-.63.176-.926.117-.29.3-.543.558-.762.25-.215.579-.39.981-.523.394-.13.875-.195 1.441-.195.16 0 .332.007.516.023a10.584 10.584 0 011.043.14c.16.032.309.067.45.098v1.43c-.141-.047-.29-.094-.446-.14-.164-.04-.328-.079-.5-.11a7.916 7.916 0 00-.52-.074 7.78 7.78 0 00-.492-.028 3.421 3.421 0 00-.7.067c-.19.047-.347.11-.468.187a.668.668 0 00-.265.29.761.761 0 00-.082.378.606.606 0 00.171.45c.118.124.27.234.465.335.188.102.406.196.653.278.242.09.492.183.75.281.253.102.503.215.746.34.242.129.46.281.656.46.191.184.344.4.465.645.113.25.172.543.176.88zm0 0"/></symbol><symbol overflow="visible" id="u"><path d="M6.102-.246a4.527 4.527 0 01-.95.27 6.186 6.186 0 01-1.02.09 4.41 4.41 0 01-1.378-.208 2.758 2.758 0 01-1.035-.62 2.627 2.627 0 01-.649-1.024C.918-2.141.844-2.61.844-3.148c0-.512.078-.98.242-1.403a2.979 2.979 0 011.762-1.758 3.84 3.84 0 011.394-.242c.414 0 .766.024 1.055.067.285.046.543.101.773.168v1.503a4.215 4.215 0 00-1.727-.41c-.292.004-.55.051-.777.145-.23.098-.421.234-.578.406-.156.18-.277.39-.36.633-.081.25-.12.52-.12.812 0 .313.043.59.133.836.086.246.21.457.375.625.16.172.355.301.59.391.226.094.48.14.761.137.133.004.278-.008.426-.028a5.056 5.056 0 001.309-.359zm0 0"/></symbol><symbol overflow="visible" id="v"><path d="M6.477-2.531c-.004.41-.079.781-.23 1.105-.157.332-.392.61-.704.84-.316.23-.715.406-1.191.527-.48.121-1.043.18-1.688.184C2.52.121 2.367.121 2.211.117L1.738.094c-.16-.012-.312-.028-.457-.04C1.13.036.996.02.883 0v-1.344c.262.055.558.094.894.121.328.036.676.051 1.043.047.344.004.645-.023.903-.086.25-.054.46-.14.629-.258.164-.109.285-.25.367-.414.074-.164.113-.351.117-.562a1.091 1.091 0 00-.121-.492 1.06 1.06 0 00-.367-.38 2.079 2.079 0 00-.633-.241 4.71 4.71 0 00-.91-.086h-.918v-1.18h.843c.329 0 .602-.031.82-.098.22-.062.391-.148.52-.261a.936.936 0 00.278-.391c.054-.148.082-.305.082-.477 0-.335-.114-.593-.332-.77-.223-.171-.563-.257-1.02-.26-.336.003-.66.034-.98.093-.32.066-.653.148-.993.254v-1.3a9.15 9.15 0 01.543-.161c.172-.04.348-.074.52-.106.172-.027.348-.05.527-.066.18-.012.364-.02.555-.02.457 0 .86.051 1.203.149.344.098.633.234.867.414.235.18.41.402.532.66.117.262.175.547.18.86-.005.507-.118.918-.348 1.226-.23.313-.555.547-.97.711.266.043.509.117.727.219.215.105.399.238.555.402.149.164.27.352.356.559.082.215.12.449.125.707zm0 0"/></symbol><symbol overflow="visible" id="w"><path d="M5.168-4.242l-1.664-2.93-1.637 2.93H.54l2.406-4.055h1.18l2.484 4.055zm0 0"/></symbol><symbol overflow="visible" id="x"><path d="M5.035 0L3.562-2.172 2.083 0H.211l2.418-3.25-2.293-3.2h1.887l1.445 2.122 1.43-2.121h1.738L4.613-3.262 6.957 0zm0 0"/></symbol><symbol overflow="visible" id="b"><path d="M.297 0l.976-4.668h.723l-.172.813c.309-.317.602-.547.875-.696.27-.144.551-.219.84-.222.375.003.668.105.887.308.21.207.32.48.324.82-.004.176-.043.45-.113.82L4.043 0h-.797l.621-2.957c.063-.285.094-.496.094-.637a.498.498 0 00-.16-.379c-.11-.093-.266-.14-.465-.144-.41.004-.773.152-1.09.441-.32.297-.55.797-.7 1.504L1.095 0zm0 0"/></symbol><symbol overflow="visible" id="B"><path d="M1.34 1.227c.25.003.484-.012.707-.047.219-.04.41-.098.574-.18.16-.086.29-.191.387-.316a.796.796 0 00.14-.45.896.896 0 00-.054-.312 1.366 1.366 0 00-.137-.234l-.176-.204a1.763 1.763 0 01-.172-.21.787.787 0 01-.136-.254.845.845 0 01-.055-.348.937.937 0 01.07-.383.888.888 0 01.203-.332.949.949 0 01.325-.234c.129-.059.277-.09.445-.09.203 0 .387.05.555.144.164.098.304.227.421.387.11.164.196.348.258.559.055.21.086.43.09.656A3 3 0 014.57.489a2.549 2.549 0 01-.648.906c-.29.257-.645.46-1.074.613-.43.148-.934.222-1.508.226zm0 0"/></symbol><symbol overflow="visible" id="D"><path d="M4.375-6.996V0H2.773v-6.996H.5v-1.3h6.145v1.3zm0 0"/></symbol><symbol overflow="visible" id="E"><path d="M4.73 0v-4.203c-.003-.703-.265-1.059-.789-1.059-.265 0-.515.106-.753.317-.239.21-.493.5-.758.863V0H.883v-8.969H2.43v2.207l-.075 1.168c.13-.152.262-.293.399-.422a2.174 2.174 0 01.945-.507c.18-.04.383-.063.606-.067.324.004.61.059.86.164.241.11.448.262.616.457.164.2.29.438.371.711.082.281.121.59.125.93V0zm0 0"/></symbol><symbol overflow="visible" id="F"><path d="M5.035-3.941A3.626 3.626 0 005-4.56a1.374 1.374 0 00-.152-.418.742.742 0 00-.258-.238.84.84 0 00-.348-.078c-.23.004-.469.098-.71.281-.247.192-.512.5-.802.93V0H1.14v-6.45h1.407l.055.942c.105-.164.222-.312.359-.445.129-.133.277-.246.441-.34.16-.094.34-.164.543-.219.196-.047.414-.074.657-.078.32.004.609.059.867.168.25.113.46.281.633.5.168.223.296.5.382.828.082.336.118.719.106 1.153zm0 0"/></symbol><symbol overflow="visible" id="G"><path d="M2.418-6.45v4.204c-.004.355.062.621.195.797.133.183.332.273.598.27.258.003.504-.106.746-.321.234-.21.488-.5.758-.867V-6.45h1.55V0h-1.34l-.038-.953c-.137.168-.278.32-.414.453-.141.14-.29.254-.453.348a2.45 2.45 0 01-.532.218 2.928 2.928 0 01-.636.079 2.26 2.26 0 01-.868-.16 1.562 1.562 0 01-.62-.462 1.843 1.843 0 01-.372-.71 3.038 3.038 0 01-.12-.934V-6.45zm0 0"/></symbol><symbol overflow="visible" id="H"><path d="M7.18-8.219c-.004.004-.18.668-.528 1.989a947.88 947.88 0 01-.902 3.347c-.047.164-.137.488-.27.969-.136.488-.203.781-.199.883a.306.306 0 00.047.187c.027.055.086.082.168.078.125.004.3-.113.527-.347.223-.235.375-.403.457-.504l.141.117c-.3.465-.66.848-1.078 1.14-.422.297-.852.442-1.285.442-.207 0-.39-.043-.555-.137-.164-.09-.246-.254-.246-.484 0-.145.016-.293.047-.45.031-.152.066-.292.105-.417l-.023-.024c-.297.492-.625.871-.977 1.13-.359.265-.742.394-1.156.394-.433 0-.75-.133-.95-.406C.302-.579.2-.914.204-1.32c-.004-.36.098-.778.3-1.246.2-.465.47-.91.817-1.336a4.723 4.723 0 011.114-1.016c.414-.27.828-.406 1.238-.41.238.004.426.055.558.152.133.102.215.27.247.504l.023-.023.516-1.88c.035-.124.074-.257.117-.398.039-.136.058-.273.062-.41-.004-.117-.047-.203-.125-.258-.086-.054-.222-.082-.414-.086-.004.004-.031.004-.086 0a.564.564 0 01-.117 0v-.207c.41-.03.785-.078 1.133-.14.34-.063.586-.11.73-.145zm-.328.227h-.516L4.648-1.75c-.054.191-.109.383-.168.57a2.001 2.001 0 00-.085.582.97.97 0 00.027.203c.02.09.066.133.137.13.12.003.21-.09.273-.274.059-.18.106-.336.137-.469.101-.398.437-1.66 1.015-3.789.575-2.129.864-3.195.868-3.195zM4.297-4.25a1.754 1.754 0 00-.094-.555c-.062-.164-.219-.246-.469-.246-.332 0-.644.14-.945.414-.305.278-.57.61-.797.996-.215.368-.394.77-.531 1.211-.145.446-.215.801-.211 1.063-.004.258.047.469.148.637.098.167.293.25.582.25.305 0 .602-.137.899-.418.289-.278.547-.63.77-1.047.199-.38.355-.782.472-1.207.113-.422.172-.785.176-1.098zm0 0"/></symbol><symbol overflow="visible" id="M"><path d="M3.492 1.82l-.148.22C2.289 1.37 1.55.597 1.133-.29.773-1.034.598-2.003.598-3.194c0-.985.199-1.864.597-2.633.29-.57.688-1.074 1.203-1.516.309-.23.622-.465.938-.695l.133.203c-1.274.969-1.91 2.52-1.91 4.656 0 1.387.175 2.489.527 3.309.3.703.77 1.266 1.406 1.691zm0 0"/></symbol><symbol overflow="visible" id="R"><path d="M6.938-2.75H.788v-.672h6.149zm0 0"/></symbol><symbol overflow="visible" id="U"><path d="M3.25-3.195c-.004 1.191-.18 2.16-.531 2.906C2.3.598 1.563 1.37.504 2.039L.359 1.82A3.843 3.843 0 001.77.13c.344-.82.516-1.922.52-3.309-.004-2.136-.637-3.687-1.902-4.656l.129-.203c.312.23.625.465.937.695.508.442.91.946 1.207 1.516.39.77.586 1.648.59 2.633zm0 0"/></symbol><symbol overflow="visible" id="aa"><path d="M6.938-2.75H4.203V0h-.676v-2.75H.79v-.672h2.738v-2.71h.676v2.71h2.734zm0 0"/></symbol><symbol overflow="visible" id="I"><path d="M2.078-5.305c.192.207.336.41.438.61.062.144.18.511.343 1.11l.516-.774a3 3 0 01.496-.536c.192-.164.363-.28.52-.347a.851.851 0 01.308-.063c.168.004.301.047.403.137a.443.443 0 01.148.328c0 .149-.031.25-.086.305a.54.54 0 01-.375.144.666.666 0 01-.266-.05 1.504 1.504 0 00-.367-.094c-.097 0-.207.055-.336.164-.242.203-.53.598-.867 1.176l.48 2.015c.075.313.137.496.188.559.047.062.098.094.152.09.082.004.176-.043.29-.137.21-.18.394-.414.546-.703l.207.105A3.78 3.78 0 013.88-.117C3.66.055 3.477.14 3.336.14c-.223 0-.395-.121-.523-.368-.086-.152-.258-.808-.508-1.968C1.69-1.137 1.203-.457.835-.152.599.043.368.14.149.14a.629.629 0 01-.43-.172c-.093-.078-.14-.196-.14-.344 0-.129.043-.234.129-.324a.463.463 0 01.316-.13c.125.005.258.067.399.188.101.094.18.137.234.137.047 0 .106-.031.18-.094.184-.148.434-.468.75-.96.316-.493.523-.848.625-1.067-.25-.945-.379-1.445-.395-1.508-.093-.25-.21-.43-.351-.535-.145-.105-.36-.16-.637-.16a4.69 4.69 0 00-.312.012v-.211zm0 0"/></symbol><symbol overflow="visible" id="W"><path d="M5.648-5.164l-1.02 3.492c-.155.524-.233.852-.23.984-.003.079.008.13.04.16a.12.12 0 00.101.048c.066 0 .14-.028.223-.09.078-.059.281-.301.605-.727l.176.137c-.313.488-.629.847-.95 1.078-.214.148-.421.223-.62.223-.157 0-.278-.043-.36-.13a.42.42 0 01-.129-.331 2.11 2.11 0 01.079-.532c.062-.28.238-.91.53-1.882C3.43-1.644 2.876-.894 2.43-.48c-.45.414-.864.62-1.246.62a.642.642 0 01-.645-.664c0-.288.086-.738.258-1.343l.508-1.813c.12-.43.183-.699.187-.808a.18.18 0 00-.05-.117.168.168 0 00-.106-.051.458.458 0 00-.246.086c-.082.058-.27.277-.559.648l-.18-.125c.29-.45.598-.785.93-1.004.246-.168.477-.25.696-.254a.51.51 0 01.351.14.51.51 0 01.14.353c-.003.218-.081.593-.234 1.132L1.68-1.79c-.153.52-.227.845-.227.981 0 .079.024.141.074.18.047.047.114.067.196.067.125 0 .293-.063.504-.192.207-.129.48-.414.828-.86.343-.44.629-.859.855-1.25.223-.386.465-1.003.719-1.855l.129-.445zm0 0"/></symbol><symbol overflow="visible" id="J"><path d="M2.219-8.332v7.121c-.004.336.02.559.074.664a.49.49 0 00.227.25c.101.059.289.086.566.086V0H.457v-.21c.246 0 .414-.024.504-.075a.556.556 0 00.21-.254c.052-.117.075-.34.079-.672v-4.875c-.004-.605-.016-.976-.043-1.117-.031-.137-.078-.234-.133-.285a.396.396 0 00-.23-.074c-.102.003-.23.035-.387.093l-.098-.207 1.598-.656zm0 0"/></symbol><symbol overflow="visible" id="K"><path d="M3-5.523c.813.003 1.465.312 1.957.921.418.532.625 1.137.629 1.82-.004.481-.117.966-.348 1.458-.234.492-.554.863-.953 1.113-.406.25-.855.375-1.348.375-.812 0-1.453-.32-1.93-.969a2.953 2.953 0 01-.6-1.828c-.005-.484.116-.972.363-1.465.242-.484.566-.843.964-1.078A2.57 2.57 0 013-5.523zm-.18.378c-.21 0-.418.063-.625.188-.21.125-.379.34-.507.644-.133.31-.2.708-.196 1.188-.004.785.153 1.457.465 2.023.313.57.723.856 1.23.852.38.004.692-.152.938-.469.242-.308.363-.847.367-1.613-.004-.953-.207-1.703-.613-2.25-.281-.375-.637-.563-1.059-.563zm0 0"/></symbol><symbol overflow="visible" id="L"><path d="M1.813-1.957a1.713 1.713 0 01-.758-.668 1.73 1.73 0 01-.266-.953c-.004-.527.195-.985.602-1.371.398-.38.914-.57 1.539-.574.507.003.949.128 1.328.375h1.14c.165.003.262.007.29.015a.108.108 0 01.062.047.61.61 0 01.031.188.736.736 0 01-.027.21.121.121 0 01-.063.047c-.03.012-.128.02-.293.016H4.7c.219.285.328.645.328 1.078 0 .504-.191.93-.574 1.285-.383.36-.898.54-1.539.535-.27.004-.539-.035-.816-.117a1.64 1.64 0 00-.352.387.565.565 0 00-.09.285c-.004.07.028.137.098.195.062.067.191.11.379.133.11.016.383.031.82.04.805.023 1.324.05 1.563.085.363.051.652.184.87.403.212.218.321.488.325.808-.004.442-.211.856-.617 1.242-.614.57-1.407.856-2.387.856-.754 0-1.39-.172-1.91-.512-.293-.195-.442-.398-.438-.61a.592.592 0 01.063-.28c.066-.145.203-.344.41-.602.027-.04.227-.25.598-.633C1.227-.164 1.082-.27 1-.37a.447.447 0 01-.125-.324c-.004-.137.05-.297.164-.48.11-.184.367-.446.774-.782zm1.015-3.285a.924.924 0 00-.723.344c-.199.23-.296.585-.292 1.062-.004.617.128 1.094.398 1.434.2.257.457.386.773.386.293 0 .54-.109.73-.332.188-.222.282-.574.286-1.05-.004-.618-.137-1.102-.402-1.461a.971.971 0 00-.77-.383zM1.75 0c-.184.195-.32.379-.414.555a.987.987 0 00-.14.476c0 .188.113.352.34.492.39.243.952.364 1.69.364.7 0 1.22-.125 1.555-.375.336-.25.504-.516.504-.793 0-.207-.101-.352-.3-.43C4.776.195 4.374.145 3.78.133 2.898.109 2.223.066 1.75 0zm0 0"/></symbol><symbol overflow="visible" id="N"><path d="M3.844-5.523v1.828h-.196c-.148-.575-.34-.965-.57-1.172-.234-.207-.527-.313-.887-.313-.273 0-.496.075-.664.22-.168.144-.25.304-.25.476 0 .222.063.41.188.562.12.164.367.332.738.512l.856.418c.793.387 1.187.894 1.191 1.527-.004.488-.188.883-.555 1.18-.37.3-.785.45-1.242.45-.332 0-.707-.06-1.125-.177a1.145 1.145 0 00-.312-.058c-.094 0-.164.05-.211.152H.609v-1.918h.196c.105.55.316.961.625 1.238.304.282.648.422 1.039.418a.89.89 0 00.656-.238.773.773 0 00.258-.574.93.93 0 00-.285-.676c-.192-.184-.57-.418-1.137-.7-.566-.28-.938-.534-1.11-.76-.18-.22-.265-.5-.265-.845 0-.437.148-.804.453-1.105.297-.293.691-.442 1.176-.445.21.003.465.046.77.132.195.059.328.09.398.086a.212.212 0 00.144-.039.586.586 0 00.121-.18zm0 0"/></symbol><symbol overflow="visible" id="O"><path d="M1.277-3.344c-.004.801.188 1.426.582 1.875.387.457.848.684 1.375.68.352.004.657-.094.914-.29.258-.194.477-.526.657-.995l.18.117a2.784 2.784 0 01-.715 1.46 1.9 1.9 0 01-1.48.661c-.65 0-1.204-.25-1.657-.754-.461-.5-.688-1.176-.688-2.023 0-.918.235-1.633.707-2.149.47-.511 1.059-.77 1.77-.77.601 0 1.098.2 1.484.595.383.398.574.93.578 1.593zm0-.344h2.485c-.02-.34-.063-.582-.121-.726a1.251 1.251 0 00-.438-.516 1.183 1.183 0 00-.61-.187 1.224 1.224 0 00-.866.379c-.258.254-.407.605-.45 1.05zm0 0"/></symbol><symbol overflow="visible" id="P"><path d="M4.934-2.04c-.145.712-.43 1.259-.848 1.634-.426.383-.89.57-1.402.57-.61 0-1.141-.254-1.594-.766C.637-1.113.41-1.805.41-2.68c0-.84.25-1.527.75-2.054.5-.524 1.102-.786 1.809-.79.527.004.96.145 1.3.419.34.28.512.57.512.87a.48.48 0 01-.144.36.566.566 0 01-.403.137c-.23 0-.402-.075-.52-.223-.066-.082-.112-.238-.132-.469-.023-.226-.102-.402-.238-.527-.137-.117-.324-.176-.567-.176-.39 0-.707.145-.941.434-.32.383-.477.89-.477 1.52 0 .644.157 1.21.473 1.695.313.492.738.734 1.273.734.383 0 .727-.129 1.032-.39.215-.18.422-.508.629-.981zm0 0"/></symbol><symbol overflow="visible" id="Q"><path d="M1.406-7.164L3.34-8.11h.191v6.71c-.004.446.016.723.055.829.039.113.117.195.234.254.118.062.356.097.715.097V0H1.547v-.219c.375 0 .617-.031.726-.093A.463.463 0 002.5-.543c.043-.094.066-.379.066-.855v-4.29c0-.574-.02-.945-.058-1.117a.487.487 0 00-.149-.273.456.456 0 00-.261-.086c-.145.004-.348.062-.606.18zm0 0"/></symbol><symbol overflow="visible" id="S"><path d="M.61-6.434c.226-.53.511-.941.855-1.238.344-.289.773-.437 1.293-.437.637 0 1.125.207 1.469.62.25.313.378.645.382.989-.004.582-.367 1.18-1.086 1.797.485.191.856.465 1.106.82.25.356.375.774.375 1.25 0 .692-.219 1.285-.656 1.79-.57.655-1.399.984-2.48.984-.536 0-.9-.067-1.095-.2C.578-.19.48-.332.484-.484a.381.381 0 01.137-.301.473.473 0 01.332-.13c.098 0 .2.017.3.048.063.023.212.097.45.215.23.125.395.195.488.218.141.047.293.07.465.067.39.004.739-.153 1.035-.465.297-.309.446-.672.446-1.098 0-.304-.07-.605-.207-.898a1.708 1.708 0 00-.332-.5 2.594 2.594 0 00-.692-.426 2.35 2.35 0 00-.898-.191H1.82v-.172c.309-.04.617-.153.93-.336.309-.18.535-.399.68-.66a1.82 1.82 0 00.21-.852c-.003-.402-.128-.726-.378-.976a1.3 1.3 0 00-.942-.372c-.605 0-1.113.325-1.515.973zm0 0"/></symbol><symbol overflow="visible" id="X"><path d="M1.934-7.133v1.766h1.254v.41H1.933v3.48c0 .352.046.586.148.704a.46.46 0 00.387.18.622.622 0 00.37-.118.797.797 0 00.286-.355h.227c-.137.382-.332.671-.579.863-.253.191-.511.285-.773.289a1.08 1.08 0 01-.531-.148.841.841 0 01-.38-.426c-.081-.18-.124-.469-.12-.86v-3.609H.117v-.191c.211-.086.43-.23.656-.438.227-.203.426-.45.602-.73.09-.149.215-.418.375-.817zm0 0"/></symbol><symbol overflow="visible" id="Y"><path d="M3.414-.773c-.55.43-.894.675-1.035.738-.211.094-.438.14-.676.144C1.332.105 1.027-.02.79-.27.547-.52.426-.852.43-1.273a1.258 1.258 0 01.173-.68c.16-.262.437-.512.836-.75.39-.23 1.05-.516 1.976-.852v-.21c-.004-.536-.09-.903-.254-1.102-.172-.2-.418-.301-.738-.301-.25 0-.445.066-.586.2-.156.132-.23.284-.227.456l.016.34c-.004.18-.05.32-.14.418a.471.471 0 01-.36.145.444.444 0 01-.355-.153C.676-3.863.633-4 .633-4.18c0-.328.172-.636.515-.922.344-.277.825-.418 1.446-.421.476.003.867.082 1.172.238.23.125.402.316.511.566.07.172.106.516.106 1.032v1.824c0 .515.008.832.027.941.02.117.05.192.098.23.043.04.097.06.156.06a.319.319 0 00.164-.04c.082-.05.238-.195.477-.43v.329c-.442.586-.86.878-1.258.878a.57.57 0 01-.457-.199c-.113-.133-.172-.36-.176-.68zm0-.383V-3.2c-.59.234-.969.402-1.14.496-.31.176-.532.355-.66.539a1.004 1.004 0 00-.2.617.98.98 0 00.25.7c.164.187.356.28.578.277.293.004.684-.192 1.172-.586zm0 0"/></symbol><symbol overflow="visible" id="Z"><path d="M1.938-4.39c.628-.75 1.23-1.13 1.8-1.133.293.003.543.078.758.218.207.149.375.387.504.723.078.234.121.594.125 1.078v2.293c-.004.34.023.57.086.688.039.101.11.175.207.23.094.055.27.082.527.082V0H3.293v-.21h.113c.246 0 .422-.036.524-.114a.571.571 0 00.207-.34c.015-.055.023-.238.023-.547v-2.2c0-.484-.066-.835-.191-1.062-.13-.218-.34-.332-.64-.332-.466 0-.93.254-1.392.762v2.832c-.003.363.02.586.067.672a.494.494 0 00.226.25c.094.055.29.078.583.078V0H.155v-.21h.117c.274 0 .457-.067.555-.208.094-.133.145-.398.145-.793v-1.992c0-.645-.016-1.04-.047-1.18-.031-.14-.078-.234-.133-.285a.368.368 0 00-.242-.078c-.11 0-.242.031-.395.09L.07-4.867l1.617-.656h.25zm0 0"/></symbol><symbol overflow="visible" id="T"><path d="M1.559-3.977c.14.153.25.305.328.457.05.106.136.383.258.833l.386-.583a2.36 2.36 0 01.371-.402c.145-.125.278-.21.391-.262a.833.833 0 01.23-.043.48.48 0 01.301.102c.074.07.114.152.114.246 0 .117-.024.192-.067.227a.405.405 0 01-.281.109.546.546 0 01-.2-.039 1.609 1.609 0 00-.273-.07c-.07.004-.156.047-.25.125-.187.156-.402.449-.652.882l.36 1.512c.054.235.1.375.14.418.035.047.074.067.113.067.059 0 .133-.032.219-.102.16-.133.297-.309.41-.527l.156.078a2.797 2.797 0 01-.703.863c-.164.129-.3.191-.41.191-.168 0-.297-.09-.39-.277-.063-.11-.192-.601-.383-1.476C1.27-.852.902-.34.629-.113.445.035.273.105.109.105a.473.473 0 01-.32-.128.327.327 0 01-.105-.258c0-.094.035-.172.097-.242a.328.328 0 01.235-.098c.09 0 .191.047.3.14.075.07.133.106.176.102.035.004.078-.02.137-.07.133-.11.32-.348.562-.719.235-.367.391-.637.465-.8-.183-.712-.281-1.087-.293-1.13-.07-.187-.16-.32-.265-.402-.11-.078-.266-.121-.477-.121-.07 0-.148.004-.234.008v-.157zm0 0"/></symbol><symbol overflow="visible" id="V"><path d="M6.344-3.926H.664v-.984h5.68zm0 2.614H.664v-.985h5.68zm0 0"/></symbol><symbol overflow="visible" id="ae"><path d="M6.602-7.332H4.145V0H3.004v-7.332H.547v-.965h6.055zm0 0"/></symbol><symbol overflow="visible" id="af"><path d="M1.277-6.375h1.008l.031 1.176c.375-.45.747-.778 1.114-.985.363-.199.734-.3 1.11-.304.655.004 1.155.218 1.5.644.339.43.495 1.063.472 1.903H5.395c.011-.559-.07-.965-.247-1.215-.175-.25-.433-.375-.77-.38-.151.005-.3.032-.448.083-.153.055-.305.14-.461.254-.16.117-.328.265-.504.445a8.84 8.84 0 00-.57.66V0H1.277zm0 0"/></symbol><symbol overflow="visible" id="ag"><path d="M6.137 0h-.989L5.11-1.027a5.136 5.136 0 01-.543.547c-.175.148-.343.27-.511.355-.172.09-.344.148-.512.184a3 3 0 01-.54.054C2.344.11 1.849-.078 1.517-.46c-.336-.383-.504-.965-.5-1.75v-4.164H2.12v4.078c0 .977.367 1.465 1.106 1.465.132 0 .265-.02.394-.059.129-.039.262-.109.406-.21.141-.098.293-.231.457-.403.16-.168.344-.383.551-.64v-4.231h1.102zm0 0"/></symbol><symbol overflow="visible" id="ah"><path d="M6.398-3.523a10.295 10.295 0 01-.023.691H1.898c0 .656.18 1.156.543 1.504.364.351.891.527 1.579.523.183.004.367-.004.554-.023a8.858 8.858 0 001.04-.145c.156-.03.3-.066.44-.105v.906c-.304.09-.644.156-1.019.207-.383.05-.773.074-1.176.078C3.31.11 2.84.04 2.45-.105A2.401 2.401 0 011.48-.75a2.572 2.572 0 01-.558-1.035 4.592 4.592 0 01-.18-1.387 3.93 3.93 0 01.192-1.273A3.12 3.12 0 011.5-5.5c.246-.3.547-.54.91-.719.36-.176.77-.265 1.227-.27.441.005.836.075 1.18.212.343.14.632.336.867.593.234.258.41.57.53.934.122.367.184.777.184 1.227zM5.25-3.68a2.49 2.49 0 00-.082-.777 1.74 1.74 0 00-.316-.61c-.141-.167-.32-.3-.532-.394a1.878 1.878 0 00-.734-.144c-.242.003-.465.05-.66.14-.203.098-.375.23-.516.395a1.94 1.94 0 00-.348.61c-.09.241-.144.5-.164.78zm0 0"/></symbol></defs><g fill="#999"><use xlink:href="#a" x="4.5" y="12"/><use xlink:href="#b" x="7.001" y="12"/><use xlink:href="#c" x="12.007" y="12"/></g><use xlink:href="#d" x="14.508" y="12" fill="#999" fill-opacity=".32"/><g fill="#999"><use xlink:href="#e" x="21.575" y="12"/><use xlink:href="#f" x="24.076" y="12"/><use xlink:href="#g" x="26.577" y="12"/></g><use xlink:href="#h" x="38.833" y="12"/><g fill="#002cc3"><use xlink:href="#i" x="46.833" y="12"/><use xlink:href="#j" x="53.98" y="12"/><use xlink:href="#k" x="61.128" y="12"/><use xlink:href="#l" x="68.275" y="12"/><use xlink:href="#m" x="75.423" y="12"/></g><use xlink:href="#n" x="86.833" y="12"/><use xlink:href="#m" x="100.833" y="12"/><use xlink:href="#o" x="107.833" y="12"/><use xlink:href="#p" x="115.833" y="12"/><use xlink:href="#q" x="123.833" y="12"/><use xlink:href="#r" x="130.98" y="12"/><use xlink:href="#s" x="138.128" y="12"/><use xlink:href="#p" x="144.833" y="12"/><use xlink:href="#t" x="152.833" y="12"/><use xlink:href="#k" x="159.98" y="12"/><use xlink:href="#u" x="167.128" y="12"/><use xlink:href="#p" x="173.833" y="12"/><use xlink:href="#v" x="181.833" y="12"/><use xlink:href="#w" x="189.833" y="12"/><use xlink:href="#x" x="197.833" y="12" fill="#002cc3"/><use xlink:href="#y" x="207.833" y="12"/><use xlink:href="#z" x="218.833" y="12"/><use xlink:href="#A" x="225.833" y="12"/><use xlink:href="#A" x="233.833" y="12"/><use xlink:href="#B" x="241.833" y="12"/><use xlink:href="#x" x="252.833" y="12" fill="#002cc3"/><use xlink:href="#A" x="259.833" y="12"/><use xlink:href="#C" x="271.833" y="12"/><use xlink:href="#C" x="279.635" y="12"/><use xlink:href="#D" x="291.833" y="12"/><use xlink:href="#E" x="298.98" y="12"/><use xlink:href="#F" x="306.128" y="12"/><use xlink:href="#r" x="313.275" y="12"/><use xlink:href="#G" x="320.423" y="12"/><use xlink:href="#s" x="327.57" y="12"/><use xlink:href="#E" x="334.718" y="12"/><path d="M42.813 38h-1.981v.672h13.98V38zm0 0" fill-rule="evenodd"/><use xlink:href="#H" x="43.611" y="32.99"/><use xlink:href="#H" x="40.611" y="52.5"/><use xlink:href="#I" x="48.611" y="52.5"/><use xlink:href="#J" x="56.39" y="42"/><use xlink:href="#K" x="59.724" y="42"/><use xlink:href="#L" x="65.724" y="42"/><use xlink:href="#M" x="71.39" y="42"/><use xlink:href="#N" x="75.39" y="42"/><use xlink:href="#O" x="80.06" y="42"/><use xlink:href="#P" x="85.386" y="42"/><use xlink:href="#M" x="90.39" y="42"/><use xlink:href="#Q" x="94.39" y="42"/><use xlink:href="#R" x="102.39" y="42"/><use xlink:href="#S" x="112.39" y="42"/><use xlink:href="#T" x="118.39" y="37.5"/><use xlink:href="#U" x="123.39" y="42"/><use xlink:href="#U" x="127.39" y="42"/><use xlink:href="#V" x="43.833" y="82" fill="#ff8000"/><path d="M60.965 75.066v-.597c0-2.114.133-3.785.398-5.008.395-1.824 1.13-3.188 2.203-4.098.075-.062.11-.16.11-.293 0-.047-.024-.07-.074-.07a.18.18 0 00-.07.023c-1.169.754-2.048 1.782-2.634 3.086-.71 1.586-1.066 3.707-1.066 6.36v7.316c0 2.653.355 4.77 1.066 6.356.586 1.308 1.465 2.34 2.633 3.09a.18.18 0 00.07.023c.051 0 .075-.024.075-.07 0-.133-.035-.23-.11-.29-1.074-.914-1.808-2.28-2.203-4.101-.265-1.227-.398-2.895-.398-5.008zm0 0M67.813 77h-1.981v.672h13.98V77zm0 0" fill-rule="evenodd"/><use xlink:href="#H" x="68.611" y="71.99"/><use xlink:href="#H" x="65.611" y="91.5"/><use xlink:href="#I" x="73.611" y="91.5"/><use xlink:href="#N" x="81.39" y="81"/><use xlink:href="#O" x="86.06" y="81"/><use xlink:href="#P" x="91.386" y="81"/><use xlink:href="#M" x="96.39" y="81"/><use xlink:href="#Q" x="100.39" y="81"/><use xlink:href="#R" x="108.39" y="81"/><use xlink:href="#S" x="118.39" y="81"/><use xlink:href="#T" x="124.39" y="76.5"/><use xlink:href="#U" x="129.39" y="81"/><path d="M137.676 75.066v-.597c0-2.653-.356-4.774-1.067-6.36-.586-1.304-1.46-2.332-2.629-3.086a.18.18 0 00-.07-.023c-.05 0-.078.027-.078.082 0 .125.04.219.113.281 1.07.91 1.805 2.274 2.203 4.098.266 1.23.399 2.902.399 5.008v7.316c0 2.106-.133 3.774-.399 5.008-.398 1.82-1.132 3.187-2.203 4.102-.074.058-.113.152-.113.277 0 .055.027.082.078.082a.18.18 0 00.07-.024c1.168-.753 2.043-1.785 2.63-3.09.71-1.585 1.066-3.703 1.066-6.355zm0 0M143.813 77h-1.981v.672h83.98V77zm0 0" fill-rule="evenodd"/><use xlink:href="#H" x="142.168" y="71.99"/><use xlink:href="#J" x="150.168" y="71.99"/><use xlink:href="#K" x="153.502" y="71.99"/><use xlink:href="#L" x="159.502" y="71.99"/><use xlink:href="#M" x="165.168" y="71.99"/><use xlink:href="#N" x="169.168" y="71.99"/><use xlink:href="#O" x="173.838" y="71.99"/><use xlink:href="#P" x="179.164" y="71.99"/><use xlink:href="#M" x="184.168" y="71.99"/><use xlink:href="#Q" x="188.168" y="71.99"/><use xlink:href="#R" x="196.168" y="71.99"/><use xlink:href="#S" x="206.168" y="71.99"/><use xlink:href="#T" x="212.168" y="67.99"/><use xlink:href="#U" x="217.168" y="71.99"/><use xlink:href="#U" x="221.168" y="71.99"/><use xlink:href="#H" x="153.668" y="91.5"/><use xlink:href="#N" x="161.668" y="91.5"/><use xlink:href="#O" x="166.338" y="91.5"/><use xlink:href="#P" x="171.664" y="91.5"/><use xlink:href="#M" x="176.668" y="91.5"/><use xlink:href="#Q" x="180.668" y="91.5"/><use xlink:href="#R" x="188.668" y="91.5"/><use xlink:href="#S" x="198.668" y="91.5"/><use xlink:href="#T" x="204.668" y="87.5"/><use xlink:href="#U" x="209.668" y="91.5"/><path d="M62.813 118h-1.981v.672h14.98V118zm0 0" fill-rule="evenodd"/><use xlink:href="#H" x="64.111" y="112.99"/><use xlink:href="#H" x="60.611" y="132.5"/><use xlink:href="#W" x="68.611" y="132.5"/><use xlink:href="#J" x="77.39" y="122"/><use xlink:href="#K" x="80.724" y="122"/><use xlink:href="#L" x="86.724" y="122"/><use xlink:href="#M" x="92.39" y="122"/><use xlink:href="#W" x="96.39" y="122"/><use xlink:href="#U" x="102.39" y="122"/><use xlink:href="#V" x="63.833" y="162" fill="#ff8000"/><path d="M82.813 157h-1.981v.672h6.98V157zm0 0" fill-rule="evenodd"/><use xlink:href="#Q" x="80.611" y="151.99"/><use xlink:href="#W" x="80.611" y="171.5"/><use xlink:href="#V" x="43.833" y="201" fill="#ff8000"/><path d="M60.965 194.066v-.597c0-2.114.133-3.785.398-5.008.395-1.824 1.13-3.188 2.203-4.098.075-.062.11-.16.11-.293 0-.047-.024-.07-.074-.07a.18.18 0 00-.07.023c-1.169.754-2.048 1.782-2.634 3.086-.71 1.586-1.066 3.707-1.066 6.36v7.316c0 2.653.355 4.77 1.066 6.356.586 1.308 1.465 2.34 2.633 3.09a.18.18 0 00.07.023c.051 0 .075-.024.075-.07 0-.133-.035-.23-.11-.29-1.074-.914-1.808-2.28-2.203-4.101-.265-1.227-.398-2.895-.398-5.008zm0 0M67.813 196h-1.981v.672h13.98V196zm0 0" fill-rule="evenodd"/><use xlink:href="#H" x="68.611" y="190.99"/><use xlink:href="#H" x="65.611" y="210.5"/><use xlink:href="#I" x="73.611" y="210.5"/><use xlink:href="#M" x="81.39" y="200"/><use xlink:href="#Q" x="85.39" y="200"/><use xlink:href="#R" x="93.39" y="200"/><use xlink:href="#S" x="103.39" y="200"/><use xlink:href="#T" x="109.39" y="195.5"/><use xlink:href="#U" x="114.39" y="200"/><path d="M122.676 194.066v-.597c0-2.653-.356-4.774-1.067-6.36-.586-1.304-1.46-2.332-2.629-3.086a.18.18 0 00-.07-.023c-.05 0-.078.027-.078.082 0 .125.04.219.113.281 1.07.91 1.805 2.274 2.203 4.098.266 1.23.399 2.902.399 5.008v7.316c0 2.106-.133 3.774-.399 5.008-.398 1.82-1.132 3.187-2.203 4.102-.074.058-.113.152-.113.277 0 .055.027.082.078.082a.18.18 0 00.07-.024c1.168-.753 2.043-1.785 2.63-3.09.71-1.585 1.066-3.702 1.066-6.355zm0 0" fill-rule="evenodd"/><use xlink:href="#P" x="125.39" y="200"/><use xlink:href="#K" x="130.716" y="200"/><use xlink:href="#N" x="136.716" y="200"/><use xlink:href="#M" x="141.39" y="200"/><use xlink:href="#Q" x="145.39" y="200"/><use xlink:href="#R" x="153.39" y="200"/><use xlink:href="#S" x="163.39" y="200"/><use xlink:href="#T" x="169.39" y="195.5"/><use xlink:href="#U" x="174.39" y="200"/><path d="M183.813 196h-1.981v.672h60.98V196zm0 0" fill-rule="evenodd"/><use xlink:href="#H" x="182.168" y="190.99"/><use xlink:href="#N" x="190.168" y="190.99"/><use xlink:href="#O" x="194.838" y="190.99"/><use xlink:href="#P" x="200.164" y="190.99"/><use xlink:href="#M" x="205.168" y="190.99"/><use xlink:href="#Q" x="209.168" y="190.99"/><use xlink:href="#R" x="217.168" y="190.99"/><use xlink:href="#S" x="227.168" y="190.99"/><use xlink:href="#T" x="233.168" y="186.99"/><use xlink:href="#U" x="238.168" y="190.99"/><use xlink:href="#H" x="189.668" y="210.5"/><use xlink:href="#M" x="197.668" y="210.5"/><use xlink:href="#Q" x="201.668" y="210.5"/><use xlink:href="#R" x="209.668" y="210.5"/><use xlink:href="#S" x="219.668" y="210.5"/><use xlink:href="#T" x="225.668" y="206.5"/><use xlink:href="#U" x="230.668" y="210.5"/><path d="M62.813 237h-1.981v.672h14.98V237zm0 0" fill-rule="evenodd"/><use xlink:href="#H" x="64.111" y="231.99"/><use xlink:href="#H" x="60.611" y="251.5"/><use xlink:href="#W" x="68.611" y="251.5"/><use xlink:href="#N" x="77.39" y="241"/><use xlink:href="#O" x="82.06" y="241"/><use xlink:href="#P" x="87.386" y="241"/><use xlink:href="#M" x="92.39" y="241"/><use xlink:href="#W" x="96.39" y="241"/><use xlink:href="#U" x="102.39" y="241"/><use xlink:href="#V" x="63.833" y="275" fill="#ff8000"/><use xlink:href="#X" x="78.833" y="274"/><use xlink:href="#Y" x="82.167" y="274"/><use xlink:href="#Z" x="87.493" y="274"/><use xlink:href="#M" x="93.833" y="274"/><use xlink:href="#W" x="97.833" y="274"/><use xlink:href="#U" x="103.833" y="274"/><use xlink:href="#N" x="109.833" y="274"/><use xlink:href="#O" x="114.503" y="274"/><use xlink:href="#P" x="119.829" y="274"/><use xlink:href="#M" x="124.833" y="274"/><use xlink:href="#W" x="128.833" y="274"/><use xlink:href="#U" x="134.833" y="274"/><use xlink:href="#V" x="43.833" y="305" fill="#ff8000"/><path d="M60.965 298.066v-.597c0-2.114.133-3.785.398-5.008.395-1.824 1.13-3.188 2.203-4.098.075-.062.11-.16.11-.293 0-.047-.024-.07-.074-.07a.18.18 0 00-.07.023c-1.169.754-2.048 1.782-2.634 3.086-.71 1.586-1.066 3.707-1.066 6.36v7.316c0 2.652.355 4.77 1.066 6.356.586 1.308 1.465 2.34 2.633 3.09a.18.18 0 00.07.023c.051 0 .075-.024.075-.07 0-.133-.035-.23-.11-.29-1.074-.914-1.808-2.28-2.203-4.101-.265-1.227-.398-2.895-.398-5.008zm0 0M67.813 300h-1.981v.672h13.98V300zm0 0" fill-rule="evenodd"/><use xlink:href="#H" x="68.611" y="294.99"/><use xlink:href="#H" x="65.611" y="314.5"/><use xlink:href="#I" x="73.611" y="314.5"/><use xlink:href="#Q" x="81.39" y="304"/><use xlink:href="#aa" x="89.39" y="304"/><path d="M102.813 300h-1.981v.672h13.98V300zm0 0" fill-rule="evenodd"/><use xlink:href="#H" x="104.168" y="294.99"/><use xlink:href="#H" x="101.168" y="314.5"/><use xlink:href="#I" x="109.168" y="314.5"/><use xlink:href="#R" x="116.946" y="304"/><use xlink:href="#S" x="125.946" y="304"/><use xlink:href="#T" x="131.946" y="299.5"/><path d="M140.676 298.066v-.597c0-2.653-.356-4.774-1.067-6.36-.586-1.304-1.46-2.332-2.629-3.086a.18.18 0 00-.07-.023c-.05 0-.078.027-.078.082 0 .125.04.219.113.281 1.07.91 1.805 2.274 2.203 4.098.266 1.23.399 2.902.399 5.008v7.316c0 2.106-.133 3.774-.399 5.008-.398 1.82-1.132 3.187-2.203 4.102-.074.058-.113.152-.113.277 0 .055.027.082.078.082a.18.18 0 00.07-.024c1.168-.753 2.043-1.785 2.63-3.09.71-1.585 1.066-3.702 1.066-6.355zm0 0" fill-rule="evenodd"/><use xlink:href="#X" x="143.946" y="304"/><use xlink:href="#Y" x="147.28" y="304"/><use xlink:href="#Z" x="152.606" y="304"/><use xlink:href="#M" x="158.946" y="304"/><use xlink:href="#Q" x="162.946" y="304"/><use xlink:href="#R" x="170.946" y="304"/><use xlink:href="#S" x="180.946" y="304"/><use xlink:href="#T" x="186.946" y="299.5"/><g><use xlink:href="#U" x="191.946" y="304"/></g><g fill="#ff8000"><use xlink:href="#V" x="43.833" y="344"/></g><g><use xlink:href="#R" x="58.833" y="343"/></g><path d="M69.965 337.066v-.597c0-2.114.133-3.785.398-5.008.395-1.824 1.13-3.188 2.203-4.098.075-.062.11-.16.11-.293 0-.047-.024-.07-.074-.07a.18.18 0 00-.07.023c-1.169.754-2.048 1.782-2.634 3.086-.71 1.586-1.066 3.707-1.066 6.36v7.316c0 2.652.356 4.77 1.066 6.356.586 1.308 1.465 2.34 2.633 3.09a.18.18 0 00.07.023c.051 0 .075-.024.075-.07 0-.133-.035-.23-.11-.29-1.074-.914-1.808-2.28-2.203-4.101-.265-1.227-.398-2.895-.398-5.008zm0 0M76.813 339h-1.981v.672h13.98V339zm0 0" fill-rule="evenodd"/><g><use xlink:href="#H" x="77.611" y="333.99"/></g><g><use xlink:href="#H" x="74.611" y="353.5"/></g><g><use xlink:href="#I" x="82.611" y="353.5"/></g><g><use xlink:href="#S" x="90.39" y="343"/></g><g><use xlink:href="#T" x="96.39" y="338.5"/></g><path d="M105.676 337.066v-.597c0-2.653-.356-4.774-1.067-6.36-.586-1.304-1.46-2.332-2.629-3.086a.18.18 0 00-.07-.023c-.05 0-.078.027-.078.082 0 .125.04.219.113.281 1.07.91 1.805 2.274 2.203 4.098.266 1.23.399 2.902.399 5.008v7.316c0 2.106-.133 3.774-.399 5.008-.398 1.82-1.132 3.187-2.203 4.102-.074.058-.113.152-.113.277 0 .055.027.082.078.082a.18.18 0 00.07-.024c1.168-.753 2.043-1.785 2.63-3.09.71-1.585 1.066-3.702 1.066-6.355zm0 0" fill-rule="evenodd"/><g><use xlink:href="#X" x="108.39" y="343"/><use xlink:href="#Y" x="111.724" y="343"/><use xlink:href="#Z" x="117.05" y="343"/></g><g><use xlink:href="#M" x="123.39" y="343"/></g><g><use xlink:href="#Q" x="127.39" y="343"/></g><g><use xlink:href="#R" x="135.39" y="343"/></g><g><use xlink:href="#S" x="145.39" y="343"/></g><g><use xlink:href="#T" x="151.39" y="338.5"/></g><g><use xlink:href="#U" x="156.39" y="343"/></g><g fill="#ff8000"><use xlink:href="#V" x="43.833" y="377"/></g><g><use xlink:href="#R" x="58.833" y="376"/></g><g><use xlink:href="#S" x="67.833" y="376"/></g><g><use xlink:href="#T" x="73.833" y="371.5"/></g><g><use xlink:href="#J" x="80.833" y="376"/><use xlink:href="#K" x="84.167" y="376"/><use xlink:href="#L" x="90.167" y="376"/></g><g><use xlink:href="#M" x="95.833" y="376"/></g><g><use xlink:href="#S" x="99.833" y="376"/></g><g><use xlink:href="#U" x="105.833" y="376"/></g><g><use xlink:href="#X" x="111.833" y="376"/><use xlink:href="#Y" x="115.167" y="376"/><use xlink:href="#Z" x="120.493" y="376"/></g><g><use xlink:href="#M" x="126.833" y="376"/></g><g><use xlink:href="#Q" x="130.833" y="376"/></g><g><use xlink:href="#R" x="138.833" y="376"/></g><g><use xlink:href="#S" x="148.833" y="376"/></g><g><use xlink:href="#T" x="154.833" y="371.5"/></g><g><use xlink:href="#U" x="159.833" y="376"/></g><g fill="#999"><use xlink:href="#ab" y="401"/><use xlink:href="#ac" x="7.001" y="401"/><use xlink:href="#ad" x="12.007" y="401"/><use xlink:href="#c" x="14.508" y="401"/></g><g fill="#999" fill-opacity=".32"><use xlink:href="#d" x="17.009" y="401"/></g><g fill="#999"><use xlink:href="#e" x="24.076" y="401"/><use xlink:href="#g" x="26.577" y="401"/></g><g><use xlink:href="#ae" x="38.833" y="401"/><use xlink:href="#af" x="45.98" y="401"/><use xlink:href="#ag" x="53.128" y="401"/><use xlink:href="#ah" x="60.275" y="401"/></g></svg>