<svg xmlns="http://www.w3.org/2000/svg" xmlns:xlink="http://www.w3.org/1999/xlink" width="1060" height="184" viewBox="0 0 795 138"><defs><symbol overflow="visible" id="m"><path d="M.82 0v-1.14l1.961-1.965c.364-.368.656-.684.883-.95.219-.265.39-.504.516-.715.117-.21.199-.402.238-.582a2.48 2.48 0 00.059-.55c0-.153-.028-.301-.079-.446a1.082 1.082 0 00-.222-.37 1.083 1.083 0 00-.367-.247 1.47 1.47 0 00-.508-.094 2.053 2.053 0 00-.91.215c-.282.14-.547.332-.79.567l-.82-1.055a4.493 4.493 0 011.215-.8c.45-.204.938-.306 1.465-.306.402 0 .77.055 1.102.157.328.11.609.261.847.46.235.208.418.462.547.762.129.309.195.66.195 1.055 0 .332-.047.64-.136.926-.09.285-.22.562-.387.832a5.728 5.728 0 01-.625.812c-.25.274-.535.559-.848.856L2.953-1.43H6.45V0zm0 0"/></symbol><symbol overflow="visible" id="a"><path d="M.516 0l1.347-6.441h.856L1.375 0zm0 0"/></symbol><symbol overflow="visible" id="c"><path d="M.059 1.762L1.75-6.441h1.77l-.13.609h-.96L.973 1.152h.968l-.125.61zm0 0"/></symbol><symbol overflow="visible" id="e"><path d="M1.23 1.762H-.527l.129-.61H.57l1.461-6.984h-.969l.13-.61H2.96zm0 0"/></symbol><symbol overflow="visible" id="f"><path d="M1.3-3.766l.188-.902h.899l-.184.902zM.517 0l.187-.902h.902L1.41 0zm0 0"/></symbol><symbol overflow="visible" id="g"><path d="M5.063-3.79H.809v-.737h4.253zm0 1.958H.809v-.738h4.253zm0 0"/></symbol><symbol overflow="visible" id="z"><path d="M.82-2.7c0-1.144.332-2.073.996-2.784.664-.711 1.47-1.067 2.414-1.067.805 0 1.457.262 1.965.785.5.524.754 1.227.758 2.102a4.12 4.12 0 01-.383 1.742c-.195.402-.433.75-.722 1.04-.29.292-.602.519-.93.675-.445.21-.91.312-1.398.316a2.82 2.82 0 01-1.41-.367 2.403 2.403 0 01-.962-1.031A3.13 3.13 0 01.82-2.7zm.852.044c-.004.383.074.73.234 1.047.153.316.387.562.7.742.308.18.636.27.98.265.328.004.64-.074.945-.234.297-.152.567-.371.801-.652a3.23 3.23 0 00.559-1.035c.132-.407.203-.809.203-1.207 0-.641-.18-1.153-.54-1.536a1.764 1.764 0 00-1.327-.57c-.676 0-1.27.29-1.782.863-.52.578-.777 1.352-.773 2.317zm0 0"/></symbol><symbol overflow="visible" id="A"><path d="M3.484-.844c-.562.633-1.136.95-1.718.95-.364 0-.653-.102-.871-.31A.996.996 0 01.562-.96c0-.195.047-.531.149-1.012l.562-2.695h.797l-.625 2.984a2.646 2.646 0 00-.078.582.506.506 0 00.16.41c.106.098.262.149.473.145.219.004.438-.05.648-.16.211-.106.395-.25.551-.438.156-.18.281-.398.38-.656.058-.156.132-.441.222-.847l.422-2.02h.797L4.043 0h-.734zm0 0"/></symbol><symbol overflow="visible" id="B"><path d="M2.156-.645l-.129.649c-.191.047-.379.07-.554.074C1.153.074.903 0 .715-.152a.592.592 0 01-.211-.48c0-.102.039-.337.117-.708l.567-2.71h-.63l.13-.618h.625l.242-1.144.91-.551-.356 1.695h.782l-.133.617H1.98l-.539 2.578c-.07.332-.105.528-.101.59-.004.098.023.168.082.215.05.05.14.078.266.074.175.004.332-.015.468-.05zm0 0"/></symbol><symbol overflow="visible" id="C"><path d="M-.457.105L3.008-6.55h.687L.235.105zm0 0"/></symbol><symbol overflow="visible" id="D"><path d="M.395 0l1.347-6.441h1.059l.648 4.175c.082.551.137 1.075.168 1.575.172-.43.473-1.016.895-1.762l2.261-3.988h1.075L6.504 0h-.848l.672-3.133a25.95 25.95 0 01.668-2.433 16.96 16.96 0 01-.684 1.351L3.91 0h-.828l-.648-4.133a11.44 11.44 0 01-.125-1.32 27.344 27.344 0 01-.215 1.344L1.234 0zm0 0"/></symbol><symbol overflow="visible" id="E"><path d="M3.445-.578c-.277.238-.543.41-.797.52-.257.109-.53.163-.816.163-.434 0-.781-.125-1.043-.378C.523-.527.391-.852.395-1.25a1.285 1.285 0 01.175-.691c.118-.196.278-.356.473-.48a2.18 2.18 0 01.723-.263c.175-.035.515-.062 1.015-.086.496-.02.856-.07 1.078-.156.059-.21.09-.394.09-.543a.534.534 0 00-.199-.433c-.188-.145-.457-.215-.809-.22-.336.005-.613.079-.824.224a1.213 1.213 0 00-.46.628l-.805-.07c.16-.46.421-.812.78-1.062.356-.243.806-.368 1.348-.371.575.003 1.032.14 1.372.414.253.207.382.476.386.8-.004.25-.039.536-.11.864l-.26 1.16a3.88 3.88 0 00-.122.902c-.004.149.027.36.098.633h-.805a2.508 2.508 0 01-.094-.578zm.293-1.785c-.11.047-.23.078-.355.101-.133.024-.344.051-.64.075-.466.046-.794.097-.981.156a.848.848 0 00-.43.3.732.732 0 00-.145.458.69.69 0 00.231.55c.152.149.371.22.656.215a1.46 1.46 0 00.758-.207c.242-.14.438-.336.578-.586.14-.25.25-.601.328-1.062zm0 0"/></symbol><symbol overflow="visible" id="F"><path d="M.297 0l.976-4.668h.704l-.196.953c.239-.36.473-.625.703-.797.227-.172.461-.258.707-.261.157.003.352.062.582.171l-.324.739a.846.846 0 00-.453-.149c-.281.004-.566.16-.86.465-.292.313-.523.871-.687 1.676L1.055 0zm0 0"/></symbol><symbol overflow="visible" id="G"><path d="M1.43-5.543l.187-.898h.79l-.188.898zM.27 0l.972-4.668h.797L1.062 0zm0 0"/></symbol><symbol overflow="visible" id="H"><path d="M-.012 0l2.028-2.367L.852-4.668h.878l.395.832c.145.313.277.61.398.89l1.344-1.722h.973l-1.961 2.36L4.055 0h-.88l-.464-.95a10.906 10.906 0 01-.336-.75L.985 0zm0 0"/></symbol><symbol overflow="visible" id="I"><path d="M.41 0l1.344-6.441H5.94l-.152.734H2.461l-.426 2.05h3.387l-.152.735H1.883L1.27 0zm0 0"/></symbol><symbol overflow="visible" id="J"><path d="M.438-1.77c-.004-.91.265-1.664.804-2.265.442-.488 1.02-.735 1.742-.738.559.003 1.012.18 1.36.527.34.355.511.832.515 1.426a3.549 3.549 0 01-.324 1.496c-.219.46-.527.816-.926 1.062-.398.246-.82.367-1.261.367-.368 0-.7-.074-.993-.23a1.573 1.573 0 01-.683-.66 1.914 1.914 0 01-.235-.985zm.796-.082c-.004.442.102.778.317 1.004.207.23.476.344.804.34.168.004.336-.031.504-.101.164-.07.317-.176.465-.317.14-.14.266-.3.367-.48.102-.18.184-.375.247-.586.09-.29.132-.567.136-.832-.004-.422-.11-.746-.32-.98a1.067 1.067 0 00-.8-.352c-.25.004-.481.062-.684.18-.208.12-.391.292-.555.519-.168.227-.29.492-.363.797a2.966 2.966 0 00-.118.808zm0 0"/></symbol><symbol overflow="visible" id="K"><path d="M.293 0l.977-4.668h.796l-.164.77c.293-.329.559-.559.793-.684.235-.125.485-.188.758-.191.29.003.531.082.727.23.191.156.32.371.386.645.235-.29.485-.508.747-.657.261-.14.539-.215.832-.218.386.003.68.097.875.277.195.187.293.445.293.777 0 .145-.036.383-.102.711L6.582 0h-.793l.64-3.086c.051-.246.079-.426.083-.539a.482.482 0 00-.145-.36c-.097-.085-.234-.128-.406-.132a1.508 1.508 0 00-.73.215 1.555 1.555 0 00-.57.566c-.141.234-.259.59-.36 1.074L3.828 0h-.797l.66-3.152c.047-.211.07-.364.07-.457a.51.51 0 00-.144-.368.544.544 0 00-.37-.14 1.46 1.46 0 00-.708.215c-.25.144-.45.347-.605.601-.157.258-.286.621-.383 1.094L1.09 0zm0 0"/></symbol><symbol overflow="visible" id="d"><path d="M5.348-2.547c-.086.25-.211.485-.375.7-.168.218-.36.406-.575.562-.214.164-.445.289-.691.375-.25.094-.5.137-.746.137-.258 0-.477-.043-.664-.133a1.04 1.04 0 01-.434-.371 1.132 1.132 0 01-.183-.563c-.02-.219.015-.453.105-.707.082-.254.207-.488.375-.707a2.742 2.742 0 011.254-.937c.246-.086.496-.133.754-.137.246.004.465.05.652.14.184.094.328.22.438.38.101.16.164.347.187.562.016.219-.015.453-.097.7zm0 0"/></symbol><symbol overflow="visible" id="h"><path d="M4.926 0l-.04-.844a5.052 5.052 0 01-.425.399A2.564 2.564 0 013.39.07c-.211.046-.442.07-.688.074A2.518 2.518 0 011.836 0a1.594 1.594 0 01-.629-.406 1.642 1.642 0 01-.387-.63 2.412 2.412 0 01-.129-.812c0-.3.063-.582.192-.843.129-.254.324-.477.59-.664.261-.184.593-.329.992-.438.394-.102.86-.156 1.394-.16h.844v-.39a1.61 1.61 0 00-.07-.446.944.944 0 00-.227-.34 1.093 1.093 0 00-.402-.215 2.266 2.266 0 00-.61-.078 5.15 5.15 0 00-1.124.133c-.375.09-.73.21-1.075.363v-1.238c.305-.121.66-.223 1.067-.305.402-.078.82-.117 1.261-.12a5.3 5.3 0 011.23.136c.34.094.626.23.849.41.218.188.382.414.492.684.105.273.156.59.16.953V0zm-.223-2.852h-.945a2.85 2.85 0 00-.668.079 1.367 1.367 0 00-.442.21.846.846 0 00-.253.31.797.797 0 00-.079.366c-.003.266.082.469.254.602.168.14.399.207.692.207.215 0 .437-.078.672-.234.23-.157.488-.38.77-.676zm0 0"/></symbol><symbol overflow="visible" id="k"><path d="M.965 0v-1.379h2.113V-6.71l-1.84 1.016L.73-6.957l2.633-1.39h1.301v6.968h1.824V0zm0 0"/></symbol><symbol overflow="visible" id="l"><path d="M1.34 1.227c.25.003.484-.012.707-.047.219-.04.41-.098.574-.18.16-.086.29-.191.387-.316a.796.796 0 00.14-.45.896.896 0 00-.054-.312 1.366 1.366 0 00-.137-.234l-.176-.204a1.763 1.763 0 01-.172-.21.787.787 0 01-.136-.254.845.845 0 01-.055-.348.937.937 0 01.07-.383.888.888 0 01.203-.332.949.949 0 01.325-.234c.129-.059.277-.09.445-.09.203 0 .387.05.555.144.164.098.304.227.421.387.11.164.196.348.258.559.055.21.086.43.09.656A3 3 0 014.57.489a2.549 2.549 0 01-.648.906c-.29.257-.645.46-1.074.613-.43.148-.934.222-1.508.226zm0 0"/></symbol><symbol overflow="visible" id="b"><path d="M.297 0l.976-4.668h.723l-.172.813c.309-.317.602-.547.875-.696.27-.144.551-.219.84-.222.375.003.668.105.887.308.21.207.32.48.324.82-.004.176-.043.45-.113.82L4.043 0h-.797l.621-2.957c.063-.285.094-.496.094-.637a.498.498 0 00-.16-.379c-.11-.093-.266-.14-.465-.144-.41.004-.773.152-1.09.441-.32.297-.55.797-.7 1.504L1.095 0zm0 0"/></symbol><symbol overflow="visible" id="o"><path d="M6.477-2.531c-.004.41-.079.781-.23 1.105-.157.332-.392.61-.704.84-.316.23-.715.406-1.191.527-.48.121-1.043.18-1.688.184C2.52.121 2.367.121 2.211.117L1.738.094c-.16-.012-.312-.028-.457-.04C1.13.036.996.02.883 0v-1.344c.262.055.558.094.894.121.328.036.676.051 1.043.047.344.004.645-.023.903-.086.25-.054.46-.14.629-.258.164-.109.285-.25.367-.414.074-.164.113-.351.117-.562a1.091 1.091 0 00-.121-.492 1.06 1.06 0 00-.367-.38 2.079 2.079 0 00-.633-.241 4.71 4.71 0 00-.91-.086h-.918v-1.18h.843c.329 0 .602-.031.82-.098.22-.062.391-.148.52-.261a.936.936 0 00.278-.391c.054-.148.082-.305.082-.477 0-.335-.114-.593-.332-.77-.223-.171-.563-.257-1.02-.26-.336.003-.66.034-.98.093-.32.066-.653.148-.993.254v-1.3a9.15 9.15 0 01.543-.161c.172-.04.348-.074.52-.106.172-.027.348-.05.527-.066.18-.012.364-.02.555-.02.457 0 .86.051 1.203.149.344.098.633.234.867.414.235.18.41.402.532.66.117.262.175.547.18.86-.005.507-.118.918-.348 1.226-.23.313-.555.547-.97.711.266.043.509.117.727.219.215.105.399.238.555.402.149.164.27.352.356.559.082.215.12.449.125.707zm0 0"/></symbol><symbol overflow="visible" id="p"><path d="M5.617-1.688V0H4.105v-1.688H.246v-1.328l3.238-5.28h2.133v5.241h1.258v1.368zM4.125-6.796l-2.36 3.742h2.36zm0 0"/></symbol><symbol overflow="visible" id="r"><path d="M5.484 0l-.152-4.691-.059-1.872-.398 1.27-.922 2.824h-.976l-.832-2.824-.348-1.27L1.75-4.73 1.613 0H.285l.406-8.297h1.766l.73 2.356.348 1.328.348-1.254.77-2.43h1.796L6.863 0zm0 0"/></symbol><symbol overflow="visible" id="s"><path d="M6.203-.063c-.285.063-.566.11-.848.149-.28.035-.55.055-.804.059A4.208 4.208 0 013.457.012a1.784 1.784 0 01-.762-.407 1.574 1.574 0 01-.445-.695 3.176 3.176 0 01-.14-1.004v-3.148H.374V-6.45h1.734v-1.653l1.586-.41v2.063h2.508v1.207H3.695v3.031c-.004.375.082.652.254.836.168.191.45.285.848.281.254.004.5-.015.742-.062.238-.04.461-.09.664-.145zm0 0"/></symbol><symbol overflow="visible" id="t"><path d="M5.035-3.941A3.626 3.626 0 005-4.56a1.374 1.374 0 00-.152-.418.742.742 0 00-.258-.238.84.84 0 00-.348-.078c-.23.004-.469.098-.71.281-.247.192-.512.5-.802.93V0H1.14v-6.45h1.407l.055.942c.105-.164.222-.312.359-.445.129-.133.277-.246.441-.34.16-.094.34-.164.543-.219.196-.047.414-.074.657-.078.32.004.609.059.867.168.25.113.46.281.633.5.168.223.296.5.382.828.082.336.118.719.106 1.153zm0 0"/></symbol><symbol overflow="visible" id="u"><path d="M4.68-8.215c-.004.14-.032.274-.078.395-.055.125-.125.23-.211.32a.97.97 0 01-.325.219.92.92 0 01-.398.078.915.915 0 01-.402-.078.898.898 0 01-.325-.219.858.858 0 01-.214-.32.89.89 0 01-.075-.395.893.893 0 01.075-.39.94.94 0 01.214-.325.95.95 0 01.325-.218 1.12 1.12 0 01.402-.082 1.032 1.032 0 01.723.3c.086.094.156.203.21.325.047.125.075.253.079.39zM2.965-5.242H1.14V-6.45h3.41v5.242h1.86V0H.92v-1.207h2.044zm0 0"/></symbol><symbol overflow="visible" id="v"><path d="M5.035 0L3.562-2.172 2.083 0H.211l2.418-3.25-2.293-3.2h1.887l1.445 2.122 1.43-2.121h1.738L4.613-3.262 6.957 0zm0 0"/></symbol><symbol overflow="visible" id="w"><path d="M2.754-6.977v2.297H5.89v1.285H2.754V0H1.168v-8.297H6.07v1.32zm0 0"/></symbol><symbol overflow="visible" id="x"><path d="M6.691-3.273c0 .507-.074.972-.218 1.39a3.088 3.088 0 01-.621 1.086 2.73 2.73 0 01-.997.695c-.394.164-.843.243-1.343.247-.485-.004-.91-.07-1.285-.207a2.415 2.415 0 01-.957-.625A2.637 2.637 0 01.664-1.73c-.14-.415-.207-.903-.207-1.458 0-.507.07-.972.219-1.394.14-.418.351-.773.629-1.074.27-.293.601-.524 1-.688.39-.16.836-.242 1.332-.246.48.004.91.074 1.289.215.375.14.695.352.957.633s.46.629.601 1.039c.137.414.207.89.207 1.43zm-1.613.035C5.074-3.906 4.95-4.41 4.7-4.746c-.25-.336-.62-.504-1.113-.504-.273 0-.504.055-.691.16-.192.106-.348.25-.47.434a1.907 1.907 0 00-.269.644c-.058.246-.09.508-.086.785-.004.676.133 1.184.407 1.524.27.34.64.508 1.109.508.258 0 .48-.051.672-.153.191-.101.347-.242.465-.43.117-.179.203-.398.265-.652a3.97 3.97 0 00.09-.808zm0 0"/></symbol><symbol overflow="visible" id="y"><path d="M5.434 0v-4.39a11.706 11.706 0 00-.016-.423 1.899 1.899 0 00-.05-.304.371.371 0 00-.11-.18.345.345 0 00-.2-.062c-.132.004-.261.093-.386.27-.133.179-.274.48-.43.905V0H2.914v-4.39a11.708 11.708 0 00-.016-.423 1.899 1.899 0 00-.05-.304.349.349 0 00-.114-.18.349.349 0 00-.203-.062c-.11.004-.234.093-.367.27-.14.179-.289.48-.45.905V0H.376v-6.45h1.148l.024.942c.094-.191.187-.355.281-.492.094-.133.192-.242.297-.332a1.21 1.21 0 01.34-.188c.12-.035.258-.054.41-.058.355.004.629.098.82.285.188.188.297.45.325.785.101-.191.199-.355.3-.492.094-.133.2-.242.309-.332.11-.082.226-.145.351-.188a1.68 1.68 0 01.415-.058c.468.004.816.168 1.043.492.222.332.335.816.335 1.457V0zm0 0"/></symbol><symbol overflow="visible" id="i"><path d="M6.5-3.512H1.3V-4.64h5.2zm0 2.418H1.3v-1.129h5.2zm0 0"/></symbol><symbol overflow="visible" id="j"><path d="M5.914 2.406C4.141 2.402 3.258 1.758 3.262.47v-2.117c-.004-.442-.38-.665-1.13-.668V-3.41c.75 0 1.126-.219 1.13-.66v-2.117c-.004-1.29.879-1.934 2.652-1.938v1.078c-1.02.004-1.527.277-1.523.82v2.145c-.004.504-.211.91-.621 1.219.41.34.617.75.62 1.226V.508c-.003.543.505.816 1.524.82zm0 0"/></symbol><symbol overflow="visible" id="n"><path d="M5.668-2.316c-.383.003-.664.058-.852.168a.54.54 0 00-.277.5V.469c-.004 1.289-.887 1.933-2.652 1.937V1.328c1.015-.004 1.523-.277 1.523-.82v-2.145c0-.476.207-.886.621-1.226a1.4 1.4 0 01-.468-.54 1.522 1.522 0 01-.153-.679v-2.145c0-.289-.12-.5-.363-.628-.242-.125-.629-.188-1.16-.192v-1.078c.894.004 1.558.164 1.996.48.433.32.652.805.656 1.457v2.118c-.004.23.086.398.274.508.164.101.449.152.855.152zm0 0"/></symbol><symbol overflow="visible" id="q"><path d="M6.45-7.828L2.354 1.14 1.352.69l4.093-8.976zm0 0"/></symbol><symbol overflow="visible" id="R"><path d="M6.5-2.297H4.457v2.102H3.328v-2.102H1.301v-1.137h2.027v-2.09h1.129v2.09H6.5zm0 0"/></symbol><symbol overflow="visible" id="L"><path d="M6.125 8.148h-.418a24.387 24.387 0 01-1.61-5.289C3.77 1.08 3.61-.824 3.614-2.85c-.004-2.087.164-4 .504-5.747a26.832 26.832 0 011.59-5.246h.418c-.64 1.54-1.125 3.235-1.457 5.09-.332 1.86-.496 3.836-.496 5.922 0 2.152.156 4.105.473 5.867.312 1.758.804 3.461 1.48 5.113zm0 0"/></symbol><symbol overflow="visible" id="Q"><path d="M4.184-2.852c0 1.91-.164 3.778-.485 5.614a24.83 24.83 0 01-1.605 5.386h-.418A25.902 25.902 0 003.16 2.875c.305-1.824.461-3.723.465-5.707-.004-2.043-.16-3.973-.469-5.781a25.82 25.82 0 00-1.48-5.23h.418c.68 1.655 1.199 3.378 1.554 5.167.356 1.793.536 3.735.536 5.824zm0 0"/></symbol><symbol overflow="visible" id="S"><path d="M6.5-2.629H4.133v2.367h-.485v-2.367H1.301v-.476h2.347v-2.356h.485v2.356H6.5zm0 0"/></symbol><symbol overflow="visible" id="M"><path d="M6.328 0h-5.21v-1.027H3.25v-6.059L1.262-6.004l-.407-.941 2.641-1.39h.98v7.308h1.852zm0 0"/></symbol><symbol overflow="visible" id="N"><path d="M6.398 0H.934v-.992l2.144-2.133c.348-.344.633-.645.856-.898.218-.254.39-.485.515-.696a2.4 2.4 0 00.246-.593 3.15 3.15 0 00.067-.602 2.23 2.23 0 00-.086-.582 1.4 1.4 0 00-.254-.484 1.23 1.23 0 00-.442-.332 1.75 1.75 0 00-.652-.122 2.08 2.08 0 00-.96.235c-.29.16-.555.363-.794.61l-.61-.731c.31-.325.669-.59 1.083-.79.406-.199.883-.296 1.426-.3.363.004.699.058 1.004.164.304.113.566.27.785.476.218.211.386.465.511.762.118.301.18.64.18 1.016 0 .32-.043.613-.129.883a3.456 3.456 0 01-.383.808c-.171.27-.386.551-.644.836-.262.29-.57.602-.926.945L2.367-1.055h4.031zm0 0"/></symbol><symbol overflow="visible" id="O"><path d="M6.238-2.52c-.004.368-.078.711-.222 1.028-.149.32-.371.597-.664.836-.301.242-.672.433-1.118.566-.449.137-.972.2-1.57.203a14.342 14.342 0 01-.887-.031C1.512.059 1.266.032 1.04 0v-.992c.258.05.535.086.832.11.29.027.59.038.895.038.414 0 .77-.035 1.066-.11.293-.073.531-.179.719-.32.183-.136.32-.308.406-.507.086-.2.129-.422.129-.676 0-.227-.05-.426-.152-.598a1.345 1.345 0 00-.43-.422 2.476 2.476 0 00-.66-.257 4.049 4.049 0 00-.84-.086h-.95v-.91h.962c.246.003.472-.032.68-.098.202-.063.378-.156.527-.281.144-.121.257-.27.34-.454a1.65 1.65 0 00.117-.613c-.004-.445-.14-.77-.407-.972-.273-.204-.671-.305-1.195-.305-.281 0-.566.027-.863.082-.297.055-.617.14-.953.25v-.965c.14-.05.297-.094.46-.137a6.843 6.843 0 01.973-.164c.16-.011.313-.02.465-.023.438.004.824.05 1.16.144.332.098.614.235.84.407.223.18.39.394.508.648.11.258.168.543.172.856-.004.476-.125.875-.367 1.195a2.46 2.46 0 01-.996.77c.21.035.421.1.632.199.211.105.399.234.567.39a1.744 1.744 0 01.563 1.281zm0 0"/></symbol><symbol overflow="visible" id="P"><path d="M6.813-1.836H5.394V0h-1.13v-1.836H.274v-.969L3.81-8.297h1.586v5.492h1.418zM4.265-7.23L1.379-2.805h2.887zm0 0"/></symbol></defs><path d="M795.336 0l5 5" fill="none" stroke-linecap="square" stroke="#b2b2b2" stroke-miterlimit="10"/><g fill="#999"><use xlink:href="#a" x="55.001" y="12"/><use xlink:href="#b" x="57.502" y="12"/><use xlink:href="#c" x="62.508" y="12"/></g><use xlink:href="#d" x="65.009" y="12" fill="#999" fill-opacity=".32"/><g fill="#999"><use xlink:href="#e" x="72.076" y="12"/><use xlink:href="#f" x="74.577" y="12"/><use xlink:href="#g" x="77.078" y="12"/></g><use xlink:href="#h" x="89.334" y="12"/><use xlink:href="#i" x="100.334" y="12"/><use xlink:href="#j" x="112.334" y="12"/><use xlink:href="#j" x="120.334" y="12"/><use xlink:href="#k" x="128.334" y="12"/><use xlink:href="#l" x="135.334" y="12"/><use xlink:href="#m" x="146.334" y="12"/><use xlink:href="#n" x="153.334" y="12"/><use xlink:href="#l" x="161.334" y="12"/><use xlink:href="#j" x="172.334" y="12"/><use xlink:href="#o" x="180.334" y="12"/><use xlink:href="#l" x="187.334" y="12"/><use xlink:href="#p" x="198.334" y="12"/><use xlink:href="#n" x="205.334" y="12"/><use xlink:href="#n" x="213.334" y="12"/><use xlink:href="#q" x="225.334" y="12"/><use xlink:href="#q" x="233.136" y="12"/><use xlink:href="#r" x="245.334" y="12"/><use xlink:href="#h" x="252.481" y="12"/><use xlink:href="#s" x="259.629" y="12"/><use xlink:href="#t" x="266.776" y="12"/><use xlink:href="#u" x="273.924" y="12"/><use xlink:href="#v" x="281.071" y="12"/><use xlink:href="#w" x="288.219" y="12"/><use xlink:href="#x" x="295.366" y="12"/><use xlink:href="#t" x="302.514" y="12"/><use xlink:href="#y" x="309.661" y="12"/><path d="M795.336 25l5 5" fill="none" stroke-linecap="square" stroke="#b2b2b2" stroke-miterlimit="10"/><g fill="#999"><use xlink:href="#z" x="35.334" y="34"/><use xlink:href="#A" x="42.335" y="34"/><use xlink:href="#B" x="47.341" y="34"/><use xlink:href="#c" x="49.842" y="34"/></g><use xlink:href="#d" x="52.343" y="34" fill="#999" fill-opacity=".32"/><g fill="#999"><use xlink:href="#e" x="59.41" y="34"/><use xlink:href="#C" x="61.911" y="34"/><use xlink:href="#C" x="64.412" y="34"/><use xlink:href="#D" x="66.913" y="34"/><use xlink:href="#E" x="74.41" y="34"/><use xlink:href="#B" x="79.416" y="34"/><use xlink:href="#F" x="81.917" y="34"/><use xlink:href="#G" x="84.914" y="34"/><use xlink:href="#H" x="86.914" y="34"/><use xlink:href="#I" x="91.414" y="34"/><use xlink:href="#J" x="96.912" y="34"/><use xlink:href="#F" x="101.918" y="34"/><use xlink:href="#K" x="104.915" y="34"/><use xlink:href="#g" x="112.412" y="34"/></g><use xlink:href="#L" x="89.334" y="55"/><use xlink:href="#M" x="100.334" y="48"/><use xlink:href="#N" x="116.334" y="48"/><use xlink:href="#O" x="100.334" y="63"/><use xlink:href="#P" x="116.334" y="63"/><use xlink:href="#Q" x="126.334" y="55"/><path d="M795.336 86l5 5" fill="none" stroke-linecap="square" stroke="#b2b2b2" stroke-miterlimit="10"/><g fill="#999"><use xlink:href="#a" x="55.001" y="98"/><use xlink:href="#b" x="57.502" y="98"/><use xlink:href="#c" x="62.508" y="98"/></g><use xlink:href="#d" x="65.009" y="98" fill="#999" fill-opacity=".32"/><g fill="#999"><use xlink:href="#e" x="72.076" y="98"/><use xlink:href="#f" x="74.577" y="98"/><use xlink:href="#g" x="77.078" y="98"/></g><use xlink:href="#h" x="89.334" y="98"/><use xlink:href="#R" x="99.334" y="98"/><use xlink:href="#k" x="110.334" y="98"/><path d="M795.336 111l5 5" fill="none" stroke-linecap="square" stroke="#b2b2b2" stroke-miterlimit="10"/><g fill="#999"><use xlink:href="#z" x="50.501" y="127"/><use xlink:href="#A" x="57.502" y="127"/><use xlink:href="#B" x="62.508" y="127"/><use xlink:href="#c" x="65.009" y="127"/></g><g fill="#999" fill-opacity=".32"><use xlink:href="#d" x="67.51" y="127"/></g><g fill="#999"><use xlink:href="#e" x="74.577" y="127"/><use xlink:href="#g" x="77.078" y="127"/></g><g><use xlink:href="#M" x="89.334" y="127"/></g><g><use xlink:href="#S" x="99.334" y="127"/></g><g><use xlink:href="#L" x="110.334" y="127"/></g><g><use xlink:href="#M" x="121.334" y="120"/></g><g><use xlink:href="#N" x="137.334" y="120"/></g><g><use xlink:href="#O" x="121.334" y="135"/></g><g><use xlink:href="#P" x="137.334" y="135"/></g><g><use xlink:href="#Q" x="147.334" y="127"/></g></svg>