<svg xmlns="http://www.w3.org/2000/svg" xmlns:xlink="http://www.w3.org/1999/xlink" width="1060" height="193pt" viewBox="0 0 795 193"><defs><symbol overflow="visible" id="O"><path d="M4.488 0H2.703L.145-6.45H1.87l1.34 3.657.402 1.18.39-1.13L5.36-6.448h1.66zm0 0"/></symbol><symbol overflow="visible" id="a"><path d="M.516 0l1.347-6.441h.856L1.375 0zm0 0"/></symbol><symbol overflow="visible" id="c"><path d="M.059 1.762L1.75-6.441h1.77l-.13.609h-.96L.973 1.152h.968l-.125.61zm0 0"/></symbol><symbol overflow="visible" id="e"><path d="M1.23 1.762H-.527l.129-.61H.57l1.461-6.984h-.969l.13-.61H2.96zm0 0"/></symbol><symbol overflow="visible" id="f"><path d="M1.3-3.766l.188-.902h.899l-.184.902zM.517 0l.187-.902h.902L1.41 0zm0 0"/></symbol><symbol overflow="visible" id="g"><path d="M5.063-3.79H.809v-.737h4.253zm0 1.958H.809v-.738h4.253zm0 0"/></symbol><symbol overflow="visible" id="ag"><path d="M.82-2.7c0-1.144.332-2.073.996-2.784.664-.711 1.47-1.067 2.414-1.067.805 0 1.457.262 1.965.785.5.524.754 1.227.758 2.102a4.12 4.12 0 01-.383 1.742c-.195.402-.433.75-.722 1.04-.29.292-.602.519-.93.675-.445.21-.91.312-1.398.316a2.82 2.82 0 01-1.41-.367 2.403 2.403 0 01-.962-1.031A3.13 3.13 0 01.82-2.7zm.852.044c-.004.383.074.73.234 1.047.153.316.387.562.7.742.308.18.636.27.98.265.328.004.64-.074.945-.234.297-.152.567-.371.801-.652a3.23 3.23 0 00.559-1.035c.132-.407.203-.809.203-1.207 0-.641-.18-1.153-.54-1.536a1.764 1.764 0 00-1.327-.57c-.676 0-1.27.29-1.782.863-.52.578-.777 1.352-.773 2.317zm0 0"/></symbol><symbol overflow="visible" id="ah"><path d="M3.484-.844c-.562.633-1.136.95-1.718.95-.364 0-.653-.102-.871-.31A.996.996 0 01.562-.96c0-.195.047-.531.149-1.012l.562-2.695h.797l-.625 2.984a2.646 2.646 0 00-.078.582.506.506 0 00.16.41c.106.098.262.149.473.145.219.004.438-.05.648-.16.211-.106.395-.25.551-.438.156-.18.281-.398.38-.656.058-.156.132-.441.222-.847l.422-2.02h.797L4.043 0h-.734zm0 0"/></symbol><symbol overflow="visible" id="ai"><path d="M2.156-.645l-.129.649c-.191.047-.379.07-.554.074C1.153.074.903 0 .715-.152a.592.592 0 01-.211-.48c0-.102.039-.337.117-.708l.567-2.71h-.63l.13-.618h.625l.242-1.144.91-.551-.356 1.695h.782l-.133.617H1.98l-.539 2.578c-.07.332-.105.528-.101.59-.004.098.023.168.082.215.05.05.14.078.266.074.175.004.332-.015.468-.05zm0 0"/></symbol><symbol overflow="visible" id="aj"><path d="M-.457.105L3.008-6.55h.687L.235.105zm0 0"/></symbol><symbol overflow="visible" id="ak"><path d="M.395 0l1.347-6.441h1.059l.648 4.175c.082.551.137 1.075.168 1.575.172-.43.473-1.016.895-1.762l2.261-3.988h1.075L6.504 0h-.848l.672-3.133a25.95 25.95 0 01.668-2.433 16.96 16.96 0 01-.684 1.351L3.91 0h-.828l-.648-4.133a11.44 11.44 0 01-.125-1.32 27.344 27.344 0 01-.215 1.344L1.234 0zm0 0"/></symbol><symbol overflow="visible" id="al"><path d="M3.445-.578c-.277.238-.543.41-.797.52-.257.109-.53.163-.816.163-.434 0-.781-.125-1.043-.378C.523-.527.391-.852.395-1.25a1.285 1.285 0 01.175-.691c.118-.196.278-.356.473-.48a2.18 2.18 0 01.723-.263c.175-.035.515-.062 1.015-.086.496-.02.856-.07 1.078-.156.059-.21.09-.394.09-.543a.534.534 0 00-.199-.433c-.188-.145-.457-.215-.809-.22-.336.005-.613.079-.824.224a1.213 1.213 0 00-.46.628l-.805-.07c.16-.46.421-.812.78-1.062.356-.243.806-.368 1.348-.371.575.003 1.032.14 1.372.414.253.207.382.476.386.8-.004.25-.039.536-.11.864l-.26 1.16a3.88 3.88 0 00-.122.902c-.004.149.027.36.098.633h-.805a2.508 2.508 0 01-.094-.578zm.293-1.785c-.11.047-.23.078-.355.101-.133.024-.344.051-.64.075-.466.046-.794.097-.981.156a.848.848 0 00-.43.3.732.732 0 00-.145.458.69.69 0 00.231.55c.152.149.371.22.656.215a1.46 1.46 0 00.758-.207c.242-.14.438-.336.578-.586.14-.25.25-.601.328-1.062zm0 0"/></symbol><symbol overflow="visible" id="am"><path d="M.297 0l.976-4.668h.704l-.196.953c.239-.36.473-.625.703-.797.227-.172.461-.258.707-.261.157.003.352.062.582.171l-.324.739a.846.846 0 00-.453-.149c-.281.004-.566.16-.86.465-.292.313-.523.871-.687 1.676L1.055 0zm0 0"/></symbol><symbol overflow="visible" id="an"><path d="M1.43-5.543l.187-.898h.79l-.188.898zM.27 0l.972-4.668h.797L1.062 0zm0 0"/></symbol><symbol overflow="visible" id="ao"><path d="M-.012 0l2.028-2.367L.852-4.668h.878l.395.832c.145.313.277.61.398.89l1.344-1.722h.973l-1.961 2.36L4.055 0h-.88l-.464-.95a10.906 10.906 0 01-.336-.75L.985 0zm0 0"/></symbol><symbol overflow="visible" id="ap"><path d="M.41 0l1.344-6.441H5.94l-.152.734H2.461l-.426 2.05h3.387l-.152.735H1.883L1.27 0zm0 0"/></symbol><symbol overflow="visible" id="aq"><path d="M.438-1.77c-.004-.91.265-1.664.804-2.265.442-.488 1.02-.735 1.742-.738.559.003 1.012.18 1.36.527.34.355.511.832.515 1.426a3.549 3.549 0 01-.324 1.496c-.219.46-.527.816-.926 1.062-.398.246-.82.367-1.261.367-.368 0-.7-.074-.993-.23a1.573 1.573 0 01-.683-.66 1.914 1.914 0 01-.235-.985zm.796-.082c-.004.442.102.778.317 1.004.207.23.476.344.804.34.168.004.336-.031.504-.101.164-.07.317-.176.465-.317.14-.14.266-.3.367-.48.102-.18.184-.375.247-.586.09-.29.132-.567.136-.832-.004-.422-.11-.746-.32-.98a1.067 1.067 0 00-.8-.352c-.25.004-.481.062-.684.18-.208.12-.391.292-.555.519-.168.227-.29.492-.363.797a2.966 2.966 0 00-.118.808zm0 0"/></symbol><symbol overflow="visible" id="ar"><path d="M.293 0l.977-4.668h.796l-.164.77c.293-.329.559-.559.793-.684.235-.125.485-.188.758-.191.29.003.531.082.727.23.191.156.32.371.386.645.235-.29.485-.508.747-.657.261-.14.539-.215.832-.218.386.003.68.097.875.277.195.187.293.445.293.777 0 .145-.036.383-.102.711L6.582 0h-.793l.64-3.086c.051-.246.079-.426.083-.539a.482.482 0 00-.145-.36c-.097-.085-.234-.128-.406-.132a1.508 1.508 0 00-.73.215 1.555 1.555 0 00-.57.566c-.141.234-.259.59-.36 1.074L3.828 0h-.797l.66-3.152c.047-.211.07-.364.07-.457a.51.51 0 00-.144-.368.544.544 0 00-.37-.14 1.46 1.46 0 00-.708.215c-.25.144-.45.347-.605.601-.157.258-.286.621-.383 1.094L1.09 0zm0 0"/></symbol><symbol overflow="visible" id="d"><path d="M5.348-2.547c-.086.25-.211.485-.375.7-.168.218-.36.406-.575.562-.214.164-.445.289-.691.375-.25.094-.5.137-.746.137-.258 0-.477-.043-.664-.133a1.04 1.04 0 01-.434-.371 1.132 1.132 0 01-.183-.563c-.02-.219.015-.453.105-.707.082-.254.207-.488.375-.707a2.742 2.742 0 011.254-.937c.246-.086.496-.133.754-.137.246.004.465.05.652.14.184.094.328.22.438.38.101.16.164.347.187.562.016.219-.015.453-.097.7zm0 0"/></symbol><symbol overflow="visible" id="h"><path d="M3.613-3.512v-1.285h2.95v4.422c-.383.18-.782.309-1.192.39a7.316 7.316 0 01-1.351.13C3.44.14 2.922.055 2.465-.121a3.016 3.016 0 01-1.172-.793 3.449 3.449 0 01-.738-1.309C.379-2.738.293-3.343.297-4.03c-.004-.688.086-1.305.27-1.852a3.684 3.684 0 01.785-1.387 3.345 3.345 0 011.27-.867c.5-.199 1.073-.3 1.722-.3.375 0 .746.035 1.113.101.36.066.723.152 1.082.262v1.543A6.11 6.11 0 005.5-6.895a4.966 4.966 0 00-1.145-.144c-.394.004-.738.07-1.035.203-.3.137-.55.328-.746.578a2.52 2.52 0 00-.457.922c-.11.363-.16.774-.156 1.23-.004.442.035.84.121 1.192.078.355.211.652.39.898.18.25.41.442.696.57.281.133.625.2 1.035.196.094.004.18 0 .25-.008.07-.004.137-.015.203-.031.063-.012.125-.024.184-.043a3.13 3.13 0 00.18-.059v-2.12zm0 0"/></symbol><symbol overflow="visible" id="i"><path d="M6.5-3.719l-.012.41c-.008.172-.015.332-.027.477H2.223c-.004.289.039.539.129.75.082.219.207.398.367.543.156.148.344.258.57.332.219.078.469.117.742.113.313.004.645-.02 1.004-.07a7.45 7.45 0 001.117-.238v1.23c-.168.05-.351.094-.543.129-.195.04-.39.066-.593.098-.204.027-.41.05-.618.066-.21.012-.41.02-.601.024a4.096 4.096 0 01-1.324-.207 2.481 2.481 0 01-.989-.622 2.576 2.576 0 01-.62-1.011C.713-2.094.643-2.56.647-3.09a4.282 4.282 0 01.215-1.433c.14-.43.344-.797.61-1.102.257-.305.578-.54.953-.71.375-.165.793-.25 1.254-.255.457.004.86.074 1.215.215.347.14.644.34.882.594.235.254.414.554.54.906.12.352.18.738.183 1.156zM4.926-3.94a1.907 1.907 0 00-.094-.664 1.427 1.427 0 00-.277-.465 1.166 1.166 0 00-.407-.274 1.512 1.512 0 00-.5-.09c-.39.004-.71.133-.957.391-.253.262-.402.629-.445 1.102zm0 0"/></symbol><symbol overflow="visible" id="j"><path d="M4.73 0v-4.203c-.003-.703-.265-1.059-.789-1.059-.265 0-.515.106-.753.317-.239.21-.493.5-.758.863V0H.883v-6.45h1.34l.035.954c.129-.164.265-.313.41-.453.14-.133.297-.25.46-.344.165-.094.34-.164.532-.219.192-.047.406-.074.645-.078.324.004.61.059.86.164.241.11.448.262.616.457.164.2.29.438.371.711.082.281.121.59.125.93V0zm0 0"/></symbol><symbol overflow="visible" id="k"><path d="M5.035-3.941A3.626 3.626 0 005-4.56a1.374 1.374 0 00-.152-.418.742.742 0 00-.258-.238.84.84 0 00-.348-.078c-.23.004-.469.098-.71.281-.247.192-.512.5-.802.93V0H1.14v-6.45h1.407l.055.942c.105-.164.222-.312.359-.445.129-.133.277-.246.441-.34.16-.094.34-.164.543-.219.196-.047.414-.074.657-.078.32.004.609.059.867.168.25.113.46.281.633.5.168.223.296.5.382.828.082.336.118.719.106 1.153zm0 0"/></symbol><symbol overflow="visible" id="l"><path d="M4.926 0l-.04-.844a5.052 5.052 0 01-.425.399A2.564 2.564 0 013.39.07c-.211.046-.442.07-.688.074A2.518 2.518 0 011.836 0a1.594 1.594 0 01-.629-.406 1.642 1.642 0 01-.387-.63 2.412 2.412 0 01-.129-.812c0-.3.063-.582.192-.843.129-.254.324-.477.59-.664.261-.184.593-.329.992-.438.394-.102.86-.156 1.394-.16h.844v-.39a1.61 1.61 0 00-.07-.446.944.944 0 00-.227-.34 1.093 1.093 0 00-.402-.215 2.266 2.266 0 00-.61-.078 5.15 5.15 0 00-1.124.133c-.375.09-.73.21-1.075.363v-1.238c.305-.121.66-.223 1.067-.305.402-.078.82-.117 1.261-.12a5.3 5.3 0 011.23.136c.34.094.626.23.849.41.218.188.382.414.492.684.105.273.156.59.16.953V0zm-.223-2.852h-.945a2.85 2.85 0 00-.668.079 1.367 1.367 0 00-.442.21.846.846 0 00-.253.31.797.797 0 00-.079.366c-.003.266.082.469.254.602.168.14.399.207.692.207.215 0 .437-.078.672-.234.23-.157.488-.38.77-.676zm0 0"/></symbol><symbol overflow="visible" id="m"><path d="M2.965-7.762H1.14v-1.207h3.41v7.762h1.86V0H.92v-1.207h2.044zm0 0"/></symbol><symbol overflow="visible" id="n"><path d="M6.594-3.055c-.004.535-.074 1-.211 1.399a2.65 2.65 0 01-.61.996c-.27.27-.59.469-.968.601-.383.133-.813.2-1.282.204-.539-.004-.996-.07-1.37-.204C1.77-.19 1.46-.383 1.226-.64a2.114 2.114 0 01-.516-.925c-.11-.36-.16-.77-.16-1.227v-5.504h1.562v5.41c-.004.282.02.528.07.742.047.22.133.403.255.551.12.149.273.262.457.34.18.078.406.117.683.113.258.004.477-.027.656-.097a.973.973 0 00.442-.32 1.49 1.49 0 00.27-.56c.058-.226.085-.507.09-.835v-5.344h1.558zm0 0"/></symbol><symbol overflow="visible" id="o"><path d="M6.203-.063c-.285.063-.566.11-.848.149-.28.035-.55.055-.804.059A4.208 4.208 0 013.457.012a1.784 1.784 0 01-.762-.407 1.574 1.574 0 01-.445-.695 3.176 3.176 0 01-.14-1.004v-3.148H.374V-6.45h1.734v-1.653l1.586-.41v2.063h2.508v1.207H3.695v3.031c-.004.375.082.652.254.836.168.191.45.285.848.281.254.004.5-.015.742-.062.238-.04.461-.09.664-.145zm0 0"/></symbol><symbol overflow="visible" id="p"><path d="M4.68-8.215c-.004.14-.032.274-.078.395-.055.125-.125.23-.211.32a.97.97 0 01-.325.219.92.92 0 01-.398.078.915.915 0 01-.402-.078.898.898 0 01-.325-.219.858.858 0 01-.214-.32.89.89 0 01-.075-.395.893.893 0 01.075-.39.94.94 0 01.214-.325.95.95 0 01.325-.218 1.12 1.12 0 01.402-.082 1.032 1.032 0 01.723.3c.086.094.156.203.21.325.047.125.075.253.079.39zM2.965-5.242H1.14V-6.45h3.41v5.242h1.86V0H.92v-1.207h2.044zm0 0"/></symbol><symbol overflow="visible" id="q"><path d="M6.203-1.898c-.004.37-.086.687-.246.945a1.969 1.969 0 01-.648.633c-.27.164-.575.277-.914.351a5.5 5.5 0 01-1.043.114A13.554 13.554 0 012.07.078 8.569 8.569 0 01.992-.113v-1.399c.39.168.79.29 1.188.364.394.074.765.113 1.12.109.403.004.708-.063.91-.195.2-.13.302-.297.302-.504a.592.592 0 00-.063-.266.793.793 0 00-.238-.23 3.332 3.332 0 00-.492-.23 20.996 20.996 0 00-.832-.266 4.66 4.66 0 01-.832-.301 1.991 1.991 0 01-.594-.395 1.376 1.376 0 01-.352-.531 1.766 1.766 0 01-.117-.707 1.54 1.54 0 01.176-.742c.113-.23.289-.434.527-.614.235-.171.532-.312.883-.418a4.77 4.77 0 011.23-.152 9.49 9.49 0 011.079.067c.312.046.59.09.832.136v1.266a6.983 6.983 0 00-1.04-.25 7.338 7.338 0 00-.96-.074c-.32.004-.574.058-.766.172-.195.117-.293.277-.289.476a.467.467 0 00.059.258c.035.078.109.152.226.223.11.074.266.148.469.226.195.078.46.164.797.254.367.11.68.223.937.344.25.12.457.258.614.41.156.152.265.328.336.52.062.195.097.414.101.664zm0 0"/></symbol><symbol overflow="visible" id="r"><path d="M2.68-8.969l1.664 1.664H2.793L.586-8.969zm0 0"/></symbol><symbol overflow="visible" id="s"><path d="M.82 0v-8.297h2.676c.942 0 1.649.168 2.125.496.469.336.707.832.707 1.496 0 .211-.027.414-.074.61-.05.195-.125.379-.223.543-.105.168-.23.312-.383.437a1.638 1.638 0 01-.539.297c.207.035.403.102.594.2.184.1.348.23.492.386.14.16.254.348.34.562.078.22.121.461.125.723-.004.848-.289 1.485-.851 1.91C5.239-.21 4.422 0 3.352 0zm3.883-6.031a1.327 1.327 0 00-.078-.422.854.854 0 00-.242-.324 1.18 1.18 0 00-.434-.207 2.69 2.69 0 00-.636-.075h-.946v2.196h.946c.25 0 .464-.028.644-.09a1.19 1.19 0 00.434-.254.919.919 0 00.238-.371c.047-.14.07-.29.074-.453zM3.461-1.277c.246 0 .465-.032.656-.094.184-.063.34-.149.473-.262.125-.113.223-.246.289-.398.062-.149.094-.313.098-.489-.004-.359-.137-.64-.403-.843-.27-.203-.68-.305-1.234-.305h-.973v2.39zm0 0"/></symbol><symbol overflow="visible" id="t"><path d="M6.691-3.273c0 .507-.074.972-.218 1.39a3.088 3.088 0 01-.621 1.086 2.73 2.73 0 01-.997.695c-.394.164-.843.243-1.343.247-.485-.004-.91-.07-1.285-.207a2.415 2.415 0 01-.957-.625A2.637 2.637 0 01.664-1.73c-.14-.415-.207-.903-.207-1.458 0-.507.07-.972.219-1.394.14-.418.351-.773.629-1.074.27-.293.601-.524 1-.688.39-.16.836-.242 1.332-.246.48.004.91.074 1.289.215.375.14.695.352.957.633s.46.629.601 1.039c.137.414.207.89.207 1.43zm-1.613.035C5.074-3.906 4.95-4.41 4.7-4.746c-.25-.336-.62-.504-1.113-.504-.273 0-.504.055-.691.16-.192.106-.348.25-.47.434a1.907 1.907 0 00-.269.644c-.058.246-.09.508-.086.785-.004.676.133 1.184.407 1.524.27.34.64.508 1.109.508.258 0 .48-.051.672-.153.191-.101.347-.242.465-.43.117-.179.203-.398.265-.652a3.97 3.97 0 00.09-.808zm0 0"/></symbol><symbol overflow="visible" id="u"><path d="M6.102-.246a4.527 4.527 0 01-.95.27 6.186 6.186 0 01-1.02.09 4.41 4.41 0 01-1.378-.208 2.758 2.758 0 01-1.035-.62 2.627 2.627 0 01-.649-1.024C.918-2.141.844-2.61.844-3.148c0-.512.078-.98.242-1.403a2.979 2.979 0 011.762-1.758 3.84 3.84 0 011.394-.242c.414 0 .766.024 1.055.067.285.046.543.101.773.168v1.503a4.215 4.215 0 00-1.727-.41c-.292.004-.55.051-.777.145-.23.098-.421.234-.578.406-.156.18-.277.39-.36.633-.081.25-.12.52-.12.812 0 .313.043.59.133.836.086.246.21.457.375.625.16.172.355.301.59.391.226.094.48.14.761.137.133.004.278-.008.426-.028a5.056 5.056 0 001.309-.359zm0 0"/></symbol><symbol overflow="visible" id="v"><path d="M4.875 0L2.496-3.227V0H.946v-8.969h1.55v5.25l2.254-2.73h1.934L4.07-3.512 6.898 0zm0 0"/></symbol><symbol overflow="visible" id="w"><path d="M6.613-5.656a3.375 3.375 0 01-.215 1.199c-.144.367-.359.684-.64.95-.285.269-.64.476-1.063.62-.425.153-.914.227-1.468.223H2.43V0H.855v-8.297H3.29c.531 0 1.008.059 1.422.176.414.117.762.289 1.043.512.281.226.492.504.64.828.141.332.215.707.22 1.125zm-1.636.11a1.85 1.85 0 00-.106-.602 1.334 1.334 0 00-.316-.457 1.53 1.53 0 00-.535-.293A2.963 2.963 0 003.25-7h-.82v3.04h.87c.266 0 .505-.036.716-.11a1.351 1.351 0 00.848-.824c.074-.192.109-.41.113-.653zm0 0"/></symbol><symbol overflow="visible" id="x"><path d="M4.938 0l-.04-.953c-.136.168-.277.32-.418.453a2.29 2.29 0 01-.992.566 2.82 2.82 0 01-.625.079 2.274 2.274 0 01-1.015-.227 1.994 1.994 0 01-.746-.652A2.938 2.938 0 01.64-1.758a4.95 4.95 0 01-.157-1.347c-.004-.59.079-1.102.25-1.536a2.93 2.93 0 01.692-1.082 2.723 2.723 0 011.054-.632 4.117 4.117 0 012.25-.094v-2.52h1.547V0zM2.108-3.172c0 .36.024.66.07.91.048.25.118.457.216.617a.88.88 0 00.832.465c.257.004.507-.101.746-.316.234-.211.484-.504.757-.871v-2.82a2.998 2.998 0 00-.457-.114 3.664 3.664 0 00-.539-.043c-.254 0-.476.051-.675.153-.2.101-.372.246-.512.433a1.895 1.895 0 00-.324.68 3.27 3.27 0 00-.114.906zm0 0"/></symbol><symbol overflow="visible" id="A"><path d="M6.477-2.508c-.004.453-.086.848-.254 1.184a2.224 2.224 0 01-.703.828c-.301.219-.66.379-1.07.484a5.955 5.955 0 01-1.36.157A11.89 11.89 0 011.828.066a7.204 7.204 0 01-1.207-.25v-1.543c.195.07.399.133.61.192.21.062.421.117.636.156.215.047.43.082.64.106.212.027.415.039.618.035.29.004.54-.024.75-.075.203-.05.375-.12.508-.21a.796.796 0 00.289-.317c.055-.12.086-.254.09-.406a.82.82 0 00-.176-.512 1.758 1.758 0 00-.461-.363c-.191-.106-.41-.2-.652-.285a15.667 15.667 0 01-.743-.274c-.25-.097-.5-.207-.742-.332a2.488 2.488 0 01-.648-.457 2.057 2.057 0 01-.461-.648c-.117-.25-.176-.555-.176-.914 0-.32.059-.63.176-.926.117-.29.3-.543.558-.762.25-.215.579-.39.981-.523.394-.13.875-.195 1.441-.195.16 0 .332.007.516.023a10.584 10.584 0 011.043.14c.16.032.309.067.45.098v1.43c-.141-.047-.29-.094-.446-.14-.164-.04-.328-.079-.5-.11a7.916 7.916 0 00-.52-.074 7.78 7.78 0 00-.492-.028 3.421 3.421 0 00-.7.067c-.19.047-.347.11-.468.187a.668.668 0 00-.265.29.761.761 0 00-.082.378.606.606 0 00.171.45c.118.124.27.234.465.335.188.102.406.196.653.278.242.09.492.183.75.281.253.102.503.215.746.34.242.129.46.281.656.46.191.184.344.4.465.645.113.25.172.543.176.88zm0 0"/></symbol><symbol overflow="visible" id="C"><path d="M1.34 1.227c.25.003.484-.012.707-.047.219-.04.41-.098.574-.18.16-.086.29-.191.387-.316a.796.796 0 00.14-.45.896.896 0 00-.054-.312 1.366 1.366 0 00-.137-.234l-.176-.204a1.763 1.763 0 01-.172-.21.787.787 0 01-.136-.254.845.845 0 01-.055-.348.937.937 0 01.07-.383.888.888 0 01.203-.332.949.949 0 01.325-.234c.129-.059.277-.09.445-.09.203 0 .387.05.555.144.164.098.304.227.421.387.11.164.196.348.258.559.055.21.086.43.09.656A3 3 0 014.57.489a2.549 2.549 0 01-.648.906c-.29.257-.645.46-1.074.613-.43.148-.934.222-1.508.226zm0 0"/></symbol><symbol overflow="visible" id="M"><path d="M3.574-6.512c.16.004.309.032.45.09.136.059.257.14.363.242.097.106.176.227.238.367.055.141.086.29.09.442a1.3 1.3 0 01-.09.453c-.063.14-.14.258-.238.36a1.207 1.207 0 01-.364.242c-.14.062-.289.093-.449.09a.994.994 0 01-.449-.09 1.1 1.1 0 01-.36-.243 1.052 1.052 0 01-.245-.359 1.022 1.022 0 01-.09-.453c-.004-.152.027-.3.09-.441a1.124 1.124 0 01.605-.61 1.18 1.18 0 01.45-.09zm0 4.371c.16.004.309.032.45.09.136.063.257.145.363.242.097.106.176.227.238.364.055.14.086.289.09.441a1.318 1.318 0 01-.09.453c-.063.14-.14.262-.238.364a1.138 1.138 0 01-.813.332 1.26 1.26 0 01-.449-.09 1.043 1.043 0 01-.36-.242 1.068 1.068 0 01-.245-.364 1.033 1.033 0 01-.09-.453 1.15 1.15 0 01.695-1.047 1.18 1.18 0 01.45-.09zm0 0"/></symbol><symbol overflow="visible" id="N"><path d="M5.395 0l-.457-1.637H2.042L1.574 0H.024L2.48-8.297h2.184L7.121 0zM3.512-6.773L2.418-2.914H4.59zm0 0"/></symbol><symbol overflow="visible" id="b"><path d="M.297 0l.976-4.668h.723l-.172.813c.309-.317.602-.547.875-.696.27-.144.551-.219.84-.222.375.003.668.105.887.308.21.207.32.48.324.82-.004.176-.043.45-.113.82L4.043 0h-.797l.621-2.957c.063-.285.094-.496.094-.637a.498.498 0 00-.16-.379c-.11-.093-.266-.14-.465-.144-.41.004-.773.152-1.09.441-.32.297-.55.797-.7 1.504L1.095 0zm0 0"/></symbol><symbol overflow="visible" id="Q"><path d="M3.613-1.34a2.53 2.53 0 00.582-.125c.16-.058.29-.129.39-.219a.847.847 0 00.22-.289.832.832 0 00.07-.343.783.783 0 00-.234-.586c-.157-.145-.407-.274-.743-.387zm.532-3.558c.28.101.566.214.851.332.285.125.543.273.774.449.23.18.418.394.562.644.145.254.219.559.219.914 0 .414-.082.774-.239 1.079a2.328 2.328 0 01-.656.773c-.281.21-.61.371-.992.484a5.159 5.159 0 01-1.242.211l-.235 1.586H2.07l.227-1.597A8.393 8.393 0 01.57-.313v-1.484c.297.102.614.192.95.274.328.082.656.14.976.171l.336-2.296a6.677 6.677 0 01-.816-.32 2.876 2.876 0 01-.723-.446 1.869 1.869 0 01-.512-.64C.648-5.305.586-5.61.586-5.97c0-.293.055-.574.168-.84.113-.265.289-.503.531-.714.235-.211.54-.383.914-.52.367-.133.809-.215 1.324-.242l.196-1.293h1.117L4.64-8.227c.222.024.441.051.66.082.215.036.426.079.629.122v1.363c-.23-.067-.477-.13-.73-.188-.259-.05-.509-.09-.755-.12zm-.817-2.086c-.406.046-.691.148-.851.296a.759.759 0 00-.243.586.606.606 0 00.215.485c.14.133.348.25.63.355zm0 0"/></symbol><symbol overflow="visible" id="R"><path d="M6.914-4.184c0 .754-.09 1.407-.266 1.95-.175.55-.418 1-.722 1.347a2.91 2.91 0 01-1.082.778c-.414.168-.856.25-1.32.254C2.43.14 1.608-.22 1.058-.941.508-1.664.234-2.72.234-4.105c0-.754.086-1.403.262-1.95.176-.543.418-.992.727-1.347A2.9 2.9 0 012.3-8.184c.41-.168.851-.254 1.324-.254 1.09 0 1.91.364 2.46 1.086.552.727.83 1.782.83 3.168zm-1.652.079c0-.98-.133-1.711-.395-2.196-.262-.48-.691-.722-1.293-.726-.3.004-.558.066-.77.187-.214.13-.39.313-.523.55-.14.243-.238.54-.3.892a7.11 7.11 0 00-.094 1.214c0 .985.129 1.72.394 2.2.262.484.696.726 1.293.722.297.004.551-.058.77-.187.21-.121.386-.305.523-.547a2.93 2.93 0 00.297-.895c.063-.351.098-.757.098-1.214zm0 0"/></symbol><symbol overflow="visible" id="S"><path d="M2.418-6.45v4.204c-.004.355.062.621.195.797.133.183.332.273.598.27.258.003.504-.106.746-.321.234-.21.488-.5.758-.867V-6.45h1.55V0h-1.34l-.038-.953c-.137.168-.278.32-.414.453-.141.14-.29.254-.453.348a2.45 2.45 0 01-.532.218 2.928 2.928 0 01-.636.079 2.26 2.26 0 01-.868-.16 1.562 1.562 0 01-.62-.462 1.843 1.843 0 01-.372-.71 3.038 3.038 0 01-.12-.934V-6.45zm0 0"/></symbol><symbol overflow="visible" id="T"><path d="M6.684-3.34c-.004.594-.086 1.11-.25 1.54a2.93 2.93 0 01-.7 1.073c-.3.29-.652.504-1.054.637a4.282 4.282 0 01-1.813.172A4.653 4.653 0 012.43 0v2.52H.883v-8.97h1.34l.035.954c.129-.164.265-.313.41-.453.14-.133.297-.25.46-.344.165-.094.34-.164.532-.219.192-.047.406-.074.645-.078a2.3 2.3 0 011.015.23c.297.157.543.372.746.65.196.284.348.624.457 1.022.102.403.157.852.16 1.348zm-1.625.067a4.968 4.968 0 00-.079-.91 2 2 0 00-.218-.614.967.967 0 00-.348-.351.994.994 0 00-.473-.114c-.265 0-.515.106-.753.317-.239.21-.493.5-.758.863v2.82c.12.047.273.082.457.114.175.03.36.046.547.043.242.003.464-.047.668-.153.203-.097.375-.242.515-.43a2.1 2.1 0 00.328-.683c.075-.266.11-.567.114-.902zm0 0"/></symbol><symbol overflow="visible" id="U"><path d="M2.754-6.977v2.297H5.89v1.285H2.754V0H1.168v-8.297H6.07v1.32zm0 0"/></symbol><symbol overflow="visible" id="V"><path d="M5.434 0v-4.39a11.706 11.706 0 00-.016-.423 1.899 1.899 0 00-.05-.304.371.371 0 00-.11-.18.345.345 0 00-.2-.062c-.132.004-.261.093-.386.27-.133.179-.274.48-.43.905V0H2.914v-4.39a11.708 11.708 0 00-.016-.423 1.899 1.899 0 00-.05-.304.349.349 0 00-.114-.18.349.349 0 00-.203-.062c-.11.004-.234.093-.367.27-.14.179-.289.48-.45.905V0H.376v-6.45h1.148l.024.942c.094-.191.187-.355.281-.492.094-.133.192-.242.297-.332a1.21 1.21 0 01.34-.188c.12-.035.258-.054.41-.058.355.004.629.098.82.285.188.188.297.45.325.785.101-.191.199-.355.3-.492.094-.133.2-.242.309-.332.11-.082.226-.145.351-.188a1.68 1.68 0 01.415-.058c.468.004.816.168 1.043.492.222.332.335.816.335 1.457V0zm0 0"/></symbol><symbol overflow="visible" id="Z"><path d="M.965 0v-1.379h2.113V-6.71l-1.84 1.016L.73-6.957l2.633-1.39h1.301v6.968h1.824V0zm0 0"/></symbol><symbol overflow="visible" id="aa"><path d="M.82 0v-1.14l1.961-1.965c.364-.368.656-.684.883-.95.219-.265.39-.504.516-.715.117-.21.199-.402.238-.582a2.48 2.48 0 00.059-.55c0-.153-.028-.301-.079-.446a1.082 1.082 0 00-.222-.37 1.083 1.083 0 00-.367-.247 1.47 1.47 0 00-.508-.094 2.053 2.053 0 00-.91.215c-.282.14-.547.332-.79.567l-.82-1.055a4.493 4.493 0 011.215-.8c.45-.204.938-.306 1.465-.306.402 0 .77.055 1.102.157.328.11.609.261.847.46.235.208.418.462.547.762.129.309.195.66.195 1.055 0 .332-.047.64-.136.926-.09.285-.22.562-.387.832a5.728 5.728 0 01-.625.812c-.25.274-.535.559-.848.856L2.953-1.43H6.45V0zm0 0"/></symbol><symbol overflow="visible" id="ab"><path d="M6.477-2.531c-.004.41-.079.781-.23 1.105-.157.332-.392.61-.704.84-.316.23-.715.406-1.191.527-.48.121-1.043.18-1.688.184C2.52.121 2.367.121 2.211.117L1.738.094c-.16-.012-.312-.028-.457-.04C1.13.036.996.02.883 0v-1.344c.262.055.558.094.894.121.328.036.676.051 1.043.047.344.004.645-.023.903-.086.25-.054.46-.14.629-.258.164-.109.285-.25.367-.414.074-.164.113-.351.117-.562a1.091 1.091 0 00-.121-.492 1.06 1.06 0 00-.367-.38 2.079 2.079 0 00-.633-.241 4.71 4.71 0 00-.91-.086h-.918v-1.18h.843c.329 0 .602-.031.82-.098.22-.062.391-.148.52-.261a.936.936 0 00.278-.391c.054-.148.082-.305.082-.477 0-.335-.114-.593-.332-.77-.223-.171-.563-.257-1.02-.26-.336.003-.66.034-.98.093-.32.066-.653.148-.993.254v-1.3a9.15 9.15 0 01.543-.161c.172-.04.348-.074.52-.106.172-.027.348-.05.527-.066.18-.012.364-.02.555-.02.457 0 .86.051 1.203.149.344.098.633.234.867.414.235.18.41.402.532.66.117.262.175.547.18.86-.005.507-.118.918-.348 1.226-.23.313-.555.547-.97.711.266.043.509.117.727.219.215.105.399.238.555.402.149.164.27.352.356.559.082.215.12.449.125.707zm0 0"/></symbol><symbol overflow="visible" id="ac"><path d="M5.617-1.688V0H4.105v-1.688H.246v-1.328l3.238-5.28h2.133v5.241h1.258v1.368zM4.125-6.796l-2.36 3.742h2.36zm0 0"/></symbol><symbol overflow="visible" id="ae"><path d="M5.484 0l-.152-4.691-.059-1.872-.398 1.27-.922 2.824h-.976l-.832-2.824-.348-1.27L1.75-4.73 1.613 0H.285l.406-8.297h1.766l.73 2.356.348 1.328.348-1.254.77-2.43h1.796L6.863 0zm0 0"/></symbol><symbol overflow="visible" id="af"><path d="M5.035 0L3.562-2.172 2.083 0H.211l2.418-3.25-2.293-3.2h1.887l1.445 2.122 1.43-2.121h1.738L4.613-3.262 6.957 0zm0 0"/></symbol><symbol overflow="visible" id="y"><path d="M6.07 2.445H3.262v-10.53H6.07v1.089H4.39v8.348h1.68zm0 0"/></symbol><symbol overflow="visible" id="z"><path d="M5.914 2.406C4.141 2.402 3.258 1.758 3.262.47v-2.117c-.004-.442-.38-.665-1.13-.668V-3.41c.75 0 1.126-.219 1.13-.66v-2.117c-.004-1.29.879-1.934 2.652-1.938v1.078c-1.02.004-1.527.277-1.523.82v2.145c-.004.504-.211.91-.621 1.219.41.34.617.75.62 1.226V.508c-.003.543.505.816 1.524.82zm0 0"/></symbol><symbol overflow="visible" id="B"><path d="M5.668-2.316c-.383.003-.664.058-.852.168a.54.54 0 00-.277.5V.469c-.004 1.289-.887 1.933-2.652 1.937V1.328c1.015-.004 1.523-.277 1.523-.82v-2.145c0-.476.207-.886.621-1.226a1.4 1.4 0 01-.468-.54 1.522 1.522 0 01-.153-.679v-2.145c0-.289-.12-.5-.363-.628-.242-.125-.629-.188-1.16-.192v-1.078c.894.004 1.558.164 1.996.48.433.32.652.805.656 1.457v2.118c-.004.23.086.398.274.508.164.101.449.152.855.152zm0 0"/></symbol><symbol overflow="visible" id="H"><path d="M6.41 2.406H5.273a18.44 18.44 0 01-1.375-2.5 6.532 6.532 0 01-.609-2.77 6.384 6.384 0 01.559-2.667c.37-.836.847-1.7 1.425-2.594H6.41c-.383.68-.797 1.523-1.242 2.535C4.723-4.574 4.5-3.664 4.5-2.863c0 .968.203 1.879.61 2.726.406.852.84 1.696 1.3 2.543zm0 0"/></symbol><symbol overflow="visible" id="P"><path d="M7.617-4.254c0 .781-.18 1.418-.539 1.906-.36.493-.86.739-1.5.735-.281.004-.5-.055-.648-.168-.157-.11-.254-.282-.297-.524l-.004-.023c-.172.234-.371.41-.598.531a1.37 1.37 0 01-.68.184c-.488.004-.867-.157-1.132-.477-.27-.316-.403-.742-.399-1.273a2.223 2.223 0 01.63-1.602c.417-.437.902-.66 1.46-.664.211.004.41.047.594.129.176.09.324.203.45.34L5-5.473h1.016l-.57 2.57c-.005.005-.005.016-.008.04-.004.027-.008.062-.004.11-.004.081.02.136.07.163a.268.268 0 00.176.043c.218.004.425-.133.613-.406.187-.274.281-.715.285-1.324-.004-.672-.219-1.223-.644-1.657-.43-.425-1.028-.64-1.79-.644-.843.004-1.527.293-2.058.863-.531.578-.797 1.293-.797 2.152 0 .915.242 1.618.727 2.102.484.492 1.152.734 2.004.73.343.004.695-.027 1.062-.09.36-.062.738-.156 1.133-.284l.223.933c-.368.113-.754.203-1.16.285-.41.078-.829.121-1.258.121-1.165 0-2.086-.34-2.758-1.023C.582-1.473.246-2.391.246-3.547c0-1.148.367-2.101 1.102-2.86.734-.75 1.664-1.128 2.797-1.132.984.004 1.812.305 2.476.902.664.602.996 1.395.996 2.383zm-2.914.2c-.07-.22-.168-.376-.293-.47a.734.734 0 00-.441-.14.994.994 0 00-.79.367c-.214.25-.32.559-.316.934-.004.289.043.492.137.61.094.116.23.175.41.175.277 0 .535-.113.781-.348a1.42 1.42 0 00.45-.781zm0 0"/></symbol><symbol overflow="visible" id="W"><path d="M4.488-2.863c0 .976-.207 1.91-.62 2.8a18.555 18.555 0 01-1.372 2.47H1.363c.403-.7.82-1.512 1.258-2.446.43-.934.649-1.875.652-2.824a6.477 6.477 0 00-.632-2.766 49.224 49.224 0 00-1.278-2.496h1.133c.535.828 1 1.66 1.399 2.492.394.84.593 1.762.593 2.77zm0 0"/></symbol><symbol overflow="visible" id="X"><path d="M4.54 2.445H1.726V1.352H3.41v-8.348H1.727v-1.09h2.812zm0 0"/></symbol><symbol overflow="visible" id="Y"><path d="M6.5-3.512H1.3V-4.64h5.2zm0 2.418H1.3v-1.129h5.2zm0 0"/></symbol><symbol overflow="visible" id="ad"><path d="M6.45-7.828L2.354 1.14 1.352.69l4.093-8.976zm0 0"/></symbol><symbol overflow="visible" id="ay"><path d="M6.5-2.297H4.457v2.102H3.328v-2.102H1.301v-1.137h2.027v-2.09h1.129v2.09H6.5zm0 0"/></symbol><symbol overflow="visible" id="D"><path d="M2.965-1.973c-.063.309-.043.536.066.684.102.148.297.223.582.223.305 0 .633-.043.989-.137.347-.09.757-.227 1.226-.41v1.215c-.43.18-.855.312-1.281.402-.426.09-.863.137-1.309.14-.773-.003-1.304-.19-1.597-.574-.297-.379-.364-.976-.2-1.793l1.352-6.746h1.562zm0 0"/></symbol><symbol overflow="visible" id="E"><path d="M4.082 0l.844-4.203c.066-.348.054-.617-.031-.809a.473.473 0 00-.45-.281c-.136.004-.277.04-.425.11a2.275 2.275 0 00-.442.292 3.73 3.73 0 00-.418.438c-.14.168-.262.348-.367.535-.113.191-.211.387-.29.582a2.581 2.581 0 00-.175.582L1.785 0H.235l1.788-8.969h1.551l-.437 2.207-.457 1.34c.11-.18.246-.344.41-.488.156-.14.328-.262.515-.367a2.57 2.57 0 01.594-.23c.211-.052.43-.079.653-.083.34.004.628.059.87.168.239.113.426.277.563.484.133.211.219.465.254.762.031.301.008.633-.062 1.004L5.629 0zm0 0"/></symbol><symbol overflow="visible" id="F"><path d="M.496-1.5a7.67 7.67 0 001.234.348c.391.078.758.117 1.102.113.492.004.856-.074 1.082-.234.227-.157.34-.356.34-.598 0-.082-.02-.16-.05-.234a.732.732 0 00-.188-.2 3.047 3.047 0 00-.364-.187 9.558 9.558 0 00-.597-.211c-.598-.18-1.043-.426-1.336-.735-.297-.308-.442-.699-.442-1.175 0-.266.067-.524.203-.766.133-.238.329-.445.59-.629a3.22 3.22 0 01.97-.426 5.365 5.365 0 011.327-.156c.418.004.781.024 1.082.055.301.039.563.078.79.125v1.262c-.41-.122-.774-.2-1.087-.239a9.02 9.02 0 00-.847-.058 3.086 3.086 0 00-.664.066c-.18.047-.32.11-.426.188a.802.802 0 00-.223.25.49.49 0 00-.066.25.526.526 0 00.054.261.501.501 0 00.204.215c.093.07.226.137.394.203.164.07.371.14.625.215.57.184 1.004.418 1.293.7.29.284.434.636.434 1.054 0 .379-.082.703-.242.973a2.044 2.044 0 01-.66.683c-.282.184-.61.317-.985.403a5.993 5.993 0 01-1.211.129A13.87 13.87 0 011.527.078a8.003 8.003 0 01-1.03-.18zm0 0"/></symbol><symbol overflow="visible" id="I"><path d="M-.496 1.402c.21.024.426.04.656.04.176 0 .348-.028.516-.075.164-.05.316-.125.457-.226.133-.106.25-.243.351-.407.094-.168.168-.363.22-.59l.886-4.46H.719l.246-1.207h1.867l.184-.926c.18-.899.535-1.563 1.07-1.996.527-.426 1.254-.64 2.18-.645.261.004.53.02.808.055.27.039.512.082.727.129l-.246 1.21a7.086 7.086 0 00-.684-.124 6.391 6.391 0 00-.719-.043c-.472 0-.832.125-1.074.37-.246.25-.414.598-.5 1.044l-.187.926H6.93l-.246 1.207h-2.54L3.275.078c-.094.477-.235.883-.426 1.215-.196.328-.43.594-.703.8-.274.2-.586.348-.938.438a5.027 5.027 0 01-1.145.133c-.175-.004-.324-.008-.457-.008a9.045 9.045 0 01-.359-.027zm0 0"/></symbol><symbol overflow="visible" id="J"><path d="M2.965.145a3.821 3.821 0 01-1.086-.149 2.088 2.088 0 01-.82-.45 1.855 1.855 0 01-.528-.76 2.78 2.78 0 01-.183-1.083A4.528 4.528 0 01.465-3.37a4.98 4.98 0 01.344-1.012c.148-.32.332-.613.55-.883.22-.265.47-.496.758-.695.281-.195.598-.351.946-.46a3.87 3.87 0 012.203-.016c.32.101.593.25.824.449.223.203.398.457.523.761.121.309.184.672.184 1.082a4.955 4.955 0 01-.457 2.082 4.09 4.09 0 01-.55.883A3.44 3.44 0 014.086-.02a3.87 3.87 0 01-1.122.165zm2.207-4.137c-.004-.414-.106-.73-.309-.942-.203-.21-.5-.316-.883-.316-.234 0-.44.047-.625.133-.187.09-.355.203-.503.344a2.173 2.173 0 00-.391.503c-.11.192-.203.391-.273.598a3.582 3.582 0 00-.16.625c-.04.211-.06.41-.055.59-.004.422.101.734.312.945.207.211.5.317.887.317.226 0 .433-.043.621-.13.184-.085.352-.198.504-.347.144-.14.273-.308.387-.5.109-.187.203-.387.273-.594.07-.207.121-.414.16-.629.031-.21.051-.41.055-.597zm0 0"/></symbol><symbol overflow="visible" id="K"><path d="M5.172-3.941c.058-.254.09-.47.094-.649a.963.963 0 00-.063-.414.451.451 0 00-.21-.223.91.91 0 00-.352-.066c-.204.004-.414.086-.625.25a2.859 2.859 0 00-.61.66c-.195.274-.367.59-.52.942a5.462 5.462 0 00-.34 1.086L2.083 0H.496l.684-3.445.078-.434a19.8 19.8 0 00.078-.574c.027-.227.059-.5.094-.82.03-.32.07-.711.117-1.176h1.258l-.063 1.261c.094-.164.211-.332.36-.503a2.621 2.621 0 011.148-.773c.234-.079.496-.122.785-.126.363.004.68.063.942.18.257.117.457.289.605.512.14.226.227.503.258.828.023.332-.012.707-.106 1.129zm0 0"/></symbol><symbol overflow="visible" id="L"><path d="M4.785 0l.883-4.39c.055-.32.086-.563.086-.727-.004-.156-.063-.238-.176-.242-.094.004-.207.066-.34.191a2.818 2.818 0 00-.394.492c-.133.2-.254.422-.367.668-.114.25-.192.496-.235.735L3.586 0H2.258l.89-4.39c.055-.32.086-.563.086-.727-.004-.156-.066-.238-.18-.242-.085.004-.19.066-.32.191a3.017 3.017 0 00-.398.492c-.137.2-.262.422-.375.668-.117.25-.2.496-.246.735L1.066 0h-1.34l.692-3.445c.023-.133.05-.278.074-.434.024-.156.047-.348.074-.574.028-.227.059-.5.094-.82.031-.32.07-.711.121-1.176h1.14l-.034 1.043.125-.188c.254-.34.5-.59.73-.746a1.31 1.31 0 01.742-.238c.309.004.543.078.7.223.156.152.234.359.234.625 0 .046-.004.097-.012.152-.008.055-.02.113-.027.172.133-.192.266-.36.39-.508.126-.14.25-.266.38-.367.124-.098.253-.172.39-.223.129-.047.274-.07.43-.074.46.004.789.176.98.512.188.343.211.863.07 1.566L6.126 0zm0 0"/></symbol><symbol overflow="visible" id="G"><path d="M6.137 2.977h-6.5l.37-1.09h6.5zm0 0"/></symbol><symbol overflow="visible" id="as"><path d="M6.125 8.148h-.418a24.387 24.387 0 01-1.61-5.289C3.77 1.08 3.61-.824 3.614-2.85c-.004-2.087.164-4 .504-5.747a26.832 26.832 0 011.59-5.246h.418c-.64 1.54-1.125 3.235-1.457 5.09-.332 1.86-.496 3.836-.496 5.922 0 2.152.156 4.105.473 5.867.312 1.758.804 3.461 1.48 5.113zm0 0"/></symbol><symbol overflow="visible" id="ax"><path d="M4.184-2.852c0 1.91-.164 3.778-.485 5.614a24.83 24.83 0 01-1.605 5.386h-.418A25.902 25.902 0 003.16 2.875c.305-1.824.461-3.723.465-5.707-.004-2.043-.16-3.973-.469-5.781a25.82 25.82 0 00-1.48-5.23h.418c.68 1.655 1.199 3.378 1.554 5.167.356 1.793.536 3.735.536 5.824zm0 0"/></symbol><symbol overflow="visible" id="az"><path d="M5.594 2.406c-.692-.004-1.2-.14-1.524-.414-.324-.273-.484-.676-.484-1.199v-2.441a.892.892 0 00-.262-.657c-.176-.168-.465-.273-.867-.312v-.488c.36-.036.64-.13.836-.282.195-.148.293-.375.293-.683v-2.442c0-.523.156-.922.469-1.191.312-.266.824-.406 1.539-.422v.445c-.473.004-.844.094-1.117.266-.274.18-.41.465-.407.863v2.469c-.004.281-.09.523-.258.723a1.938 1.938 0 01-.664.496c.274.144.497.316.668.515.164.2.25.438.254.711V.832c-.004.39.137.676.422.86.281.175.649.265 1.102.269zm0 0"/></symbol><symbol overflow="visible" id="aB"><path d="M5.344-2.617a1.413 1.413 0 00-.79.262c-.23.164-.343.402-.34.707V.793c-.003.566-.175.98-.523 1.234-.347.25-.843.375-1.48.38V1.96c.539-.016.93-.121 1.168-.313.234-.195.351-.464.355-.816v-2.469c-.004-.254.07-.48.22-.675.144-.192.378-.376.698-.551-.312-.149-.547-.328-.695-.54a1.091 1.091 0 01-.223-.679v-2.469c-.004-.36-.125-.633-.37-.82-.247-.188-.634-.29-1.153-.309v-.445c.562.004 1.039.125 1.426.367.383.242.574.66.578 1.246v2.442c-.004.304.101.535.308.695.204.16.477.25.82.27zm0 0"/></symbol><symbol overflow="visible" id="at"><path d="M6.328 0h-5.21v-1.027H3.25v-6.059L1.262-6.004l-.407-.941 2.641-1.39h.98v7.308h1.852zm0 0"/></symbol><symbol overflow="visible" id="au"><path d="M6.398 0H.934v-.992l2.144-2.133c.348-.344.633-.645.856-.898.218-.254.39-.485.515-.696a2.4 2.4 0 00.246-.593 3.15 3.15 0 00.067-.602 2.23 2.23 0 00-.086-.582 1.4 1.4 0 00-.254-.484 1.23 1.23 0 00-.442-.332 1.75 1.75 0 00-.652-.122 2.08 2.08 0 00-.96.235c-.29.16-.555.363-.794.61l-.61-.731c.31-.325.669-.59 1.083-.79.406-.199.883-.296 1.426-.3.363.004.699.058 1.004.164.304.113.566.27.785.476.218.211.386.465.511.762.118.301.18.64.18 1.016 0 .32-.043.613-.129.883a3.456 3.456 0 01-.383.808c-.171.27-.386.551-.644.836-.262.29-.57.602-.926.945L2.367-1.055h4.031zm0 0"/></symbol><symbol overflow="visible" id="av"><path d="M6.238-2.52c-.004.368-.078.711-.222 1.028-.149.32-.371.597-.664.836-.301.242-.672.433-1.118.566-.449.137-.972.2-1.57.203a14.342 14.342 0 01-.887-.031C1.512.059 1.266.032 1.04 0v-.992c.258.05.535.086.832.11.29.027.59.038.895.038.414 0 .77-.035 1.066-.11.293-.073.531-.179.719-.32.183-.136.32-.308.406-.507.086-.2.129-.422.129-.676 0-.227-.05-.426-.152-.598a1.345 1.345 0 00-.43-.422 2.476 2.476 0 00-.66-.257 4.049 4.049 0 00-.84-.086h-.95v-.91h.962c.246.003.472-.032.68-.098.202-.063.378-.156.527-.281.144-.121.257-.27.34-.454a1.65 1.65 0 00.117-.613c-.004-.445-.14-.77-.407-.972-.273-.204-.671-.305-1.195-.305-.281 0-.566.027-.863.082-.297.055-.617.14-.953.25v-.965c.14-.05.297-.094.46-.137a6.843 6.843 0 01.973-.164c.16-.011.313-.02.465-.023.438.004.824.05 1.16.144.332.098.614.235.84.407.223.18.39.394.508.648.11.258.168.543.172.856-.004.476-.125.875-.367 1.195a2.46 2.46 0 01-.996.77c.21.035.421.1.632.199.211.105.399.234.567.39a1.744 1.744 0 01.563 1.281zm0 0"/></symbol><symbol overflow="visible" id="aw"><path d="M6.813-1.836H5.394V0h-1.13v-1.836H.274v-.969L3.81-8.297h1.586v5.492h1.418zM4.265-7.23L1.379-2.805h2.887zm0 0"/></symbol><symbol overflow="visible" id="aA"><path d="M1.512 1.3a2.42 2.42 0 00.629-.058c.199-.047.379-.117.535-.203.152-.094.277-.207.37-.34a.814.814 0 00.142-.465.875.875 0 00-.094-.43A2.451 2.451 0 002.887-.5a1.754 1.754 0 01-.207-.297c-.063-.105-.09-.246-.09-.43a.82.82 0 01.05-.277.744.744 0 01.157-.266.824.824 0 01.265-.195 1.01 1.01 0 01.383-.078c.149.004.29.035.43.094.133.062.254.156.36.281.1.129.183.29.25.477.058.195.09.418.093.671A2.79 2.79 0 014.383.492c-.133.32-.328.606-.578.86a2.935 2.935 0 01-.957.597c-.383.145-.828.219-1.336.223zm0 0"/></symbol><symbol overflow="visible" id="aC"><path d="M6.188-2.652c0 .41-.09.785-.266 1.12-.18.345-.426.634-.734.876-.313.242-.68.433-1.102.566-.426.137-.879.2-1.367.203L2.32.102 1.898.078a7.937 7.937 0 00-.41-.035C1.355.027 1.234.016 1.128 0v-1.004c.227.059.49.098.786.121.293.028.59.04.89.04.337 0 .641-.04.915-.122.27-.078.5-.191.691-.344.188-.148.332-.332.438-.546.097-.211.148-.454.152-.723-.004-.516-.188-.89-.555-1.125-.37-.235-.902-.352-1.593-.352H1.277v-4.242h4.47v.965h-3.43V-5h.722c.395.004.781.04 1.16.11.375.074.711.199 1.008.374.293.184.531.426.711.723.18.305.27.684.27 1.14zm0 0"/></symbol></defs><path d="M802.336 0l5 5" fill="none" stroke-linecap="square" stroke="#b2b2b2" stroke-miterlimit="10"/><g fill="#999"><use xlink:href="#a" x="55.001" y="12"/><use xlink:href="#b" x="57.502" y="12"/><use xlink:href="#c" x="62.508" y="12"/></g><use xlink:href="#d" x="65.009" y="12" fill="#999" fill-opacity=".32"/><g fill="#999"><use xlink:href="#e" x="72.076" y="12"/><use xlink:href="#f" x="74.577" y="12"/><use xlink:href="#g" x="77.078" y="12"/></g><use xlink:href="#h" x="89.334" y="12"/><use xlink:href="#i" x="96.481" y="12"/><use xlink:href="#j" x="103.629" y="12"/><use xlink:href="#i" x="110.776" y="12"/><use xlink:href="#k" x="117.924" y="12"/><use xlink:href="#l" x="125.071" y="12"/><use xlink:href="#m" x="132.219" y="12"/><use xlink:href="#n" x="139.366" y="12"/><use xlink:href="#o" x="146.514" y="12"/><use xlink:href="#p" x="153.661" y="12"/><use xlink:href="#m" x="160.809" y="12"/><use xlink:href="#p" x="167.956" y="12"/><use xlink:href="#o" x="175.104" y="12"/><use xlink:href="#p" x="182.251" y="12"/><use xlink:href="#i" x="189.398" y="12"/><use xlink:href="#q" x="196.546" y="12"/><use xlink:href="#r" x="203.693" y="12"/><use xlink:href="#s" x="210.841" y="12"/><use xlink:href="#m" x="217.988" y="12"/><use xlink:href="#t" x="225.136" y="12"/><use xlink:href="#u" x="232.283" y="12"/><use xlink:href="#v" x="239.431" y="12"/><use xlink:href="#w" x="246.578" y="12"/><use xlink:href="#k" x="253.726" y="12"/><use xlink:href="#t" x="260.873" y="12"/><use xlink:href="#o" x="268.021" y="12"/><use xlink:href="#i" x="275.168" y="12"/><use xlink:href="#u" x="282.315" y="12"/><use xlink:href="#o" x="289.463" y="12"/><use xlink:href="#i" x="296.61" y="12"/><use xlink:href="#x" x="303.758" y="12"/><use xlink:href="#y" x="311.334" y="12"/><use xlink:href="#z" x="319.334" y="12"/><use xlink:href="#A" x="327.334" y="12"/><use xlink:href="#i" x="334.481" y="12"/><use xlink:href="#o" x="341.629" y="12"/><use xlink:href="#B" x="348.334" y="12"/><use xlink:href="#C" x="356.334" y="12"/><use xlink:href="#A" x="96.981" y="31"/><use xlink:href="#i" x="104.129" y="31"/><use xlink:href="#o" x="111.276" y="31"/><use xlink:href="#y" x="117.981" y="31"/><g fill="#438958"><use xlink:href="#D" x="125.981" y="31"/><use xlink:href="#E" x="133.129" y="31"/><use xlink:href="#F" x="140.276" y="31"/></g><use xlink:href="#G" x="147.424" y="31" fill="#438958"/><use xlink:href="#C" x="154.981" y="31"/><use xlink:href="#H" x="165.981" y="31"/><g fill="#438958"><use xlink:href="#I" x="173.981" y="31"/><use xlink:href="#J" x="181.129" y="31"/><use xlink:href="#K" x="188.276" y="31"/><use xlink:href="#L" x="195.424" y="31"/></g><use xlink:href="#M" x="205.981" y="31"/><use xlink:href="#N" x="215.981" y="31"/><use xlink:href="#m" x="223.129" y="31"/><use xlink:href="#o" x="230.276" y="31"/><use xlink:href="#i" x="237.424" y="31"/><use xlink:href="#k" x="244.571" y="31"/><use xlink:href="#j" x="251.719" y="31"/><use xlink:href="#l" x="258.866" y="31"/><use xlink:href="#o" x="266.014" y="31"/><use xlink:href="#p" x="273.161" y="31"/><use xlink:href="#O" x="280.309" y="31"/><use xlink:href="#i" x="287.456" y="31"/><use xlink:href="#q" x="294.604" y="31"/><use xlink:href="#P" x="304.981" y="31"/><use xlink:href="#P" x="312.783" y="31"/><use xlink:href="#Q" x="323.981" y="31"/><use xlink:href="#R" x="331.129" y="31"/><use xlink:href="#S" x="338.276" y="31"/><use xlink:href="#o" x="345.424" y="31"/><use xlink:href="#T" x="352.571" y="31"/><use xlink:href="#S" x="359.719" y="31"/><use xlink:href="#o" x="366.866" y="31"/><use xlink:href="#U" x="374.014" y="31"/><use xlink:href="#t" x="381.161" y="31"/><use xlink:href="#k" x="388.309" y="31"/><use xlink:href="#V" x="395.456" y="31"/><use xlink:href="#q" x="402.604" y="31"/><use xlink:href="#W" x="409.981" y="31"/><use xlink:href="#y" x="417.981" y="31"/><g fill="#438958"><use xlink:href="#K" x="425.981" y="31"/><use xlink:href="#E" x="433.129" y="31"/><use xlink:href="#F" x="440.276" y="31"/></g><use xlink:href="#G" x="447.424" y="31" fill="#438958"/><use xlink:href="#X" x="454.981" y="31"/><use xlink:href="#X" x="462.981" y="31"/><use xlink:href="#M" x="474.981" y="31"/><use xlink:href="#Y" x="482.129" y="31"/><g fill="#438958"><use xlink:href="#I" x="493.981" y="31"/><use xlink:href="#J" x="501.129" y="31"/><use xlink:href="#K" x="508.276" y="31"/><use xlink:href="#L" x="515.424" y="31"/></g><use xlink:href="#P" x="523.981" y="31"/><use xlink:href="#A" x="532.981" y="31"/><use xlink:href="#i" x="540.129" y="31"/><use xlink:href="#o" x="547.276" y="31"/><use xlink:href="#y" x="553.981" y="31"/><g fill="#438958"><use xlink:href="#D" x="561.981" y="31"/><use xlink:href="#E" x="569.129" y="31"/><use xlink:href="#F" x="576.276" y="31"/></g><g><use xlink:href="#C" x="582.981" y="31"/></g><g fill="#438958"><use xlink:href="#K" x="593.981" y="31"/><use xlink:href="#E" x="601.129" y="31"/><use xlink:href="#F" x="608.276" y="31"/></g><g><use xlink:href="#X" x="614.981" y="31"/></g><g><use xlink:href="#X" x="89.334" y="50"/></g><path d="M795.336 67l5 5" fill="none" stroke-linecap="square" stroke="#b2b2b2" stroke-miterlimit="10"/><g fill="#999"><use xlink:href="#a" x="55.001" y="79"/><use xlink:href="#b" x="57.502" y="79"/><use xlink:href="#c" x="62.508" y="79"/></g><g fill="#999" fill-opacity=".32"><use xlink:href="#d" x="65.009" y="79"/></g><g fill="#999"><use xlink:href="#e" x="72.076" y="79"/><use xlink:href="#f" x="74.577" y="79"/><use xlink:href="#g" x="77.078" y="79"/></g><g><use xlink:href="#l" x="89.334" y="79"/></g><g><use xlink:href="#Y" x="100.334" y="79"/></g><g><use xlink:href="#z" x="112.334" y="79"/></g><g><use xlink:href="#z" x="120.334" y="79"/></g><g><use xlink:href="#Z" x="128.334" y="79"/></g><g><use xlink:href="#C" x="135.334" y="79"/></g><g><use xlink:href="#aa" x="146.334" y="79"/></g><g><use xlink:href="#B" x="153.334" y="79"/></g><g><use xlink:href="#C" x="161.334" y="79"/></g><g><use xlink:href="#z" x="172.334" y="79"/></g><g><use xlink:href="#ab" x="180.334" y="79"/></g><g><use xlink:href="#C" x="187.334" y="79"/></g><g><use xlink:href="#ac" x="198.334" y="79"/></g><g><use xlink:href="#B" x="205.334" y="79"/></g><g><use xlink:href="#B" x="213.334" y="79"/></g><g><use xlink:href="#ad" x="225.334" y="79"/><use xlink:href="#ad" x="233.136" y="79"/></g><g><use xlink:href="#ae" x="245.334" y="79"/><use xlink:href="#l" x="252.481" y="79"/><use xlink:href="#o" x="259.629" y="79"/><use xlink:href="#k" x="266.776" y="79"/><use xlink:href="#p" x="273.924" y="79"/><use xlink:href="#af" x="281.071" y="79"/><use xlink:href="#U" x="288.219" y="79"/><use xlink:href="#t" x="295.366" y="79"/><use xlink:href="#k" x="302.514" y="79"/><use xlink:href="#V" x="309.661" y="79"/></g><path d="M795.336 92l5 5" fill="none" stroke-linecap="square" stroke="#b2b2b2" stroke-miterlimit="10"/><g fill="#999"><use xlink:href="#ag" x="35.334" y="101"/><use xlink:href="#ah" x="42.335" y="101"/><use xlink:href="#ai" x="47.341" y="101"/><use xlink:href="#c" x="49.842" y="101"/></g><g fill="#999" fill-opacity=".32"><use xlink:href="#d" x="52.343" y="101"/></g><g fill="#999"><use xlink:href="#e" x="59.41" y="101"/><use xlink:href="#aj" x="61.911" y="101"/><use xlink:href="#aj" x="64.412" y="101"/><use xlink:href="#ak" x="66.913" y="101"/><use xlink:href="#al" x="74.41" y="101"/><use xlink:href="#ai" x="79.416" y="101"/><use xlink:href="#am" x="81.917" y="101"/><use xlink:href="#an" x="84.914" y="101"/><use xlink:href="#ao" x="86.914" y="101"/><use xlink:href="#ap" x="91.414" y="101"/><use xlink:href="#aq" x="96.912" y="101"/><use xlink:href="#am" x="101.918" y="101"/><use xlink:href="#ar" x="104.915" y="101"/><use xlink:href="#g" x="112.412" y="101"/></g><g><use xlink:href="#as" x="89.334" y="122"/></g><g><use xlink:href="#at" x="100.334" y="115"/></g><g><use xlink:href="#au" x="116.334" y="115"/></g><g><use xlink:href="#av" x="100.334" y="130"/></g><g><use xlink:href="#aw" x="116.334" y="130"/></g><g><use xlink:href="#ax" x="126.334" y="122"/></g><path d="M795.336 153l5 5" fill="none" stroke-linecap="square" stroke="#b2b2b2" stroke-miterlimit="10"/><g fill="#999"><use xlink:href="#a" x="55.001" y="165"/><use xlink:href="#b" x="57.502" y="165"/><use xlink:href="#c" x="62.508" y="165"/></g><g fill="#999" fill-opacity=".32"><use xlink:href="#d" x="65.009" y="165"/></g><g fill="#999"><use xlink:href="#e" x="72.076" y="165"/><use xlink:href="#f" x="74.577" y="165"/><use xlink:href="#g" x="77.078" y="165"/></g><g><use xlink:href="#l" x="89.334" y="165"/></g><g><use xlink:href="#ay" x="99.334" y="165"/></g><g><use xlink:href="#Z" x="110.334" y="165"/></g><path d="M795.336 178l5 5" fill="none" stroke-linecap="square" stroke="#b2b2b2" stroke-miterlimit="10"/><g fill="#999"><use xlink:href="#ag" x="50.501" y="190"/><use xlink:href="#ah" x="57.502" y="190"/><use xlink:href="#ai" x="62.508" y="190"/><use xlink:href="#c" x="65.009" y="190"/></g><g fill="#999" fill-opacity=".32"><use xlink:href="#d" x="67.51" y="190"/></g><g fill="#999"><use xlink:href="#e" x="74.577" y="190"/><use xlink:href="#g" x="77.078" y="190"/></g><g><use xlink:href="#az" x="89.334" y="190"/></g><g><use xlink:href="#az" x="97.334" y="190"/></g><g><use xlink:href="#au" x="105.334" y="190"/></g><g><use xlink:href="#aA" x="112.334" y="190"/></g><g><use xlink:href="#av" x="123.334" y="190"/></g><g><use xlink:href="#aB" x="130.334" y="190"/></g><g><use xlink:href="#aA" x="138.334" y="190"/></g><g><use xlink:href="#az" x="149.334" y="190"/></g><g><use xlink:href="#aw" x="157.334" y="190"/></g><g><use xlink:href="#aA" x="164.334" y="190"/></g><g><use xlink:href="#aC" x="175.334" y="190"/></g><g><use xlink:href="#aB" x="182.334" y="190"/></g><g><use xlink:href="#aB" x="190.334" y="190"/></g></svg>