<svg xmlns="http://www.w3.org/2000/svg" xmlns:xlink="http://www.w3.org/1999/xlink" width="500" height="128" viewBox="0 0 375 96"><defs><symbol overflow="visible" id="B"><path d="M5.484 0l-.152-4.691-.059-1.872-.398 1.27-.922 2.824h-.976l-.832-2.824-.348-1.27L1.75-4.73 1.613 0H.285l.406-8.297h1.766l.73 2.356.348 1.328.348-1.254.77-2.43h1.796L6.863 0zm0 0"/></symbol><symbol overflow="visible" id="a"><path d="M.516 0l1.347-6.441h.856L1.375 0zm0 0"/></symbol><symbol overflow="visible" id="c"><path d="M.059 1.762L1.75-6.441h1.77l-.13.609h-.96L.973 1.152h.968l-.125.61zm0 0"/></symbol><symbol overflow="visible" id="e"><path d="M1.23 1.762H-.527l.129-.61H.57l1.461-6.984h-.969l.13-.61H2.96zm0 0"/></symbol><symbol overflow="visible" id="f"><path d="M1.3-3.766l.188-.902h.899l-.184.902zM.517 0l.187-.902h.902L1.41 0zm0 0"/></symbol><symbol overflow="visible" id="g"><path d="M5.063-3.79H.809v-.737h4.253zm0 1.958H.809v-.738h4.253zm0 0"/></symbol><symbol overflow="visible" id="P"><path d="M.82-2.7c0-1.144.332-2.073.996-2.784.664-.711 1.47-1.067 2.414-1.067.805 0 1.457.262 1.965.785.5.524.754 1.227.758 2.102a4.12 4.12 0 01-.383 1.742c-.195.402-.433.75-.722 1.04-.29.292-.602.519-.93.675-.445.21-.91.312-1.398.316a2.82 2.82 0 01-1.41-.367 2.403 2.403 0 01-.962-1.031A3.13 3.13 0 01.82-2.7zm.852.044c-.004.383.074.73.234 1.047.153.316.387.562.7.742.308.18.636.27.98.265.328.004.64-.074.945-.234.297-.152.567-.371.801-.652a3.23 3.23 0 00.559-1.035c.132-.407.203-.809.203-1.207 0-.641-.18-1.153-.54-1.536a1.764 1.764 0 00-1.327-.57c-.676 0-1.27.29-1.782.863-.52.578-.777 1.352-.773 2.317zm0 0"/></symbol><symbol overflow="visible" id="Q"><path d="M3.484-.844c-.562.633-1.136.95-1.718.95-.364 0-.653-.102-.871-.31A.996.996 0 01.562-.96c0-.195.047-.531.149-1.012l.562-2.695h.797l-.625 2.984a2.646 2.646 0 00-.078.582.506.506 0 00.16.41c.106.098.262.149.473.145.219.004.438-.05.648-.16.211-.106.395-.25.551-.438.156-.18.281-.398.38-.656.058-.156.132-.441.222-.847l.422-2.02h.797L4.043 0h-.734zm0 0"/></symbol><symbol overflow="visible" id="R"><path d="M2.156-.645l-.129.649c-.191.047-.379.07-.554.074C1.153.074.903 0 .715-.152a.592.592 0 01-.211-.48c0-.102.039-.337.117-.708l.567-2.71h-.63l.13-.618h.625l.242-1.144.91-.551-.356 1.695h.782l-.133.617H1.98l-.539 2.578c-.07.332-.105.528-.101.59-.004.098.023.168.082.215.05.05.14.078.266.074.175.004.332-.015.468-.05zm0 0"/></symbol><symbol overflow="visible" id="d"><path d="M5.348-2.547c-.086.25-.211.485-.375.7-.168.218-.36.406-.575.562-.214.164-.445.289-.691.375-.25.094-.5.137-.746.137-.258 0-.477-.043-.664-.133a1.04 1.04 0 01-.434-.371 1.132 1.132 0 01-.183-.563c-.02-.219.015-.453.105-.707.082-.254.207-.488.375-.707a2.742 2.742 0 011.254-.937c.246-.086.496-.133.754-.137.246.004.465.05.652.14.184.094.328.22.438.38.101.16.164.347.187.562.016.219-.015.453-.097.7zm0 0"/></symbol><symbol overflow="visible" id="h"><path d="M4.926 0l-.04-.844a5.052 5.052 0 01-.425.399A2.564 2.564 0 013.39.07c-.211.046-.442.07-.688.074A2.518 2.518 0 011.836 0a1.594 1.594 0 01-.629-.406 1.642 1.642 0 01-.387-.63 2.412 2.412 0 01-.129-.812c0-.3.063-.582.192-.843.129-.254.324-.477.59-.664.261-.184.593-.329.992-.438.394-.102.86-.156 1.394-.16h.844v-.39a1.61 1.61 0 00-.07-.446.944.944 0 00-.227-.34 1.093 1.093 0 00-.402-.215 2.266 2.266 0 00-.61-.078 5.15 5.15 0 00-1.124.133c-.375.09-.73.21-1.075.363v-1.238c.305-.121.66-.223 1.067-.305.402-.078.82-.117 1.261-.12a5.3 5.3 0 011.23.136c.34.094.626.23.849.41.218.188.382.414.492.684.105.273.156.59.16.953V0zm-.223-2.852h-.945a2.85 2.85 0 00-.668.079 1.367 1.367 0 00-.442.21.846.846 0 00-.253.31.797.797 0 00-.079.366c-.003.266.082.469.254.602.168.14.399.207.692.207.215 0 .437-.078.672-.234.23-.157.488-.38.77-.676zm0 0"/></symbol><symbol overflow="visible" id="k"><path d="M.965 0v-1.379h2.113V-6.71l-1.84 1.016L.73-6.957l2.633-1.39h1.301v6.968h1.824V0zm0 0"/></symbol><symbol overflow="visible" id="l"><path d="M1.34 1.227c.25.003.484-.012.707-.047.219-.04.41-.098.574-.18.16-.086.29-.191.387-.316a.796.796 0 00.14-.45.896.896 0 00-.054-.312 1.366 1.366 0 00-.137-.234l-.176-.204a1.763 1.763 0 01-.172-.21.787.787 0 01-.136-.254.845.845 0 01-.055-.348.937.937 0 01.07-.383.888.888 0 01.203-.332.949.949 0 01.325-.234c.129-.059.277-.09.445-.09.203 0 .387.05.555.144.164.098.304.227.421.387.11.164.196.348.258.559.055.21.086.43.09.656A3 3 0 014.57.489a2.549 2.549 0 01-.648.906c-.29.257-.645.46-1.074.613-.43.148-.934.222-1.508.226zm0 0"/></symbol><symbol overflow="visible" id="m"><path d="M.82 0v-1.14l1.961-1.965c.364-.368.656-.684.883-.95.219-.265.39-.504.516-.715.117-.21.199-.402.238-.582a2.48 2.48 0 00.059-.55c0-.153-.028-.301-.079-.446a1.082 1.082 0 00-.222-.37 1.083 1.083 0 00-.367-.247 1.47 1.47 0 00-.508-.094 2.053 2.053 0 00-.91.215c-.282.14-.547.332-.79.567l-.82-1.055a4.493 4.493 0 011.215-.8c.45-.204.938-.306 1.465-.306.402 0 .77.055 1.102.157.328.11.609.261.847.46.235.208.418.462.547.762.129.309.195.66.195 1.055 0 .332-.047.64-.136.926-.09.285-.22.562-.387.832a5.728 5.728 0 01-.625.812c-.25.274-.535.559-.848.856L2.953-1.43H6.45V0zm0 0"/></symbol><symbol overflow="visible" id="o"><path d="M6.477-2.531c-.004.41-.079.781-.23 1.105-.157.332-.392.61-.704.84-.316.23-.715.406-1.191.527-.48.121-1.043.18-1.688.184C2.52.121 2.367.121 2.211.117L1.738.094c-.16-.012-.312-.028-.457-.04C1.13.036.996.02.883 0v-1.344c.262.055.558.094.894.121.328.036.676.051 1.043.047.344.004.645-.023.903-.086.25-.054.46-.14.629-.258.164-.109.285-.25.367-.414.074-.164.113-.351.117-.562a1.091 1.091 0 00-.121-.492 1.06 1.06 0 00-.367-.38 2.079 2.079 0 00-.633-.241 4.71 4.71 0 00-.91-.086h-.918v-1.18h.843c.329 0 .602-.031.82-.098.22-.062.391-.148.52-.261a.936.936 0 00.278-.391c.054-.148.082-.305.082-.477 0-.335-.114-.593-.332-.77-.223-.171-.563-.257-1.02-.26-.336.003-.66.034-.98.093-.32.066-.653.148-.993.254v-1.3a9.15 9.15 0 01.543-.161c.172-.04.348-.074.52-.106.172-.027.348-.05.527-.066.18-.012.364-.02.555-.02.457 0 .86.051 1.203.149.344.098.633.234.867.414.235.18.41.402.532.66.117.262.175.547.18.86-.005.507-.118.918-.348 1.226-.23.313-.555.547-.97.711.266.043.509.117.727.219.215.105.399.238.555.402.149.164.27.352.356.559.082.215.12.449.125.707zm0 0"/></symbol><symbol overflow="visible" id="p"><path d="M5.617-1.688V0H4.105v-1.688H.246v-1.328l3.238-5.28h2.133v5.241h1.258v1.368zM4.125-6.796l-2.36 3.742h2.36zm0 0"/></symbol><symbol overflow="visible" id="r"><path d="M1.168 0v-8.297h4.996v1.32h-3.41v2.063h3.25v1.289h-3.25v2.305h3.41V0zm0 0"/></symbol><symbol overflow="visible" id="s"><path d="M6.102-.246a4.527 4.527 0 01-.95.27 6.186 6.186 0 01-1.02.09 4.41 4.41 0 01-1.378-.208 2.758 2.758 0 01-1.035-.62 2.627 2.627 0 01-.649-1.024C.918-2.141.844-2.61.844-3.148c0-.512.078-.98.242-1.403a2.979 2.979 0 011.762-1.758 3.84 3.84 0 011.394-.242c.414 0 .766.024 1.055.067.285.046.543.101.773.168v1.503a4.215 4.215 0 00-1.727-.41c-.292.004-.55.051-.777.145-.23.098-.421.234-.578.406-.156.18-.277.39-.36.633-.081.25-.12.52-.12.812 0 .313.043.59.133.836.086.246.21.457.375.625.16.172.355.301.59.391.226.094.48.14.761.137.133.004.278-.008.426-.028a5.056 5.056 0 001.309-.359zm0 0"/></symbol><symbol overflow="visible" id="t"><path d="M4.73 0v-4.203c-.003-.703-.265-1.059-.789-1.059-.265 0-.515.106-.753.317-.239.21-.493.5-.758.863V0H.883v-8.969H2.43v2.207l-.075 1.168c.13-.152.262-.293.399-.422a2.174 2.174 0 01.945-.507c.18-.04.383-.063.606-.067.324.004.61.059.86.164.241.11.448.262.616.457.164.2.29.438.371.711.082.281.121.59.125.93V0zm0 0"/></symbol><symbol overflow="visible" id="u"><path d="M6.691-3.273c0 .507-.074.972-.218 1.39a3.088 3.088 0 01-.621 1.086 2.73 2.73 0 01-.997.695c-.394.164-.843.243-1.343.247-.485-.004-.91-.07-1.285-.207a2.415 2.415 0 01-.957-.625A2.637 2.637 0 01.664-1.73c-.14-.415-.207-.903-.207-1.458 0-.507.07-.972.219-1.394.14-.418.351-.773.629-1.074.27-.293.601-.524 1-.688.39-.16.836-.242 1.332-.246.48.004.91.074 1.289.215.375.14.695.352.957.633s.46.629.601 1.039c.137.414.207.89.207 1.43zm-1.613.035C5.074-3.906 4.95-4.41 4.7-4.746c-.25-.336-.62-.504-1.113-.504-.273 0-.504.055-.691.16-.192.106-.348.25-.47.434a1.907 1.907 0 00-.269.644c-.058.246-.09.508-.086.785-.004.676.133 1.184.407 1.524.27.34.64.508 1.109.508.258 0 .48-.051.672-.153.191-.101.347-.242.465-.43.117-.179.203-.398.265-.652a3.97 3.97 0 00.09-.808zm0 0"/></symbol><symbol overflow="visible" id="v"><path d="M2.754-6.977v2.297H5.89v1.285H2.754V0H1.168v-8.297H6.07v1.32zm0 0"/></symbol><symbol overflow="visible" id="w"><path d="M2.418-6.45v4.204c-.004.355.062.621.195.797.133.183.332.273.598.27.258.003.504-.106.746-.321.234-.21.488-.5.758-.867V-6.45h1.55V0h-1.34l-.038-.953c-.137.168-.278.32-.414.453-.141.14-.29.254-.453.348a2.45 2.45 0 01-.532.218 2.928 2.928 0 01-.636.079 2.26 2.26 0 01-.868-.16 1.562 1.562 0 01-.62-.462 1.843 1.843 0 01-.372-.71 3.038 3.038 0 01-.12-.934V-6.45zm0 0"/></symbol><symbol overflow="visible" id="x"><path d="M4.73 0v-4.203c-.003-.703-.265-1.059-.789-1.059-.265 0-.515.106-.753.317-.239.21-.493.5-.758.863V0H.883v-6.45h1.34l.035.954c.129-.164.265-.313.41-.453.14-.133.297-.25.46-.344.165-.094.34-.164.532-.219.192-.047.406-.074.645-.078.324.004.61.059.86.164.241.11.448.262.616.457.164.2.29.438.371.711.082.281.121.59.125.93V0zm0 0"/></symbol><symbol overflow="visible" id="y"><path d="M6.203-.063c-.285.063-.566.11-.848.149-.28.035-.55.055-.804.059A4.208 4.208 0 013.457.012a1.784 1.784 0 01-.762-.407 1.574 1.574 0 01-.445-.695 3.176 3.176 0 01-.14-1.004v-3.148H.374V-6.45h1.734v-1.653l1.586-.41v2.063h2.508v1.207H3.695v3.031c-.004.375.082.652.254.836.168.191.45.285.848.281.254.004.5-.015.742-.062.238-.04.461-.09.664-.145zm0 0"/></symbol><symbol overflow="visible" id="z"><path d="M4.68-8.215c-.004.14-.032.274-.078.395-.055.125-.125.23-.211.32a.97.97 0 01-.325.219.92.92 0 01-.398.078.915.915 0 01-.402-.078.898.898 0 01-.325-.219.858.858 0 01-.214-.32.89.89 0 01-.075-.395.893.893 0 01.075-.39.94.94 0 01.214-.325.95.95 0 01.325-.218 1.12 1.12 0 01.402-.082 1.032 1.032 0 01.723.3c.086.094.156.203.21.325.047.125.075.253.079.39zM2.965-5.242H1.14V-6.45h3.41v5.242h1.86V0H.92v-1.207h2.044zm0 0"/></symbol><symbol overflow="visible" id="b"><path d="M.297 0l.976-4.668h.723l-.172.813c.309-.317.602-.547.875-.696.27-.144.551-.219.84-.222.375.003.668.105.887.308.21.207.32.48.324.82-.004.176-.043.45-.113.82L4.043 0h-.797l.621-2.957c.063-.285.094-.496.094-.637a.498.498 0 00-.16-.379c-.11-.093-.266-.14-.465-.144-.41.004-.773.152-1.09.441-.32.297-.55.797-.7 1.504L1.095 0zm0 0"/></symbol><symbol overflow="visible" id="C"><path d="M5.035-3.941A3.626 3.626 0 005-4.56a1.374 1.374 0 00-.152-.418.742.742 0 00-.258-.238.84.84 0 00-.348-.078c-.23.004-.469.098-.71.281-.247.192-.512.5-.802.93V0H1.14v-6.45h1.407l.055.942c.105-.164.222-.312.359-.445.129-.133.277-.246.441-.34.16-.094.34-.164.543-.219.196-.047.414-.074.657-.078.32.004.609.059.867.168.25.113.46.281.633.5.168.223.296.5.382.828.082.336.118.719.106 1.153zm0 0"/></symbol><symbol overflow="visible" id="D"><path d="M5.035 0L3.562-2.172 2.083 0H.211l2.418-3.25-2.293-3.2h1.887l1.445 2.122 1.43-2.121h1.738L4.613-3.262 6.957 0zm0 0"/></symbol><symbol overflow="visible" id="E"><path d="M5.434 0v-4.39a11.706 11.706 0 00-.016-.423 1.899 1.899 0 00-.05-.304.371.371 0 00-.11-.18.345.345 0 00-.2-.062c-.132.004-.261.093-.386.27-.133.179-.274.48-.43.905V0H2.914v-4.39a11.708 11.708 0 00-.016-.423 1.899 1.899 0 00-.05-.304.349.349 0 00-.114-.18.349.349 0 00-.203-.062c-.11.004-.234.093-.367.27-.14.179-.289.48-.45.905V0H.376v-6.45h1.148l.024.942c.094-.191.187-.355.281-.492.094-.133.192-.242.297-.332a1.21 1.21 0 01.34-.188c.12-.035.258-.054.41-.058.355.004.629.098.82.285.188.188.297.45.325.785.101-.191.199-.355.3-.492.094-.133.2-.242.309-.332.11-.082.226-.145.351-.188a1.68 1.68 0 01.415-.058c.468.004.816.168 1.043.492.222.332.335.816.335 1.457V0zm0 0"/></symbol><symbol overflow="visible" id="G"><path d="M1.414 1.227c.25.003.488-.012.711-.047.219-.04.41-.098.574-.18.16-.086.29-.191.387-.316a.796.796 0 00.14-.45.997.997 0 00-.054-.312 1.152 1.152 0 00-.137-.234 4.072 4.072 0 00-.176-.204 2.286 2.286 0 01-.175-.21.87.87 0 01-.137-.254 1.005 1.005 0 01-.05-.348c0-.129.019-.258.066-.383a1.005 1.005 0 01.531-.566c.129-.059.273-.09.441-.09.203 0 .39.05.559.144.164.098.304.227.418.387.113.164.199.348.261.559.059.21.09.43.09.656 0 .394-.074.762-.218 1.11-.145.343-.36.648-.645.906-.285.257-.645.46-1.074.613-.438.148-.942.222-1.512.226zm2.16-7.739c.16.004.309.032.45.09.136.059.257.14.363.242.097.106.176.227.238.367.055.141.086.29.09.442a1.3 1.3 0 01-.09.453c-.063.14-.14.258-.238.36a1.207 1.207 0 01-.364.242c-.14.062-.289.093-.449.09a.994.994 0 01-.449-.09 1.1 1.1 0 01-.36-.243 1.052 1.052 0 01-.245-.359 1.022 1.022 0 01-.09-.453c-.004-.152.027-.3.09-.441a1.124 1.124 0 01.605-.61 1.18 1.18 0 01.45-.09zm0 0"/></symbol><symbol overflow="visible" id="i"><path d="M6.5-3.512H1.3V-4.64h5.2zm0 2.418H1.3v-1.129h5.2zm0 0"/></symbol><symbol overflow="visible" id="j"><path d="M5.914 2.406C4.141 2.402 3.258 1.758 3.262.47v-2.117c-.004-.442-.38-.665-1.13-.668V-3.41c.75 0 1.126-.219 1.13-.66v-2.117c-.004-1.29.879-1.934 2.652-1.938v1.078c-1.02.004-1.527.277-1.523.82v2.145c-.004.504-.211.91-.621 1.219.41.34.617.75.62 1.226V.508c-.003.543.505.816 1.524.82zm0 0"/></symbol><symbol overflow="visible" id="n"><path d="M5.668-2.316c-.383.003-.664.058-.852.168a.54.54 0 00-.277.5V.469c-.004 1.289-.887 1.933-2.652 1.937V1.328c1.015-.004 1.523-.277 1.523-.82v-2.145c0-.476.207-.886.621-1.226a1.4 1.4 0 01-.468-.54 1.522 1.522 0 01-.153-.679v-2.145c0-.289-.12-.5-.363-.628-.242-.125-.629-.188-1.16-.192v-1.078c.894.004 1.558.164 1.996.48.433.32.652.805.656 1.457v2.118c-.004.23.086.398.274.508.164.101.449.152.855.152zm0 0"/></symbol><symbol overflow="visible" id="q"><path d="M6.45-7.828L2.354 1.14 1.352.69l4.093-8.976zm0 0"/></symbol><symbol overflow="visible" id="A"><path d="M6.07 2.445H3.262v-10.53H6.07v1.089H4.39v8.348h1.68zm0 0"/></symbol><symbol overflow="visible" id="F"><path d="M4.54 2.445H1.726V1.352H3.41v-8.348H1.727v-1.09h2.812zm0 0"/></symbol><symbol overflow="visible" id="H"><path d="M6.5-2.297H4.457v2.102H3.328v-2.102H1.301v-1.137h2.027v-2.09h1.129v2.09H6.5zm0 0"/></symbol><symbol overflow="visible" id="I"><path d="M5.793-3.867l-1.91-3.34h1.082L7.3-3.867 4.965-.527H3.89zm-2.832 0l-1.938-3.34h1.11l2.297 3.34-2.297 3.34h-1.11zm0 0"/></symbol><symbol overflow="visible" id="J"><path d="M5.773 9.766h-.382c-.684-1.57-1.2-3.407-1.54-5.504-.347-2.106-.519-4.41-.515-6.926-.004-2.918.18-5.352.547-7.297.363-1.941.867-3.664 1.508-5.172h.382c-.593 1.442-1.058 3.207-1.402 5.301-.348 2.094-.523 4.477-.52 7.145-.003 2.613.16 4.945.485 7.007.32 2.059.797 3.875 1.437 5.446zm0 0"/></symbol><symbol overflow="visible" id="O"><path d="M3.86-2.664C3.854-.13 3.683 2.184 3.34 4.28c-.348 2.09-.86 3.918-1.527 5.485H1.43c.629-1.598 1.105-3.43 1.43-5.5.32-2.07.48-4.387.484-6.954a50.133 50.133 0 00-.446-6.609c-.3-2.168-.789-4.113-1.468-5.836h.383c.703 1.613 1.222 3.477 1.554 5.594.324 2.121.488 4.414.492 6.875zm0 0"/></symbol><symbol overflow="visible" id="K"><path d="M5.844 0H1.03v-.95H3v-5.59l-1.836.997L.79-6.41l2.438-1.285h.906V-.95h1.71zm0 0"/></symbol><symbol overflow="visible" id="L"><path d="M5.906 0H.86v-.914l1.985-1.969c.32-.32.586-.597.789-.832.203-.234.36-.445.472-.64a1.91 1.91 0 00.23-.551c.04-.168.06-.356.06-.555 0-.187-.028-.363-.079-.535a1.371 1.371 0 00-.234-.45 1.087 1.087 0 00-.41-.304 1.622 1.622 0 00-.602-.11 1.89 1.89 0 00-.882.215c-.27.145-.512.332-.735.563l-.562-.676c.289-.297.62-.543.996-.73.375-.184.812-.274 1.316-.278.34.004.649.055.93.153.277.105.52.25.726.441.2.195.356.43.47.703.109.278.167.59.167.938 0 .293-.039.566-.117.812-.078.254-.2.504-.356.75-.16.25-.359.504-.597.77-.242.265-.524.558-.852.87L2.188-.972h3.718zm0 0"/></symbol><symbol overflow="visible" id="M"><path d="M5.758-2.328a2.31 2.31 0 01-.203.95 2.156 2.156 0 01-.614.773 2.98 2.98 0 01-1.03.523 5.057 5.057 0 01-1.45.187A10.23 10.23 0 01.96 0v-.914c.242.043.496.078.766.098.27.027.546.039.828.035a3.8 3.8 0 00.98-.102 1.88 1.88 0 00.668-.293c.168-.129.293-.285.375-.469.074-.183.113-.39.117-.62a1.156 1.156 0 00-.14-.555 1.27 1.27 0 00-.399-.39 2.154 2.154 0 00-.61-.235 3.454 3.454 0 00-.773-.082h-.875v-.84h.883c.23.004.442-.028.63-.09a1.46 1.46 0 00.487-.258c.133-.113.239-.254.313-.418.07-.164.105-.351.11-.57-.005-.406-.13-.707-.376-.895-.254-.187-.62-.28-1.101-.28a4.31 4.31 0 00-.801.077c-.277.051-.57.125-.879.227v-.89c.133-.048.274-.087.426-.126.148-.035.3-.066.45-.094.147-.023.296-.043.448-.058a4.152 4.152 0 011.5.11c.309.089.567.214.774.378.207.164.363.363.468.598.106.234.16.5.16.789 0 .441-.113.808-.335 1.101a2.33 2.33 0 01-.922.711 2.13 2.13 0 011.105.547 1.63 1.63 0 01.52 1.18zm0 0"/></symbol><symbol overflow="visible" id="N"><path d="M6.29-1.695H4.98V0H3.937v-1.695H.25v-.895l3.266-5.066H4.98v5.066h1.31zM3.936-6.672L1.273-2.59h2.665zm0 0"/></symbol><symbol overflow="visible" id="S"><path d="M5.594 2.406c-.692-.004-1.2-.14-1.524-.414-.324-.273-.484-.676-.484-1.199v-2.441a.892.892 0 00-.262-.657c-.176-.168-.465-.273-.867-.312v-.488c.36-.036.64-.13.836-.282.195-.148.293-.375.293-.683v-2.442c0-.523.156-.922.469-1.191.312-.266.824-.406 1.539-.422v.445c-.473.004-.844.094-1.117.266-.274.18-.41.465-.407.863v2.469c-.004.281-.09.523-.258.723a1.938 1.938 0 01-.664.496c.274.144.497.316.668.515.164.2.25.438.254.711V.832c-.004.39.137.676.422.86.281.175.649.265 1.102.269zm0 0"/></symbol><symbol overflow="visible" id="W"><path d="M5.344-2.617a1.413 1.413 0 00-.79.262c-.23.164-.343.402-.34.707V.793c-.003.566-.175.98-.523 1.234-.347.25-.843.375-1.48.38V1.96c.539-.016.93-.121 1.168-.313.234-.195.351-.464.355-.816v-2.469c-.004-.254.07-.48.22-.675.144-.192.378-.376.698-.551-.312-.149-.547-.328-.695-.54a1.091 1.091 0 01-.223-.679v-2.469c-.004-.36-.125-.633-.37-.82-.247-.188-.634-.29-1.153-.309v-.445c.562.004 1.039.125 1.426.367.383.242.574.66.578 1.246v2.442c-.004.304.101.535.308.695.204.16.477.25.82.27zm0 0"/></symbol><symbol overflow="visible" id="T"><path d="M6.398 0H.934v-.992l2.144-2.133c.348-.344.633-.645.856-.898.218-.254.39-.485.515-.696a2.4 2.4 0 00.246-.593 3.15 3.15 0 00.067-.602 2.23 2.23 0 00-.086-.582 1.4 1.4 0 00-.254-.484 1.23 1.23 0 00-.442-.332 1.75 1.75 0 00-.652-.122 2.08 2.08 0 00-.96.235c-.29.16-.555.363-.794.61l-.61-.731c.31-.325.669-.59 1.083-.79.406-.199.883-.296 1.426-.3.363.004.699.058 1.004.164.304.113.566.27.785.476.218.211.386.465.511.762.118.301.18.64.18 1.016 0 .32-.043.613-.129.883a3.456 3.456 0 01-.383.808c-.171.27-.386.551-.644.836-.262.29-.57.602-.926.945L2.367-1.055h4.031zm0 0"/></symbol><symbol overflow="visible" id="U"><path d="M1.512 1.3a2.42 2.42 0 00.629-.058c.199-.047.379-.117.535-.203.152-.094.277-.207.37-.34a.814.814 0 00.142-.465.875.875 0 00-.094-.43A2.451 2.451 0 002.887-.5a1.754 1.754 0 01-.207-.297c-.063-.105-.09-.246-.09-.43a.82.82 0 01.05-.277.744.744 0 01.157-.266.824.824 0 01.265-.195 1.01 1.01 0 01.383-.078c.149.004.29.035.43.094.133.062.254.156.36.281.1.129.183.29.25.477.058.195.09.418.093.671A2.79 2.79 0 014.383.492c-.133.32-.328.606-.578.86a2.935 2.935 0 01-.957.597c-.383.145-.828.219-1.336.223zm0 0"/></symbol><symbol overflow="visible" id="V"><path d="M6.238-2.52c-.004.368-.078.711-.222 1.028-.149.32-.371.597-.664.836-.301.242-.672.433-1.118.566-.449.137-.972.2-1.57.203a14.342 14.342 0 01-.887-.031C1.512.059 1.266.032 1.04 0v-.992c.258.05.535.086.832.11.29.027.59.038.895.038.414 0 .77-.035 1.066-.11.293-.073.531-.179.719-.32.183-.136.32-.308.406-.507.086-.2.129-.422.129-.676 0-.227-.05-.426-.152-.598a1.345 1.345 0 00-.43-.422 2.476 2.476 0 00-.66-.257 4.049 4.049 0 00-.84-.086h-.95v-.91h.962c.246.003.472-.032.68-.098.202-.063.378-.156.527-.281.144-.121.257-.27.34-.454a1.65 1.65 0 00.117-.613c-.004-.445-.14-.77-.407-.972-.273-.204-.671-.305-1.195-.305-.281 0-.566.027-.863.082-.297.055-.617.14-.953.25v-.965c.14-.05.297-.094.46-.137a6.843 6.843 0 01.973-.164c.16-.011.313-.02.465-.023.438.004.824.05 1.16.144.332.098.614.235.84.407.223.18.39.394.508.648.11.258.168.543.172.856-.004.476-.125.875-.367 1.195a2.46 2.46 0 01-.996.77c.21.035.421.1.632.199.211.105.399.234.567.39a1.744 1.744 0 01.563 1.281zm0 0"/></symbol><symbol overflow="visible" id="X"><path d="M6.813-1.836H5.394V0h-1.13v-1.836H.274v-.969L3.81-8.297h1.586v5.492h1.418zM4.265-7.23L1.379-2.805h2.887zm0 0"/></symbol><symbol overflow="visible" id="Y"><path d="M6.188-2.652c0 .41-.09.785-.266 1.12-.18.345-.426.634-.734.876-.313.242-.68.433-1.102.566-.426.137-.879.2-1.367.203L2.32.102 1.898.078a7.937 7.937 0 00-.41-.035C1.355.027 1.234.016 1.128 0v-1.004c.227.059.49.098.786.121.293.028.59.04.89.04.337 0 .641-.04.915-.122.27-.078.5-.191.691-.344.188-.148.332-.332.438-.546.097-.211.148-.454.152-.723-.004-.516-.188-.89-.555-1.125-.37-.235-.902-.352-1.593-.352H1.277v-4.242h4.47v.965h-3.43V-5h.722c.395.004.781.04 1.16.11.375.074.711.199 1.008.374.293.184.531.426.711.723.18.305.27.684.27 1.14zm0 0"/></symbol></defs><g fill="#999"><use xlink:href="#a" x="4.5" y="12"/><use xlink:href="#b" x="7.001" y="12"/><use xlink:href="#c" x="12.007" y="12"/></g><use xlink:href="#d" x="14.508" y="12" fill="#999" fill-opacity=".32"/><g fill="#999"><use xlink:href="#e" x="21.575" y="12"/><use xlink:href="#f" x="24.076" y="12"/><use xlink:href="#g" x="26.577" y="12"/></g><use xlink:href="#h" x="38.833" y="12"/><use xlink:href="#i" x="49.833" y="12"/><use xlink:href="#j" x="61.833" y="12"/><use xlink:href="#j" x="69.833" y="12"/><use xlink:href="#k" x="77.833" y="12"/><use xlink:href="#l" x="84.833" y="12"/><use xlink:href="#m" x="95.833" y="12"/><use xlink:href="#n" x="102.833" y="12"/><use xlink:href="#l" x="110.833" y="12"/><use xlink:href="#j" x="121.833" y="12"/><use xlink:href="#o" x="129.833" y="12"/><use xlink:href="#l" x="136.833" y="12"/><use xlink:href="#p" x="147.833" y="12"/><use xlink:href="#n" x="154.833" y="12"/><use xlink:href="#n" x="162.833" y="12"/><use xlink:href="#q" x="174.833" y="12"/><use xlink:href="#q" x="182.635" y="12"/><use xlink:href="#r" x="194.833" y="12"/><use xlink:href="#s" x="201.98" y="12"/><use xlink:href="#t" x="209.128" y="12"/><use xlink:href="#u" x="216.275" y="12"/><use xlink:href="#v" x="223.423" y="12"/><use xlink:href="#w" x="230.57" y="12"/><use xlink:href="#x" x="237.718" y="12"/><use xlink:href="#s" x="244.865" y="12"/><use xlink:href="#y" x="252.013" y="12"/><use xlink:href="#z" x="259.16" y="12"/><use xlink:href="#u" x="266.308" y="12"/><use xlink:href="#x" x="273.455" y="12"/><use xlink:href="#A" x="280.833" y="12"/><use xlink:href="#B" x="288.833" y="12"/><use xlink:href="#h" x="295.98" y="12"/><use xlink:href="#y" x="303.128" y="12"/><use xlink:href="#C" x="310.275" y="12"/><use xlink:href="#z" x="317.423" y="12"/><use xlink:href="#D" x="324.57" y="12"/><use xlink:href="#v" x="331.718" y="12"/><use xlink:href="#u" x="338.865" y="12"/><use xlink:href="#C" x="346.013" y="12"/><use xlink:href="#E" x="353.16" y="12"/><use xlink:href="#F" x="359.833" y="12"/><use xlink:href="#G" x="367.833" y="12"/><use xlink:href="#h" x="38.833" y="31"/><use xlink:href="#H" x="48.833" y="31"/><use xlink:href="#k" x="59.833" y="31"/><use xlink:href="#I" x="22.833" y="61" fill="#ff8000"/><use xlink:href="#J" x="38.833" y="60"/><g><use xlink:href="#K" x="48.833" y="53.5"/></g><g><use xlink:href="#L" x="63.833" y="53.5"/></g><g><use xlink:href="#M" x="48.833" y="68.5"/></g><g><use xlink:href="#N" x="63.833" y="68.5"/></g><g><use xlink:href="#O" x="73.833" y="60"/></g><g fill="#999"><use xlink:href="#P" y="93"/><use xlink:href="#Q" x="7.001" y="93"/><use xlink:href="#R" x="12.007" y="93"/><use xlink:href="#c" x="14.508" y="93"/></g><g fill="#999" fill-opacity=".32"><use xlink:href="#d" x="17.009" y="93"/></g><g fill="#999"><use xlink:href="#e" x="24.076" y="93"/><use xlink:href="#g" x="26.577" y="93"/></g><g><use xlink:href="#S" x="38.833" y="93"/></g><g><use xlink:href="#S" x="46.833" y="93"/></g><g><use xlink:href="#T" x="54.833" y="93"/></g><g><use xlink:href="#U" x="61.833" y="93"/></g><g><use xlink:href="#V" x="72.833" y="93"/></g><g><use xlink:href="#W" x="79.833" y="93"/></g><g><use xlink:href="#U" x="87.833" y="93"/></g><g><use xlink:href="#S" x="98.833" y="93"/></g><g><use xlink:href="#X" x="106.833" y="93"/></g><g><use xlink:href="#U" x="113.833" y="93"/></g><g><use xlink:href="#Y" x="124.833" y="93"/></g><g><use xlink:href="#W" x="131.833" y="93"/></g><g><use xlink:href="#W" x="139.833" y="93"/></g></svg>