<svg xmlns="http://www.w3.org/2000/svg" xmlns:xlink="http://www.w3.org/1999/xlink" width="632" height="80pt" viewBox="0 0 474 80"><defs><symbol overflow="visible" id="G"><path d="M4.875 0L2.496-3.227V0H.946v-8.969h1.55v5.25l2.254-2.73h1.934L4.07-3.512 6.898 0zm0 0"/></symbol><symbol overflow="visible" id="a"><path d="M4.723.207C3.922.203 3.18.059 2.5-.243A5.349 5.349 0 01.73-1.476l.868-1.007c.402.43.879.777 1.433 1.035a3.809 3.809 0 001.711.39c.746.004 1.332-.168 1.75-.511.418-.34.625-.79.63-1.348a1.75 1.75 0 00-.15-.738 1.703 1.703 0 00-.402-.52 3.224 3.224 0 00-.597-.39l-.746-.364-1.633-.715c-.27-.109-.54-.25-.817-.414a3.426 3.426 0 01-.746-.59 2.691 2.691 0 01-.539-.824 2.647 2.647 0 01-.207-1.105 2.604 2.604 0 01.27-1.195c.175-.372.425-.692.746-.965.316-.27.691-.48 1.129-.633.43-.149.91-.223 1.433-.227.68.004 1.309.133 1.89.391a4.939 4.939 0 011.477 1.016l-.78.937a4.221 4.221 0 00-1.157-.789c-.422-.191-.898-.285-1.43-.289-.64.004-1.156.152-1.539.445-.39.297-.582.703-.582 1.223 0 .281.055.516.164.703.11.191.258.36.446.504.183.144.382.273.605.383.219.113.445.21.68.3l1.613.696c.324.144.633.305.922.48.289.18.535.387.746.625.203.239.367.516.492.832.117.32.18.688.184 1.102a3.147 3.147 0 01-.27 1.27c-.18.394-.437.738-.77 1.03-.34.298-.745.532-1.218.696-.477.168-1.012.246-1.613.25zm0 0"/></symbol><symbol overflow="visible" id="c"><path d="M1.426 0v-8.438h1.18l.12 1.215h.051a5.79 5.79 0 011.207-1.015c.434-.274.903-.41 1.414-.41.645 0 1.153.144 1.52.425.363.29.633.684.809 1.192a7.06 7.06 0 011.328-1.172 2.546 2.546 0 011.449-.445c.867 0 1.512.28 1.937.835.418.56.63 1.38.633 2.465V0h-1.422v-5.156c-.004-.797-.132-1.371-.382-1.727-.258-.351-.649-.527-1.18-.531-.64.004-1.348.437-2.121 1.3V0H6.547v-5.156c-.004-.797-.129-1.371-.383-1.727-.258-.351-.66-.527-1.2-.531-.64.004-1.343.437-2.116 1.3V0zm0 0"/></symbol><symbol overflow="visible" id="r"><path d="M1.563 0v-11.39h3.386c.574 0 1.102.054 1.586.156.477.109.89.27 1.235.488.34.219.605.508.796.86.192.355.286.777.29 1.273a2.902 2.902 0 01-.426 1.539c-.285.46-.7.773-1.242.945v.07c.69.13 1.253.418 1.683.868.43.453.645 1.074.645 1.859 0 .559-.106 1.043-.313 1.457-.21.418-.508.766-.887 1.043-.382.277-.84.488-1.37.625A6.88 6.88 0 015.19 0zm1.44-6.547h1.684c.973.004 1.672-.164 2.102-.504.426-.332.64-.789.645-1.37-.004-.657-.227-1.126-.672-1.407-.446-.274-1.114-.414-2.004-.418H3.004zm0 5.402h1.981c.98.004 1.743-.18 2.29-.546.538-.364.812-.93.816-1.696-.004-.703-.27-1.218-.797-1.55-.535-.329-1.305-.493-2.309-.497h-1.98zm0 0"/></symbol><symbol overflow="visible" id="s"><path d="M4.844.207a4.25 4.25 0 01-1.59-.3 3.758 3.758 0 01-1.281-.868 3.944 3.944 0 01-.864-1.383C.9-2.887.797-3.504.797-4.204c0-.687.105-1.308.32-1.862.215-.547.5-1.016.852-1.399a3.662 3.662 0 011.207-.879 3.407 3.407 0 011.41-.304 3.51 3.51 0 011.43.28c.421.188.773.454 1.058.798.281.347.5.765.653 1.25.148.488.222 1.03.226 1.633l-.012.445c-.007.144-.02.27-.039.37H2.207c.055.903.336 1.618.84 2.145.504.528 1.16.79 1.973.79.402 0 .773-.06 1.117-.18.34-.121.668-.281.984-.48l.5.937a6.853 6.853 0 01-1.234.61c-.453.171-.969.253-1.543.257zM2.187-4.898h4.516c0-.856-.183-1.504-.547-1.954-.367-.441-.879-.664-1.539-.668-.3.004-.59.063-.86.176-.273.117-.519.285-.737.512a2.81 2.81 0 00-.547.824 3.67 3.67 0 00-.285 1.11zm0 0"/></symbol><symbol overflow="visible" id="t"><path d="M2.934.207C2.387.203 2 .047 1.77-.277c-.23-.32-.348-.797-.344-1.426v-10.66h1.422v10.765c0 .235.039.399.12.489a.349.349 0 00.278.136h.129a.79.79 0 00.184-.035L3.75.07a1.246 1.246 0 01-.328.102 3.89 3.89 0 01-.488.035zm0 0"/></symbol><symbol overflow="visible" id="e"><path d="M4.11.18a3.665 3.665 0 01-1.352-.254 2.913 2.913 0 01-1.086-.742 3.33 3.33 0 01-.719-1.2C.777-2.492.691-3.027.691-3.629c0-.61.094-1.152.286-1.629a3.74 3.74 0 01.761-1.207 3.165 3.165 0 011.117-.75c.422-.164.872-.25 1.344-.254.48.004.89.09 1.23.254.34.172.641.371.9.602l-.63.808a3.263 3.263 0 00-.668-.465 1.811 1.811 0 00-.785-.18c-.332.005-.637.071-.918.204a1.97 1.97 0 00-.719.574c-.203.25-.359.55-.472.895-.117.347-.176.73-.172 1.148-.004.422.05.8.164 1.14.11.34.262.634.457.876.191.25.43.437.71.57.278.137.583.207.919.203.336.004.648-.07.937-.215.282-.144.54-.316.774-.52l.539.825c-.336.29-.7.52-1.098.684-.398.164-.82.242-1.258.246zm0 0"/></symbol><symbol overflow="visible" id="f"><path d="M2.91.18C2.297.176 1.79 0 1.387-.36.98-.714.777-1.226.78-1.89c-.004-.798.352-1.41 1.063-1.837.707-.421 1.843-.718 3.406-.894 0-.227-.023-.45-.07-.672a1.856 1.856 0 00-.23-.586 1.302 1.302 0 00-.458-.414c-.199-.102-.445-.152-.742-.156a3.066 3.066 0 00-1.184.242c-.37.164-.703.34-.992.535l-.48-.851A7.82 7.82 0 012.34-7.16a4.236 4.236 0 011.62-.309c.892.004 1.536.278 1.935.817.398.547.597 1.273.601 2.183V0h-1.02l-.105-.871h-.047A6.046 6.046 0 014.2-.125c-.402.203-.832.3-1.289.305zm.36-.989c.351 0 .68-.082.992-.246.304-.164.636-.406.988-.73V-3.81a12.23 12.23 0 00-1.54.286c-.417.113-.75.242-1.003.39-.258.153-.445.324-.555.516-.117.199-.172.41-.172.637 0 .421.125.722.375.902.25.18.555.27.915.27zm0 0"/></symbol><symbol overflow="visible" id="g"><path d="M1.23 0v-7.29h1.02l.105 1.052h.043c.348-.348.715-.64 1.102-.88.383-.23.832-.347 1.344-.35.77.003 1.332.241 1.687.718.356.48.535 1.191.535 2.129V0h-1.23v-4.453c0-.688-.113-1.184-.332-1.492-.223-.305-.57-.457-1.05-.461a1.841 1.841 0 00-1.005.285c-.293.191-.62.473-.988.84V0zm0 0"/></symbol><symbol overflow="visible" id="h"><path d="M3.691 3.36a5.891 5.891 0 01-1.23-.13 2.933 2.933 0 01-.953-.382 1.927 1.927 0 01-.617-.614 1.564 1.564 0 01-.215-.84C.672 1.083.77.786.96.509c.187-.281.445-.531.777-.762v-.062a1.346 1.346 0 01-.457-.457c-.129-.196-.191-.438-.187-.727a1.288 1.288 0 01.254-.809c.172-.23.351-.41.543-.543v-.058c-.243-.2-.461-.465-.653-.8-.199-.333-.297-.724-.293-1.165-.004-.398.07-.758.215-1.078.145-.32.34-.59.594-.817.246-.222.539-.398.879-.52a3.272 3.272 0 011.058-.179c.196.004.38.024.559.055.172.039.332.078.477.125h2.535v.945h-1.5c.164.172.308.387.426.645a2.2 2.2 0 01.171.855c-.004.39-.074.742-.21 1.055-.141.316-.329.582-.57.797a2.712 2.712 0 01-.849.504c-.328.12-.671.18-1.039.18-.18 0-.367-.02-.554-.067a2.413 2.413 0 01-.543-.191 1.843 1.843 0 00-.332.37.862.862 0 00-.133.5.682.682 0 00.27.571c.18.152.523.23 1.023.227h1.406c.852.003 1.488.14 1.914.414.422.277.633.714.637 1.324a2.05 2.05 0 01-.254.969c-.172.3-.418.566-.734.8-.325.227-.711.41-1.164.547-.454.133-.965.2-1.536.203zm0-6.497c.207.004.403-.035.59-.117.184-.078.348-.195.496-.344.141-.148.254-.328.336-.547a2.2 2.2 0 00.121-.73c-.004-.54-.152-.953-.449-1.25a1.529 1.529 0 00-1.094-.445c-.43.004-.796.152-1.097.445-.301.297-.45.71-.45 1.25 0 .273.04.52.122.73.078.22.191.399.336.547a1.491 1.491 0 001.09.461zm.18 5.64c.348-.003.664-.046.95-.128.284-.086.527-.195.73-.328.195-.14.351-.297.465-.473a1.15 1.15 0 00.164-.554C6.176.68 6.05.445 5.805.316 5.55.184 5.188.117 4.71.121H3.449a9.964 9.964 0 01-.457-.023A2.844 2.844 0 012.504 0c-.266.188-.453.387-.57.598a1.22 1.22 0 00-.18.632c-.004.391.183.7.562.93.372.227.891.34 1.555.344zm0 0"/></symbol><symbol overflow="visible" id="i"><path d="M1.23 0v-7.29h1.23V0zm.63-8.79a.875.875 0 01-.61-.222.714.714 0 01-.246-.574.704.704 0 01.246-.574.91.91 0 01.61-.219.921.921 0 01.605.219.744.744 0 01.25.574.756.756 0 01-.25.574.885.885 0 01-.606.223zm0 0"/></symbol><symbol overflow="visible" id="j"><path d="M2.805 0L.18-7.29h1.273l1.383 4.142c.11.363.219.722.336 1.078.11.363.223.718.34 1.066h.058c.106-.348.215-.703.328-1.066.11-.356.223-.715.332-1.078L5.61-7.29h1.214L4.246 0zm0 0"/></symbol><symbol overflow="visible" id="k"><path d="M4.184.18a3.677 3.677 0 01-1.372-.262 3.135 3.135 0 01-1.109-.75 3.41 3.41 0 01-.742-1.191C.78-2.493.69-3.027.69-3.63c0-.598.09-1.137.278-1.613.18-.473.426-.875.734-1.207.3-.328.649-.582 1.04-.758.39-.172.796-.258 1.218-.262a3.19 3.19 0 011.234.242c.364.165.668.391.918.688.242.3.43.664.563 1.082.125.422.191.89.195 1.406-.004.133-.008.258-.008.383-.008.125-.02.234-.039.324H1.906c.047.781.29 1.399.727 1.852.43.457 1 .683 1.703.683.348 0 .668-.05.965-.156a4.36 4.36 0 00.847-.414l.438.809c-.32.203-.676.379-1.066.527-.391.148-.836.219-1.336.223zM1.89-4.23h3.898c0-.739-.16-1.301-.473-1.688-.32-.383-.761-.574-1.328-.578a1.984 1.984 0 00-.742.152c-.234.102-.45.25-.637.442a2.35 2.35 0 00-.472.715c-.13.28-.211.597-.246.957zm0 0"/></symbol><symbol overflow="visible" id="l"><path d="M1.23 0v-7.29h1.02l.105 1.321h.043c.247-.457.551-.82.907-1.093a1.934 1.934 0 011.164-.407c.289.004.55.055.781.149l-.238 1.082a3.354 3.354 0 00-.332-.09 2.409 2.409 0 00-.375-.031c-.313.004-.637.129-.97.375-.335.254-.624.687-.874 1.304V0zm0 0"/></symbol><symbol overflow="visible" id="m"><path d="M3.137.18a4.051 4.051 0 01-1.489-.285 4.394 4.394 0 01-1.226-.72l.613-.823c.317.261.645.468.98.628.337.16.723.243 1.165.239.476.004.836-.106 1.078-.328.238-.22.36-.493.363-.813a.874.874 0 00-.152-.492 1.56 1.56 0 00-.383-.367 2.719 2.719 0 00-.531-.278 16.104 16.104 0 01-.602-.242 7.991 7.991 0 01-.777-.304 2.823 2.823 0 01-.7-.422 2.01 2.01 0 01-.5-.575 1.472 1.472 0 01-.195-.796 1.925 1.925 0 01.664-1.48c.215-.184.477-.329.79-.434a3.437 3.437 0 011.05-.157c.457.004.88.086 1.266.242a4.34 4.34 0 011 .582l-.586.782a4.245 4.245 0 00-.781-.465 2.203 2.203 0 00-.883-.184c-.465.004-.801.11-1.016.317-.215.215-.324.457-.32.734a.716.716 0 00.133.445c.09.125.207.235.359.329.148.093.324.18.52.253.195.079.398.157.609.235.258.101.52.207.785.316.266.113.5.25.711.41.207.168.383.371.52.61.132.242.199.531.203.867-.004.3-.063.582-.172.84a1.925 1.925 0 01-.512.691 2.465 2.465 0 01-.84.473c-.336.11-.718.168-1.144.172zm0 0"/></symbol><symbol overflow="visible" id="n"><path d="M3.36.18C2.577.176 2.011-.062 1.655-.54c-.355-.48-.531-1.19-.531-2.132v-4.617h1.246v4.453c-.004.691.102 1.191.32 1.492.211.309.559.461 1.043.457.375.004.711-.093 1.004-.289.29-.191.61-.504.961-.937V-7.29h1.23V0H5.91l-.105-1.14h-.043c-.344.402-.7.722-1.074.96-.375.239-.82.356-1.329.36zm0 0"/></symbol><symbol overflow="visible" id="o"><path d="M2.535.18C2.062.176 1.727.04 1.527-.238c-.199-.278-.297-.688-.297-1.23v-9.212h1.23v9.301c0 .203.036.344.106.422.07.082.149.121.239.117.035.004.07.004.11 0a.458.458 0 00.16-.031l.163.93a1.29 1.29 0 01-.285.09c-.11.015-.25.027-.418.03zm0 0"/></symbol><symbol overflow="visible" id="p"><path d="M3.523.18C3.133.176 2.81.117 2.543 0a1.648 1.648 0 01-.648-.492 1.845 1.845 0 01-.352-.766c-.07-.3-.102-.633-.102-.992v-4.035H.36v-.93L1.5-7.289l.148-2.04h1.036v2.04h1.964v1.004H2.684v4.05c0 .454.082.801.246 1.044.164.25.457.37.879.367a1.38 1.38 0 00.418-.059c.148-.039.285-.086.41-.137l.238.93a8.16 8.16 0 01-.652.188c-.239.05-.473.078-.7.082zm0 0"/></symbol><symbol overflow="visible" id="q"><path d="M4.066.18a3.38 3.38 0 01-1.285-.254 3.055 3.055 0 01-1.07-.742 3.43 3.43 0 01-.742-1.2C.78-2.492.69-3.027.69-3.629c0-.61.09-1.152.278-1.629.18-.469.43-.87.742-1.207a3.129 3.129 0 011.07-.75c.403-.164.832-.25 1.285-.254.446.004.872.09 1.278.254.406.172.761.422 1.074.75.309.336.559.738.746 1.207.184.477.277 1.02.277 1.63a4.45 4.45 0 01-.277 1.612 3.617 3.617 0 01-.746 1.2 3.105 3.105 0 01-1.074.742c-.407.168-.832.25-1.278.254zm0-1.02c.309.004.59-.066.852-.203.258-.133.48-.32.668-.57a2.81 2.81 0 00.426-.875c.101-.34.152-.719.152-1.14 0-.419-.05-.802-.152-1.15a2.968 2.968 0 00-.426-.894 1.945 1.945 0 00-.668-.574 1.9 1.9 0 00-1.707 0 1.876 1.876 0 00-.668.574 2.72 2.72 0 00-.43.895 3.95 3.95 0 00-.148 1.148c-.004.422.047.8.148 1.14.098.34.242.634.43.876.184.25.406.437.668.57.258.137.543.207.855.203zm0 0"/></symbol><symbol overflow="visible" id="u"><path d="M1.875-5.234a.843.843 0 01-.637-.262.874.874 0 01-.261-.668c-.004-.29.082-.52.261-.7a.873.873 0 01.637-.261c.238 0 .445.09.621.262.176.18.262.41.266.699a.922.922 0 01-.266.668.833.833 0 01-.621.262zm0 5.414a.888.888 0 01-.637-.262.863.863 0 01-.261-.668c-.004-.29.082-.52.261-.695a.861.861 0 01.637-.266c.238 0 .445.09.621.266.176.175.262.406.266.695-.004.273-.09.496-.266.668a.88.88 0 01-.621.262zm0 0"/></symbol><symbol overflow="visible" id="v"><path d="M.516 0l1.347-6.441h.856L1.375 0zm0 0"/></symbol><symbol overflow="visible" id="w"><path d="M.297 0l.976-4.668h.723l-.172.813c.309-.317.602-.547.875-.696.27-.144.551-.219.84-.222.375.003.668.105.887.308.21.207.32.48.324.82-.004.176-.043.45-.113.82L4.043 0h-.797l.621-2.957c.063-.285.094-.496.094-.637a.498.498 0 00-.16-.379c-.11-.093-.266-.14-.465-.144-.41.004-.773.152-1.09.441-.32.297-.55.797-.7 1.504L1.095 0zm0 0"/></symbol><symbol overflow="visible" id="x"><path d="M.059 1.762L1.75-6.441h1.77l-.13.609h-.96L.973 1.152h.968l-.125.61zm0 0"/></symbol><symbol overflow="visible" id="z"><path d="M1.23 1.762H-.527l.129-.61H.57l1.461-6.984h-.969l.13-.61H2.96zm0 0"/></symbol><symbol overflow="visible" id="A"><path d="M1.3-3.766l.188-.902h.899l-.184.902zM.517 0l.187-.902h.902L1.41 0zm0 0"/></symbol><symbol overflow="visible" id="B"><path d="M5.063-3.79H.809v-.737h4.253zm0 1.958H.809v-.738h4.253zm0 0"/></symbol><symbol overflow="visible" id="ag"><path d="M.82-2.7c0-1.144.332-2.073.996-2.784.664-.711 1.47-1.067 2.414-1.067.805 0 1.457.262 1.965.785.5.524.754 1.227.758 2.102a4.12 4.12 0 01-.383 1.742c-.195.402-.433.75-.722 1.04-.29.292-.602.519-.93.675-.445.21-.91.312-1.398.316a2.82 2.82 0 01-1.41-.367 2.403 2.403 0 01-.962-1.031A3.13 3.13 0 01.82-2.7zm.852.044c-.004.383.074.73.234 1.047.153.316.387.562.7.742.308.18.636.27.98.265.328.004.64-.074.945-.234.297-.152.567-.371.801-.652a3.23 3.23 0 00.559-1.035c.132-.407.203-.809.203-1.207 0-.641-.18-1.153-.54-1.536a1.764 1.764 0 00-1.327-.57c-.676 0-1.27.29-1.782.863-.52.578-.777 1.352-.773 2.317zm0 0"/></symbol><symbol overflow="visible" id="ah"><path d="M3.484-.844c-.562.633-1.136.95-1.718.95-.364 0-.653-.102-.871-.31A.996.996 0 01.562-.96c0-.195.047-.531.149-1.012l.562-2.695h.797l-.625 2.984a2.646 2.646 0 00-.078.582.506.506 0 00.16.41c.106.098.262.149.473.145.219.004.438-.05.648-.16.211-.106.395-.25.551-.438.156-.18.281-.398.38-.656.058-.156.132-.441.222-.847l.422-2.02h.797L4.043 0h-.734zm0 0"/></symbol><symbol overflow="visible" id="ai"><path d="M2.156-.645l-.129.649c-.191.047-.379.07-.554.074C1.153.074.903 0 .715-.152a.592.592 0 01-.211-.48c0-.102.039-.337.117-.708l.567-2.71h-.63l.13-.618h.625l.242-1.144.91-.551-.356 1.695h.782l-.133.617H1.98l-.539 2.578c-.07.332-.105.528-.101.59-.004.098.023.168.082.215.05.05.14.078.266.074.175.004.332-.015.468-.05zm0 0"/></symbol><symbol overflow="visible" id="y"><path d="M5.348-2.547c-.086.25-.211.485-.375.7-.168.218-.36.406-.575.562-.214.164-.445.289-.691.375-.25.094-.5.137-.746.137-.258 0-.477-.043-.664-.133a1.04 1.04 0 01-.434-.371 1.132 1.132 0 01-.183-.563c-.02-.219.015-.453.105-.707.082-.254.207-.488.375-.707a2.742 2.742 0 011.254-.937c.246-.086.496-.133.754-.137.246.004.465.05.652.14.184.094.328.22.438.38.101.16.164.347.187.562.016.219-.015.453-.097.7zm0 0"/></symbol><symbol overflow="visible" id="C"><path d="M6.477-2.508c-.004.453-.086.848-.254 1.184a2.224 2.224 0 01-.703.828c-.301.219-.66.379-1.07.484a5.955 5.955 0 01-1.36.157A11.89 11.89 0 011.828.066a7.204 7.204 0 01-1.207-.25v-1.543c.195.07.399.133.61.192.21.062.421.117.636.156.215.047.43.082.64.106.212.027.415.039.618.035.29.004.54-.024.75-.075.203-.05.375-.12.508-.21a.796.796 0 00.289-.317c.055-.12.086-.254.09-.406a.82.82 0 00-.176-.512 1.758 1.758 0 00-.461-.363c-.191-.106-.41-.2-.652-.285a15.667 15.667 0 01-.743-.274c-.25-.097-.5-.207-.742-.332a2.488 2.488 0 01-.648-.457 2.057 2.057 0 01-.461-.648c-.117-.25-.176-.555-.176-.914 0-.32.059-.63.176-.926.117-.29.3-.543.558-.762.25-.215.579-.39.981-.523.394-.13.875-.195 1.441-.195.16 0 .332.007.516.023a10.584 10.584 0 011.043.14c.16.032.309.067.45.098v1.43c-.141-.047-.29-.094-.446-.14-.164-.04-.328-.079-.5-.11a7.916 7.916 0 00-.52-.074 7.78 7.78 0 00-.492-.028 3.421 3.421 0 00-.7.067c-.19.047-.347.11-.468.187a.668.668 0 00-.265.29.761.761 0 00-.082.378.606.606 0 00.171.45c.118.124.27.234.465.335.188.102.406.196.653.278.242.09.492.183.75.281.253.102.503.215.746.34.242.129.46.281.656.46.191.184.344.4.465.645.113.25.172.543.176.88zm0 0"/></symbol><symbol overflow="visible" id="D"><path d="M2.418-6.45v4.204c-.004.355.062.621.195.797.133.183.332.273.598.27.258.003.504-.106.746-.321.234-.21.488-.5.758-.867V-6.45h1.55V0h-1.34l-.038-.953c-.137.168-.278.32-.414.453-.141.14-.29.254-.453.348a2.45 2.45 0 01-.532.218 2.928 2.928 0 01-.636.079 2.26 2.26 0 01-.868-.16 1.562 1.562 0 01-.62-.462 1.843 1.843 0 01-.372-.71 3.038 3.038 0 01-.12-.934V-6.45zm0 0"/></symbol><symbol overflow="visible" id="E"><path d="M5.434 0v-4.39a11.706 11.706 0 00-.016-.423 1.899 1.899 0 00-.05-.304.371.371 0 00-.11-.18.345.345 0 00-.2-.062c-.132.004-.261.093-.386.27-.133.179-.274.48-.43.905V0H2.914v-4.39a11.708 11.708 0 00-.016-.423 1.899 1.899 0 00-.05-.304.349.349 0 00-.114-.18.349.349 0 00-.203-.062c-.11.004-.234.093-.367.27-.14.179-.289.48-.45.905V0H.376v-6.45h1.148l.024.942c.094-.191.187-.355.281-.492.094-.133.192-.242.297-.332a1.21 1.21 0 01.34-.188c.12-.035.258-.054.41-.058.355.004.629.098.82.285.188.188.297.45.325.785.101-.191.199-.355.3-.492.094-.133.2-.242.309-.332.11-.082.226-.145.351-.188a1.68 1.68 0 01.415-.058c.468.004.816.168 1.043.492.222.332.335.816.335 1.457V0zm0 0"/></symbol><symbol overflow="visible" id="b"><path d="M3.89.207C2.985.203 2.325-.07 1.919-.625c-.414-.55-.617-1.371-.617-2.465v-5.348h1.441v5.157c0 .8.121 1.379.371 1.73.246.356.653.531 1.211.528a1.99 1.99 0 001.164-.34c.332-.223.703-.586 1.11-1.086v-5.989h1.425V0H6.84l-.121-1.32h-.051c-.395.468-.809.84-1.242 1.113-.438.277-.95.41-1.535.414zm0 0"/></symbol><symbol overflow="visible" id="K"><path d="M1.34 1.227c.25.003.484-.012.707-.047.219-.04.41-.098.574-.18.16-.086.29-.191.387-.316a.796.796 0 00.14-.45.896.896 0 00-.054-.312 1.366 1.366 0 00-.137-.234l-.176-.204a1.763 1.763 0 01-.172-.21.787.787 0 01-.136-.254.845.845 0 01-.055-.348.937.937 0 01.07-.383.888.888 0 01.203-.332.949.949 0 01.325-.234c.129-.059.277-.09.445-.09.203 0 .387.05.555.144.164.098.304.227.421.387.11.164.196.348.258.559.055.21.086.43.09.656A3 3 0 014.57.489a2.549 2.549 0 01-.648.906c-.29.257-.645.46-1.074.613-.43.148-.934.222-1.508.226zm0 0"/></symbol><symbol overflow="visible" id="M"><path d="M6.813-4.184a7.217 7.217 0 01-.223 1.832c-.152.54-.371.993-.652 1.36-.29.375-.637.656-1.047.847-.41.192-.88.286-1.407.29a3.39 3.39 0 01-1.261-.239 2.45 2.45 0 01-1-.758C.94-1.195.723-1.637.57-2.176.41-2.71.332-3.356.336-4.106a6.58 6.58 0 01.226-1.828c.149-.535.364-.988.649-1.363a2.795 2.795 0 011.047-.848 3.275 3.275 0 011.41-.293c.457 0 .875.083 1.262.243.383.164.715.418.992.758.277.343.496.78.652 1.32.156.539.235 1.183.239 1.933zm-4.915.028v.238c0 .074.004.148.012.223l3.11-2.246c-.153-.418-.348-.727-.586-.93-.247-.2-.532-.3-.86-.3-.238 0-.46.062-.66.179a1.58 1.58 0 00-.531.554c-.153.254-.27.567-.356.942a6.086 6.086 0 00-.129 1.34zm3.352.023c0-.07-.004-.144-.008-.219-.004-.07-.004-.14-.004-.21L2.145-2.329c.132.414.32.719.57.914.242.203.531.3.86.297.234.004.452-.059.663-.184.203-.12.383-.304.532-.554a3.18 3.18 0 00.351-.938 6.11 6.11 0 00.129-1.34zm0 0"/></symbol><symbol overflow="visible" id="N"><path d="M.953-7.02v-1.277h5.242v1.277H4.367v5.73h1.828V0H.953v-1.29h1.828v-5.73zm0 0"/></symbol><symbol overflow="visible" id="O"><path d="M4.73 0v-4.203c-.003-.703-.265-1.059-.789-1.059-.265 0-.515.106-.753.317-.239.21-.493.5-.758.863V0H.883v-6.45h1.34l.035.954c.129-.164.265-.313.41-.453.14-.133.297-.25.46-.344.165-.094.34-.164.532-.219.192-.047.406-.074.645-.078.324.004.61.059.86.164.241.11.448.262.616.457.164.2.29.438.371.711.082.281.121.59.125.93V0zm0 0"/></symbol><symbol overflow="visible" id="P"><path d="M6.672-7.656a6.42 6.42 0 00-.664-.145 5.235 5.235 0 00-.785-.062c-.184 0-.352.027-.508.074-.16.05-.297.125-.406.23a1.044 1.044 0 00-.27.403c-.07.164-.101.36-.098.593v1.04h2.536v1.207H3.94V0H2.38v-4.316H.508v-1.207h1.87V-6.5c0-.453.067-.848.2-1.176.133-.328.32-.594.567-.804.242-.207.535-.364.878-.461.34-.098.723-.145 1.149-.149.277.004.543.02.797.055.25.039.484.082.703.129zm0 0"/></symbol><symbol overflow="visible" id="Q"><path d="M4.68-8.215c-.004.14-.032.274-.078.395-.055.125-.125.23-.211.32a.97.97 0 01-.325.219.92.92 0 01-.398.078.915.915 0 01-.402-.078.898.898 0 01-.325-.219.858.858 0 01-.214-.32.89.89 0 01-.075-.395.893.893 0 01.075-.39.94.94 0 01.214-.325.95.95 0 01.325-.218 1.12 1.12 0 01.402-.082 1.032 1.032 0 01.723.3c.086.094.156.203.21.325.047.125.075.253.079.39zM2.965-5.242H1.14V-6.45h3.41v5.242h1.86V0H.92v-1.207h2.044zm0 0"/></symbol><symbol overflow="visible" id="R"><path d="M6.203-.063c-.285.063-.566.11-.848.149-.28.035-.55.055-.804.059A4.208 4.208 0 013.457.012a1.784 1.784 0 01-.762-.407 1.574 1.574 0 01-.445-.695 3.176 3.176 0 01-.14-1.004v-3.148H.374V-6.45h1.734v-1.653l1.586-.41v2.063h2.508v1.207H3.695v3.031c-.004.375.082.652.254.836.168.191.45.285.848.281.254.004.5-.015.742-.062.238-.04.461-.09.664-.145zm0 0"/></symbol><symbol overflow="visible" id="S"><path d="M4.762-.703C4.535-.148 4.3.34 4.059.766c-.247.418-.512.77-.801 1.054a3.13 3.13 0 01-.977.633c-.36.137-.758.207-1.203.211-.105-.004-.223-.008-.344-.016a6.524 6.524 0 01-.386-.046V1.289l.175.027.204.024c.07.004.14.008.218.015.07 0 .14.004.211.008.172-.004.336-.039.492-.101.149-.07.29-.164.422-.282.125-.125.243-.27.352-.433.101-.172.195-.352.281-.547L.145-6.45H1.87l1.34 3.657.402 1.18.39-1.13L5.36-6.448h1.66zm0 0"/></symbol><symbol overflow="visible" id="U"><path d="M5.395 0l-.457-1.637H2.042L1.574 0H.024L2.48-8.297h2.184L7.121 0zM3.512-6.773L2.418-2.914H4.59zm0 0"/></symbol><symbol overflow="visible" id="V"><path d="M6.203-1.898c-.004.37-.086.687-.246.945a1.969 1.969 0 01-.648.633c-.27.164-.575.277-.914.351a5.5 5.5 0 01-1.043.114A13.554 13.554 0 012.07.078 8.569 8.569 0 01.992-.113v-1.399c.39.168.79.29 1.188.364.394.074.765.113 1.12.109.403.004.708-.063.91-.195.2-.13.302-.297.302-.504a.592.592 0 00-.063-.266.793.793 0 00-.238-.23 3.332 3.332 0 00-.492-.23 20.996 20.996 0 00-.832-.266 4.66 4.66 0 01-.832-.301 1.991 1.991 0 01-.594-.395 1.376 1.376 0 01-.352-.531 1.766 1.766 0 01-.117-.707 1.54 1.54 0 01.176-.742c.113-.23.289-.434.527-.614.235-.171.532-.312.883-.418a4.77 4.77 0 011.23-.152 9.49 9.49 0 011.079.067c.312.046.59.09.832.136v1.266a6.983 6.983 0 00-1.04-.25 7.338 7.338 0 00-.96-.074c-.32.004-.574.058-.766.172-.195.117-.293.277-.289.476a.467.467 0 00.059.258c.035.078.109.152.226.223.11.074.266.148.469.226.195.078.46.164.797.254.367.11.68.223.937.344.25.12.457.258.614.41.156.152.265.328.336.52.062.195.097.414.101.664zm0 0"/></symbol><symbol overflow="visible" id="W"><path d="M6.684-3.34c-.004.594-.086 1.11-.25 1.54a2.93 2.93 0 01-.7 1.073c-.3.29-.652.504-1.054.637a4.282 4.282 0 01-1.813.172A4.653 4.653 0 012.43 0v2.52H.883v-8.97h1.34l.035.954c.129-.164.265-.313.41-.453.14-.133.297-.25.46-.344.165-.094.34-.164.532-.219.192-.047.406-.074.645-.078a2.3 2.3 0 011.015.23c.297.157.543.372.746.65.196.284.348.624.457 1.022.102.403.157.852.16 1.348zm-1.625.067a4.968 4.968 0 00-.079-.91 2 2 0 00-.218-.614.967.967 0 00-.348-.351.994.994 0 00-.473-.114c-.265 0-.515.106-.753.317-.239.21-.493.5-.758.863v2.82c.12.047.273.082.457.114.175.03.36.046.547.043.242.003.464-.047.668-.153.203-.097.375-.242.515-.43a2.1 2.1 0 00.328-.683c.075-.266.11-.567.114-.902zm0 0"/></symbol><symbol overflow="visible" id="X"><path d="M6.691-3.273c0 .507-.074.972-.218 1.39a3.088 3.088 0 01-.621 1.086 2.73 2.73 0 01-.997.695c-.394.164-.843.243-1.343.247-.485-.004-.91-.07-1.285-.207a2.415 2.415 0 01-.957-.625A2.637 2.637 0 01.664-1.73c-.14-.415-.207-.903-.207-1.458 0-.507.07-.972.219-1.394.14-.418.351-.773.629-1.074.27-.293.601-.524 1-.688.39-.16.836-.242 1.332-.246.48.004.91.074 1.289.215.375.14.695.352.957.633s.46.629.601 1.039c.137.414.207.89.207 1.43zm-1.613.035C5.074-3.906 4.95-4.41 4.7-4.746c-.25-.336-.62-.504-1.113-.504-.273 0-.504.055-.691.16-.192.106-.348.25-.47.434a1.907 1.907 0 00-.269.644c-.058.246-.09.508-.086.785-.004.676.133 1.184.407 1.524.27.34.64.508 1.109.508.258 0 .48-.051.672-.153.191-.101.347-.242.465-.43.117-.179.203-.398.265-.652a3.97 3.97 0 00.09-.808zm0 0"/></symbol><symbol overflow="visible" id="aa"><path d="M6.5-3.719l-.012.41c-.008.172-.015.332-.027.477H2.223c-.004.289.039.539.129.75.082.219.207.398.367.543.156.148.344.258.57.332.219.078.469.117.742.113.313.004.645-.02 1.004-.07a7.45 7.45 0 001.117-.238v1.23c-.168.05-.351.094-.543.129-.195.04-.39.066-.593.098-.204.027-.41.05-.618.066-.21.012-.41.02-.601.024a4.096 4.096 0 01-1.324-.207 2.481 2.481 0 01-.989-.622 2.576 2.576 0 01-.62-1.011C.713-2.094.643-2.56.647-3.09a4.282 4.282 0 01.215-1.433c.14-.43.344-.797.61-1.102.257-.305.578-.54.953-.71.375-.165.793-.25 1.254-.255.457.004.86.074 1.215.215.347.14.644.34.882.594.235.254.414.554.54.906.12.352.18.738.183 1.156zM4.926-3.94a1.907 1.907 0 00-.094-.664 1.427 1.427 0 00-.277-.465 1.166 1.166 0 00-.407-.274 1.512 1.512 0 00-.5-.09c-.39.004-.71.133-.957.391-.253.262-.402.629-.445 1.102zm0 0"/></symbol><symbol overflow="visible" id="ab"><path d="M5.719-5.32c.117.148.199.304.25.468.047.165.07.332.074.497-.004.363-.066.68-.188.953a1.992 1.992 0 01-.527.695c-.23.187-.5.328-.812.422a3.66 3.66 0 01-1.043.14c-.227 0-.434-.02-.625-.066a1.245 1.245 0 01-.43-.156 1.145 1.145 0 00-.184.238.55.55 0 00-.078.293c0 .07.016.137.051.203.031.07.082.133.148.184a.733.733 0 00.239.129c.09.039.191.058.308.058l1.528.055c.343.008.652.055.93.133.277.082.515.191.714.332.2.144.352.32.461.523.102.207.156.438.16.703-.004.297-.07.579-.203.848-.137.266-.344.5-.613.695-.274.196-.61.348-1.016.465-.406.11-.879.168-1.418.172a6.87 6.87 0 01-1.343-.125c-.375-.086-.68-.2-.918-.344-.243-.152-.422-.328-.532-.53A1.283 1.283 0 01.484.991 1.365 1.365 0 01.711.211C.78.094.879-.016.996-.125a3.09 3.09 0 01.406-.332A1.186 1.186 0 01.93-.914a1.127 1.127 0 01-.16-.598c-.004-.14.015-.273.054-.402.035-.121.086-.242.149-.36a2.49 2.49 0 01.215-.328c.078-.105.164-.207.253-.312a1.872 1.872 0 01-.39-.566c-.11-.223-.16-.5-.156-.836a2.19 2.19 0 01.19-.961c.126-.278.306-.516.54-.711.227-.192.5-.336.816-.438a3.57 3.57 0 011.032-.152c.187.004.37.016.547.031.175.024.335.055.48.098h2.234v1.129zM2.07.855c-.004.25.121.434.375.551.25.117.606.176 1.067.18.289-.004.535-.031.738-.082.195-.059.36-.129.492-.215a.822.822 0 00.274-.312.88.88 0 00.082-.368.478.478 0 00-.082-.289.612.612 0 00-.223-.199A1.133 1.133 0 004.457 0a4.115 4.115 0 00-.426-.05L2.664-.079a1.92 1.92 0 00-.3.242c-.083.078-.141.152-.184.227a.547.547 0 00-.09.222.967.967 0 00-.02.242zm.258-5.171c-.004.347.098.62.3.816.2.203.481.3.845.3.187 0 .351-.03.496-.093a.97.97 0 00.351-.254c.09-.101.16-.226.211-.367a1.63 1.63 0 00.07-.441c-.003-.356-.101-.637-.3-.84-.203-.2-.485-.301-.84-.301a1.2 1.2 0 00-.5.098.995.995 0 00-.563.632c-.05.149-.074.297-.07.45zm0 0"/></symbol><symbol overflow="visible" id="ac"><path d="M5.035-3.941A3.626 3.626 0 005-4.56a1.374 1.374 0 00-.152-.418.742.742 0 00-.258-.238.84.84 0 00-.348-.078c-.23.004-.469.098-.71.281-.247.192-.512.5-.802.93V0H1.14v-6.45h1.407l.055.942c.105-.164.222-.312.359-.445.129-.133.277-.246.441-.34.16-.094.34-.164.543-.219.196-.047.414-.074.657-.078.32.004.609.059.867.168.25.113.46.281.633.5.168.223.296.5.382.828.082.336.118.719.106 1.153zm0 0"/></symbol><symbol overflow="visible" id="ad"><path d="M6.625-4.328a6.683 6.683 0 01-.164 1.48c-.113.45-.274.856-.48 1.211L7.331 0H5.496l-.45-.547a3.026 3.026 0 01-.96.52 3.97 3.97 0 01-2.297.004A2.327 2.327 0 01.922-.5a1.909 1.909 0 01-.543-.754 2.399 2.399 0 01-.184-.98c-.004-.301.04-.579.121-.825.079-.246.184-.464.325-.664.132-.195.289-.37.468-.527.176-.148.368-.293.567-.43l-.13-.172A3.674 3.674 0 011-5.746a2.171 2.171 0 01-.195-.899C.8-6.94.855-7.227.965-7.5c.105-.273.262-.512.465-.723.203-.207.453-.375.758-.504a2.665 2.665 0 011.039-.191c.363 0 .691.055.98.156.29.106.531.242.73.418.2.176.352.383.454.617.101.239.152.493.156.758a2.258 2.258 0 01-.164.867c-.113.25-.258.465-.434.653-.183.187-.39.355-.617.5-.234.148-.469.289-.707.422L5.02-2.805c.058-.215.101-.449.132-.703a6.83 6.83 0 00.035-.82zm-4.898 1.96c-.004.188.027.36.093.513.063.156.153.289.27.398.113.113.254.2.422.262.164.062.347.093.554.09.22.003.434-.032.637-.102.2-.066.383-.172.55-.316L2.43-3.758c-.215.18-.387.375-.512.594-.133.219-.195.484-.191.797zm2.355-4.468a1.081 1.081 0 00-.062-.324.901.901 0 00-.172-.29 1.071 1.071 0 00-.282-.198 1.056 1.056 0 00-.378-.079.993.993 0 00-.391.082.86.86 0 00-.465.523c-.039.122-.059.247-.059.376 0 .23.055.445.164.648.11.207.258.43.45.664l.015.028c.157-.098.309-.196.453-.297.145-.094.27-.203.38-.32.105-.114.19-.235.253-.372.059-.128.09-.277.094-.44zm0 0"/></symbol><symbol overflow="visible" id="F"><path d="M6.203 5.406H3.262v-16.535h2.941v1.094H4.391V4.316h1.812zm0 0"/></symbol><symbol overflow="visible" id="I"><path d="M8.063-11.129L.73 4.926l-.992-.45L7.07-11.585zm0 0"/></symbol><symbol overflow="visible" id="J"><path d="M4.664-7.305l-.309 4.95h-.91l-.308-4.95zM4.938-.77a.91.91 0 01-.301.7 1.11 1.11 0 01-.739.265 1.086 1.086 0 01-.734-.265.86.86 0 01-.3-.7.866.866 0 01.3-.69c.2-.173.441-.263.734-.267.29.004.536.094.739.266.195.18.297.41.3.691zm0 0"/></symbol><symbol overflow="visible" id="L"><path d="M5.914 2.406C4.141 2.402 3.258 1.758 3.262.47v-2.117c-.004-.442-.38-.665-1.13-.668V-3.41c.75 0 1.126-.219 1.13-.66v-2.117c-.004-1.29.879-1.934 2.652-1.938v1.078c-1.02.004-1.527.277-1.523.82v2.145c-.004.504-.211.91-.621 1.219.41.34.617.75.62 1.226V.508c-.003.543.505.816 1.524.82zm0 0"/></symbol><symbol overflow="visible" id="T"><path d="M5.668-2.316c-.383.003-.664.058-.852.168a.54.54 0 00-.277.5V.469c-.004 1.289-.887 1.933-2.652 1.937V1.328c1.015-.004 1.523-.277 1.523-.82v-2.145c0-.476.207-.886.621-1.226a1.4 1.4 0 01-.468-.54 1.522 1.522 0 01-.153-.679v-2.145c0-.289-.12-.5-.363-.628-.242-.125-.629-.188-1.16-.192v-1.078c.894.004 1.558.164 1.996.48.433.32.652.805.656 1.457v2.118c-.004.23.086.398.274.508.164.101.449.152.855.152zm0 0"/></symbol><symbol overflow="visible" id="Y"><path d="M.52-3.434h6.164l-1.391-1.39.809-.805 2.742 2.754L6.102-.102l-.809-.804 1.39-1.39H.52zm0 0"/></symbol><symbol overflow="visible" id="Z"><path d="M6.5 0H4.094c-.809 0-1.52-.29-2.137-.867-.621-.578-.934-1.344-.93-2.305-.004-.95.309-1.719.93-2.305.617-.582 1.328-.875 2.137-.878H6.5v1.132H4.094c-.446.004-.836.141-1.172.418-.34.278-.57.63-.688 1.047H6.5v1.13H2.223c.105.44.332.8.68 1.081.343.281.742.422 1.19.418H6.5zm0 0"/></symbol><symbol overflow="visible" id="ae"><path d="M1.3-2.379l3.485-1.726L1.301-5.84v-1.156l5.523 2.875-5.523 2.894zm0 1.25h5.2V0H1.3zm0 0"/></symbol><symbol overflow="visible" id="af"><path d="M4.54 5.406H1.601v-1.09H3.41v-14.351H1.602v-1.094h2.937zm0 0"/></symbol><symbol overflow="visible" id="H"><path d="M3.355 0v-2.984c-.003-.496-.19-.746-.558-.75a.815.815 0 00-.531.226 3.955 3.955 0 00-.54.61V0H.626v-4.578h.953l.027.676c.09-.118.184-.223.29-.32a1.642 1.642 0 01.707-.402 2.18 2.18 0 01.453-.056c.23.004.437.043.613.117.172.079.316.188.437.325.114.144.2.312.262.508.055.199.086.417.09.656V0zm0 0"/></symbol><symbol overflow="visible" id="aj"><path d="M7.031-.633c-.476.246-.933.446-1.37.598-.438.152-.946.226-1.516.23-.934-.004-1.696-.28-2.293-.847A2.72 2.72 0 01.953-2.73c-.004-.903.305-1.625.926-2.176a3.153 3.153 0 012.164-.824c.832 0 1.523.253 2.082.753.55.508.828 1.11.832 1.805-.004.004-.004.067-.008.192a4.877 4.877 0 01-.02.316H2.864c-.004.555.14 1.047.434 1.48.289.438.7.73 1.23.871.371-.023.766-.109 1.18-.253.414-.141.781-.305 1.106-.489zm-.593-2.472c-.004-.575-.184-1.043-.536-1.415-.359-.363-.812-.593-1.363-.69-.578.187-.996.483-1.258.894-.265.414-.398.816-.394 1.21zM3.41-5.188a2.401 2.401 0 00-1.426.915 2.48 2.48 0 00-.504 1.609c.012.547.2 1.027.567 1.437.36.415.789.692 1.281.84a3.468 3.468 0 01-.71-.863c-.223-.36-.333-.86-.333-1.492 0-.594.11-1.09.332-1.492.223-.399.488-.715.793-.954zm0 0"/></symbol><symbol overflow="visible" id="an"><path d="M5.746 2.445h-2.16v-10.53h2.16v.444H4.07V2h1.676zm0 0"/></symbol><symbol overflow="visible" id="ap"><path d="M4.215 2.445h-2.16V2h1.68v-9.64h-1.68v-.446h2.16zm0 0"/></symbol><symbol overflow="visible" id="ak"><path d="M6.45-2.48c-.005.398-.083.75-.235 1.054-.156.313-.375.57-.66.781a3.07 3.07 0 01-1.032.48A5.21 5.21 0 013.172 0H1.004v-8.297h2.371c1.852 0 2.777.676 2.777 2.02 0 .453-.109.836-.324 1.156-.215.32-.562.559-1.043.715.223.043.434.117.637.215.2.105.379.234.531.394.152.164.274.356.363.574.086.22.13.47.133.743zM4.976-6.125a1.623 1.623 0 00-.079-.477.896.896 0 00-.265-.386 1.53 1.53 0 00-.512-.258 3.185 3.185 0 00-.82-.098H2.133v2.594h1.129c.254.004.488-.023.699-.082.21-.05.39-.137.543-.254.148-.113.266-.254.348-.426a1.44 1.44 0 00.125-.613zm.273 3.68c0-.207-.047-.399-.133-.57a1.295 1.295 0 00-.387-.426 2.16 2.16 0 00-.62-.27 3.327 3.327 0 00-.82-.098H2.132v2.856h1.195c.645.004 1.125-.117 1.445-.36.317-.242.477-.617.477-1.132zm0 0"/></symbol><symbol overflow="visible" id="al"><path d="M6.398-3.523a10.295 10.295 0 01-.023.691H1.898c0 .656.18 1.156.543 1.504.364.351.891.527 1.579.523.183.004.367-.004.554-.023a8.858 8.858 0 001.04-.145c.156-.03.3-.066.44-.105v.906c-.304.09-.644.156-1.019.207-.383.05-.773.074-1.176.078C3.31.11 2.84.04 2.45-.105A2.401 2.401 0 011.48-.75a2.572 2.572 0 01-.558-1.035 4.592 4.592 0 01-.18-1.387 3.93 3.93 0 01.192-1.273A3.12 3.12 0 011.5-5.5c.246-.3.547-.54.91-.719.36-.176.77-.265 1.227-.27.441.005.836.075 1.18.212.343.14.632.336.867.593.234.258.41.57.53.934.122.367.184.777.184 1.227zM5.25-3.68a2.49 2.49 0 00-.082-.777 1.74 1.74 0 00-.316-.61c-.141-.167-.32-.3-.532-.394a1.878 1.878 0 00-.734-.144c-.242.003-.465.05-.66.14-.203.098-.375.23-.516.395a1.94 1.94 0 00-.348.61c-.09.241-.144.5-.164.78zm0 0"/></symbol><symbol overflow="visible" id="am"><path d="M3.188-8.063H1.3v-.906h3.004v8.047h1.898V0h-5.11v-.922h2.095zm0 0"/></symbol><symbol overflow="visible" id="ao"><path d="M1.016-6.375H2l.043 1.031c.184-.218.363-.402.539-.55a3 3 0 01.512-.352c.164-.086.332-.149.511-.188a3 3 0 01.54-.054c.652.004 1.148.195 1.488.582.332.39.5.976.504 1.75V0H5.035v-4.07c-.004-.496-.098-.864-.281-1.106-.188-.234-.465-.355-.832-.36-.14.005-.274.024-.399.063-.132.04-.265.11-.402.207-.14.102-.293.235-.453.403a10.98 10.98 0 00-.547.636V0H1.016zm0 0"/></symbol></defs><g fill="#1a1a80"><use xlink:href="#a" x="38.833" y="17"/><use xlink:href="#b" x="48.105" y="17"/><use xlink:href="#c" x="57.552" y="17"/></g><use xlink:href="#d" x="73.833" y="17"/><use xlink:href="#e" x="76.833" y="17"/><use xlink:href="#f" x="83.673" y="17"/><use xlink:href="#g" x="91.232" y="17"/><use xlink:href="#d" x="99.438" y="17"/><use xlink:href="#h" x="102.438" y="17"/><use xlink:href="#i" x="109.997" y="17"/><use xlink:href="#j" x="113.688" y="17"/><use xlink:href="#k" x="120.692" y="17"/><use xlink:href="#d" x="128.133" y="17"/><use xlink:href="#l" x="131.133" y="17"/><use xlink:href="#k" x="136.338" y="17"/><use xlink:href="#m" x="143.778" y="17"/><use xlink:href="#n" x="150.063" y="17"/><use xlink:href="#o" x="158.224" y="17"/><use xlink:href="#p" x="162.049" y="17"/><use xlink:href="#m" x="167.119" y="17"/><use xlink:href="#d" x="173.404" y="17"/><use xlink:href="#i" x="176.404" y="17"/><use xlink:href="#g" x="180.095" y="17"/><use xlink:href="#j" x="188.3" y="17"/><use xlink:href="#q" x="195.305" y="17"/><use xlink:href="#o" x="203.435" y="17"/><use xlink:href="#j" x="207.26" y="17"/><use xlink:href="#i" x="214.265" y="17"/><use xlink:href="#g" x="217.955" y="17"/><use xlink:href="#h" x="226.16" y="17"/><use xlink:href="#d" x="233.72" y="17"/><g fill="#1a1a80"><use xlink:href="#r" x="235.833" y="17"/><use xlink:href="#s" x="246.043" y="17"/><use xlink:href="#t" x="254.655" y="17"/><use xlink:href="#t" x="259.083" y="17"/><use xlink:href="#r" x="263.511" y="17"/></g><use xlink:href="#u" x="275.72" y="17"/><g fill="#999"><use xlink:href="#v" x="4.5" y="49"/><use xlink:href="#w" x="7.001" y="49"/><use xlink:href="#x" x="12.007" y="49"/></g><use xlink:href="#y" x="14.508" y="49" fill="#999" fill-opacity=".32"/><g fill="#999"><use xlink:href="#z" x="21.575" y="49"/><use xlink:href="#A" x="24.076" y="49"/><use xlink:href="#B" x="26.577" y="49"/></g><use xlink:href="#C" x="38.833" y="49"/><use xlink:href="#D" x="45.98" y="49"/><use xlink:href="#E" x="53.128" y="49"/><use xlink:href="#F" x="59.833" y="49"/><use xlink:href="#G" x="67.833" y="49" fill="#3c7d91"/><use xlink:href="#H" x="74.833" y="43.6" fill="#002cc3"/><use xlink:href="#I" x="82.833" y="49"/><g fill="#3c7d91"><use xlink:href="#G" x="92.833" y="49"/></g><g><use xlink:href="#J" x="100.833" y="49"/></g><g><use xlink:href="#K" x="108.833" y="49"/></g><g><use xlink:href="#L" x="119.833" y="49"/></g><g fill="#3c7d91"><use xlink:href="#G" x="127.833" y="49"/></g><g><use xlink:href="#K" x="134.833" y="49"/></g><g><use xlink:href="#M" x="145.833" y="49"/></g><g><use xlink:href="#K" x="152.833" y="49"/></g><g><use xlink:href="#N" x="163.833" y="49"/><use xlink:href="#O" x="170.98" y="49"/><use xlink:href="#P" x="178.128" y="49"/><use xlink:href="#Q" x="185.275" y="49"/><use xlink:href="#O" x="192.423" y="49"/><use xlink:href="#Q" x="199.57" y="49"/><use xlink:href="#R" x="206.718" y="49"/><use xlink:href="#S" x="213.865" y="49"/></g><g><use xlink:href="#T" x="220.833" y="49"/></g><g><use xlink:href="#K" x="228.833" y="49"/></g><g><use xlink:href="#U" x="239.833" y="49"/><use xlink:href="#V" x="246.98" y="49"/><use xlink:href="#V" x="254.128" y="49"/><use xlink:href="#D" x="261.275" y="49"/><use xlink:href="#E" x="268.423" y="49"/><use xlink:href="#W" x="275.57" y="49"/><use xlink:href="#R" x="282.718" y="49"/><use xlink:href="#Q" x="289.865" y="49"/><use xlink:href="#X" x="297.013" y="49"/><use xlink:href="#O" x="304.16" y="49"/><use xlink:href="#V" x="311.308" y="49"/></g><g><use xlink:href="#Y" x="322.833" y="49"/></g><g fill="#002cc3"><use xlink:href="#O" x="335.833" y="49"/></g><g><use xlink:href="#Z" x="346.833" y="49"/></g><g><use xlink:href="#N" x="358.833" y="49"/><use xlink:href="#O" x="365.98" y="49"/><use xlink:href="#R" x="373.128" y="49"/><use xlink:href="#aa" x="380.275" y="49"/><use xlink:href="#ab" x="387.423" y="49"/><use xlink:href="#aa" x="394.57" y="49"/><use xlink:href="#ac" x="401.718" y="49"/><use xlink:href="#V" x="408.865" y="49"/></g><g><use xlink:href="#ad" x="418.833" y="49"/><use xlink:href="#ad" x="425.98" y="49"/></g><g fill="#002cc3"><use xlink:href="#O" x="435.833" y="49"/></g><g><use xlink:href="#ae" x="446.833" y="49"/></g><g><use xlink:href="#M" x="458.833" y="49"/></g><g><use xlink:href="#af" x="465.833" y="49"/></g><g fill="#999"><use xlink:href="#ag" y="77"/><use xlink:href="#ah" x="7.001" y="77"/><use xlink:href="#ai" x="12.007" y="77"/><use xlink:href="#x" x="14.508" y="77"/></g><g fill="#999" fill-opacity=".32"><use xlink:href="#y" x="17.009" y="77"/></g><g fill="#999"><use xlink:href="#z" x="24.076" y="77"/><use xlink:href="#B" x="26.577" y="77"/></g><g><use xlink:href="#aj" x="38.833" y="77"/></g><g><use xlink:href="#ak" x="49.833" y="77"/><use xlink:href="#al" x="56.98" y="77"/><use xlink:href="#am" x="64.128" y="77"/><use xlink:href="#am" x="71.275" y="77"/><use xlink:href="#ak" x="78.423" y="77"/></g><g><use xlink:href="#an" x="85.833" y="77"/></g><g><use xlink:href="#ao" x="93.833" y="77"/></g><g><use xlink:href="#ap" x="100.833" y="77"/></g></svg>